<svg width="85" height="85" viewBox="0 0 85 85" fill="none" xmlns="http://www.w3.org/2000/svg">
<path d="M67.5004 56.0651C67.6837 56.0634 67.6837 56.0634 67.8706 56.0617C68.2723 56.0585 68.6738 56.0579 69.0755 56.0575C69.3567 56.0565 69.6379 56.0553 69.9191 56.0542C70.508 56.0522 71.0969 56.0516 71.6858 56.0518C72.4367 56.0518 73.1876 56.0473 73.9385 56.0416C74.5194 56.0378 75.1002 56.0372 75.681 56.0374C75.9577 56.037 76.2343 56.0355 76.511 56.0329C78.1703 56.0189 79.7183 56.0161 81.0824 57.0919C81.1665 57.197 81.2506 57.302 81.3373 57.4103C81.4244 57.5141 81.5115 57.6179 81.6012 57.7248C82.3888 58.9512 82.4132 59.9612 82.4003 61.3959C82.4004 61.7144 82.4004 61.7144 82.4005 62.0392C82.4007 62.6185 82.3978 63.1977 82.3943 63.777C82.3911 64.3834 82.3909 64.9898 82.3903 65.5963C82.3887 66.7434 82.3846 67.8904 82.3796 69.0375C82.373 70.5884 82.3703 72.1394 82.3674 73.6903C82.3628 76.1321 82.3528 78.5739 82.3438 81.0156C75.9339 81.0156 69.524 81.0156 62.9199 81.0156C62.8999 75.7469 62.8999 75.7469 62.8956 73.5349C62.8927 72.009 62.8892 70.4832 62.8824 68.9573C62.8774 67.8459 62.8742 66.7346 62.8731 65.6232C62.8724 65.0351 62.8709 64.4471 62.8673 63.859C62.8632 63.2013 62.8632 62.5437 62.8634 61.8859C62.8616 61.6926 62.8598 61.4993 62.858 61.3001C62.8637 59.7803 63.0969 58.4795 64.082 57.2754C65.1113 56.3717 66.1328 56.0632 67.5004 56.0651Z" fill="white"/>
<path d="M9.93334 56.0462C10.0558 56.0451 10.1783 56.0439 10.3045 56.0427C10.7051 56.0397 11.1057 56.0403 11.5063 56.0413C11.7874 56.0405 12.0686 56.0397 12.3497 56.0387C12.9373 56.0372 13.5249 56.0376 14.1125 56.0392C14.8624 56.0411 15.6121 56.0378 16.362 56.0329C16.9421 56.0299 17.5222 56.0299 18.1023 56.0309C18.3786 56.0309 18.6549 56.0299 18.9312 56.0278C20.6129 56.017 22.0116 56.0422 23.3667 57.1509C24.2972 58.2882 24.7578 59.1821 24.7563 60.6722C24.7566 60.9421 24.7566 60.9421 24.757 61.2175C24.7561 61.511 24.7561 61.511 24.7552 61.8105C24.7552 62.0179 24.7552 62.2253 24.7553 62.439C24.7552 63.0063 24.7543 63.5735 24.7532 64.1408C24.7521 64.7341 24.752 65.3275 24.7518 65.9209C24.7513 67.0438 24.75 68.1668 24.7483 69.2898C24.7461 70.8077 24.7452 72.3256 24.7442 73.8436C24.7427 76.2342 24.7394 78.6249 24.7363 81.0156C18.3265 81.0156 11.9166 81.0156 5.31251 81.0156C5.27905 75.6287 5.27905 75.6287 5.27198 73.3659C5.26706 71.8055 5.26128 70.245 5.24989 68.6846C5.24159 67.548 5.23625 66.4114 5.23441 65.2747C5.23333 64.6734 5.23081 64.0721 5.22474 63.4708C5.21801 62.7979 5.21789 62.1253 5.21827 61.4524C5.2138 61.1564 5.2138 61.1564 5.20923 60.8543C5.21774 59.4721 5.4822 58.3386 6.42918 57.2901C7.40929 56.3472 8.60115 56.0373 9.93334 56.0462Z" fill="white"/>
<path d="M40.3509 56.0413C40.6279 56.0405 40.9049 56.0397 41.1819 56.0387C41.761 56.0372 42.34 56.0376 42.9192 56.0392C43.6575 56.0411 44.3956 56.0378 45.1339 56.0329C45.7057 56.0299 46.2773 56.0299 46.8491 56.0309C47.1211 56.0309 47.3931 56.0299 47.6651 56.0279C49.3377 56.0169 50.8842 56.0271 52.2378 57.1399C52.3388 57.2633 52.4399 57.3868 52.5439 57.514C52.6484 57.6371 52.7528 57.7601 52.8604 57.8869C53.3439 58.5897 53.4986 59.1847 53.4969 60.0333C53.4974 60.2189 53.4979 60.4044 53.4983 60.5955C53.4965 60.8984 53.4965 60.8984 53.4947 61.2074C53.4948 61.4213 53.4948 61.6352 53.4949 61.8555C53.4949 62.4406 53.493 63.0257 53.4907 63.6108C53.4886 64.2228 53.4884 64.8348 53.488 65.4467C53.487 66.605 53.4843 67.7632 53.4809 68.9215C53.4765 70.4871 53.4747 72.0526 53.4728 73.6182C53.4697 76.084 53.4631 78.5498 53.457 81.0156C47.1019 81.0156 40.7469 81.0156 34.1992 81.0156C34.1724 75.5737 34.1724 75.5737 34.1668 73.2907C34.1628 71.7153 34.1582 70.1399 34.1491 68.5645C34.1425 67.417 34.1382 66.2696 34.1367 65.1221C34.1359 64.5149 34.1338 63.9076 34.129 63.3004C34.1236 62.6216 34.1235 61.9428 34.1238 61.264C34.1214 61.0638 34.119 60.8637 34.1166 60.6575C34.1231 59.3338 34.298 58.4444 35.1719 57.407C35.2755 57.3191 35.3791 57.2311 35.4858 57.1405C35.5877 57.0504 35.6896 56.9603 35.7945 56.8675C37.2254 55.944 38.7129 56.0374 40.3509 56.0413Z" fill="white"/>
<path d="M18.9776 36.6583C19.185 36.8308 19.3892 37.0072 19.5898 37.1875C19.6921 37.2746 19.7944 37.3617 19.8998 37.4514C21.1701 38.61 21.8209 40.1691 21.9562 41.867C22.0279 43.9767 21.4913 45.7174 20.0879 47.3144C18.6822 48.7009 17.1077 49.3859 15.1366 49.4882C12.9294 49.423 11.1114 48.6411 9.59906 47.0369C8.27146 45.3389 7.82821 43.489 8.04655 41.3774C8.38367 39.3225 9.40126 37.8324 11.0673 36.6071C13.4265 35.0882 16.6554 34.9989 18.9776 36.6583Z" fill="white"/>
<path d="M43.8281 3.98438C45.6908 3.98438 47.5535 3.98438 49.4727 3.98438C49.4727 11.2708 49.4727 18.5572 49.4727 26.0645C47.61 26.0645 45.7473 26.0645 43.8281 26.0645C43.8281 18.778 43.8281 11.4916 43.8281 3.98438Z" fill="white"/>
<path d="M76.6992 9.46289C78.5619 9.46289 80.4246 9.46289 82.3438 9.46289C82.3438 14.9414 82.3438 20.4199 82.3438 26.0645C80.4811 26.0645 78.6184 26.0645 76.6992 26.0645C76.6992 20.5859 76.6992 15.1074 76.6992 9.46289Z" fill="white"/>
<path d="M76.4366 35.1194C78.213 36.4198 79.2088 37.8983 79.6212 40.0539C79.7308 40.8048 79.7283 41.5467 79.7199 42.3042C79.7194 42.4676 79.719 42.6311 79.7185 42.7995C79.7166 43.3154 79.7125 43.8311 79.7082 44.3469C79.7066 44.6993 79.705 45.0516 79.7037 45.404C79.7001 46.2622 79.6943 47.1203 79.6875 47.9785C79.0848 47.9785 78.4822 47.9785 77.8613 47.9785C77.8639 47.7548 77.8665 47.5311 77.8692 47.3006C77.8782 46.4718 77.8839 45.6429 77.8887 44.8141C77.8912 44.4551 77.8946 44.0962 77.8989 43.7372C77.9049 43.2217 77.9077 42.7062 77.9099 42.1907C77.9125 42.0298 77.9151 41.869 77.9177 41.7033C77.9178 41.5537 77.9178 41.4042 77.9178 41.2502C77.919 41.1185 77.9201 40.9869 77.9212 40.8513C77.8837 40.4983 77.8837 40.4983 77.6651 40.2163C77.2499 39.9322 76.9624 39.9476 76.4612 39.948C76.2767 39.9469 76.0922 39.9459 75.9022 39.9448C75.6033 39.9471 75.6033 39.9471 75.2984 39.9495C75.094 39.9494 74.8895 39.9493 74.6788 39.9492C74.1353 39.9497 73.5919 39.9525 73.0484 39.9562C72.7151 39.9579 72.3819 39.9579 72.0487 39.9574C71.4095 39.9563 70.7704 39.9576 70.1312 39.9598C69.932 39.9597 69.7328 39.9595 69.5275 39.9594C69.343 39.961 69.1585 39.9625 68.9684 39.9642C68.8059 39.9649 68.6433 39.9657 68.4759 39.9665C68.0243 39.9822 68.0243 39.9822 67.5683 40.3418C67.4145 40.8034 67.3821 41.0757 67.3835 41.5517C67.3835 41.6946 67.3835 41.8375 67.3835 41.9847C67.3844 42.1383 67.3852 42.2918 67.3861 42.4501C67.3865 42.6867 67.3865 42.6867 67.3868 42.9281C67.3878 43.4322 67.3898 43.9362 67.3919 44.4403C67.3928 44.782 67.3935 45.1236 67.3942 45.4653C67.396 46.303 67.3989 47.1408 67.4023 47.9785C66.8545 47.9785 66.3066 47.9785 65.7422 47.9785C65.7256 46.8565 65.7136 45.7345 65.7057 44.6124C65.7024 44.2315 65.6979 43.8505 65.6921 43.4696C65.649 40.5585 65.6696 38.2863 67.7344 36.0254C70.1004 33.9144 73.7035 33.3754 76.4366 35.1194Z" fill="white"/>
<path d="M44.4922 41.5039C44.822 41.6144 45.1505 41.7288 45.4779 41.8463C47.2155 42.3938 49.0151 42.2372 50.8008 42.002C50.9071 43.8445 50.4314 45.3608 49.3066 46.8164C49.2073 46.9636 49.108 47.1109 49.0057 47.2626C47.688 48.6556 45.8874 49.3829 43.9948 49.4772C42.1954 49.4608 40.5724 48.8506 39.1278 47.771C37.6951 46.305 36.8524 44.6757 36.8451 42.6038C36.8485 42.4052 36.8519 42.2066 36.8555 42.002C36.9464 42.0139 37.0374 42.0259 37.1311 42.0383C39.6047 42.3279 42.3231 41.0419 44.4922 41.5039Z" fill="white"/>
<path d="M27.2266 12.1191C29.0893 12.1191 30.952 12.1191 32.8711 12.1191C32.8711 16.7211 32.8711 21.323 32.8711 26.0645C31.0084 26.0645 29.1457 26.0645 27.2266 26.0645C27.2266 21.4625 27.2266 16.8605 27.2266 12.1191Z" fill="white"/>
<path d="M43.1641 35.1953C43.2463 35.2775 43.2463 35.2775 43.3301 35.3613C44.2744 35.5308 44.8492 35.0934 45.6096 34.5993C46.7396 33.8972 48.5537 34.0349 49.8268 34.3127C50.7413 34.6497 51.3425 35.1117 51.9629 35.8594C52.2405 36.692 52.2145 37.3037 51.8903 38.1213C51.3915 38.9152 50.5381 39.3189 49.6711 39.6135C47.8316 39.9376 46.1052 39.7485 44.5337 38.7128C43.9936 38.4277 43.746 38.5026 43.1641 38.6816C42.7761 38.8817 42.4004 39.0942 42.0266 39.3198C40.8565 39.9495 39.1071 39.8535 37.8354 39.5584C36.8764 39.1997 36.234 38.7187 35.6415 37.8723C35.4196 37.1864 35.4305 36.5835 35.7141 35.9216C37.5712 33.5693 40.8152 33.6366 43.1641 35.1953Z" fill="white"/>
<path d="M60.2637 14.9414C62.1264 14.9414 63.9891 14.9414 65.9082 14.9414C65.9082 18.612 65.9082 22.2826 65.9082 26.0645C64.0455 26.0645 62.1828 26.0645 60.2637 26.0645C60.2637 22.3938 60.2637 18.7232 60.2637 14.9414Z" fill="white"/>
<path d="M69.8926 42.334C71.7553 42.334 73.618 42.334 75.5371 42.334C75.5474 43.1044 75.5577 43.8748 75.5683 44.6686C75.5751 45.0297 75.5751 45.0297 75.582 45.3982C75.5949 47.3946 75.5949 47.3946 75.0391 48.3105C74.4295 48.9201 73.8965 49.3027 73.0469 49.4727C72.0631 49.4414 71.3351 49.2551 70.5567 48.6426C69.6289 47.5177 69.8184 46.2282 69.8511 44.8346C69.8648 44.0094 69.8785 43.1842 69.8926 42.334Z" fill="white"/>
<path d="M10.791 25.8984C14.4616 25.8984 18.1322 25.8984 21.9141 25.8984C21.9141 26.8298 21.9141 27.7611 21.9141 28.7207C18.2435 28.7207 14.5729 28.7207 10.791 28.7207C10.791 27.7894 10.791 26.858 10.791 25.8984Z" fill="white"/>
<path d="M10.791 20.4199C14.4616 20.4199 18.1322 20.4199 21.9141 20.4199C21.9141 21.3513 21.9141 22.2826 21.9141 23.2422C18.2435 23.2422 14.5729 23.2422 10.791 23.2422C10.791 22.3108 10.791 21.3795 10.791 20.4199Z" fill="white"/>
<path d="M10.791 14.9414C14.4616 14.9414 18.1322 14.9414 21.9141 14.9414C21.9141 15.8728 21.9141 16.8041 21.9141 17.7637C18.2435 17.7637 14.5729 17.7637 10.791 17.7637C10.791 16.8323 10.791 15.901 10.791 14.9414Z" fill="white"/>
<path d="M10.791 9.46289C14.4616 9.46289 18.1322 9.46289 21.9141 9.46289C21.9141 10.3942 21.9141 11.3256 21.9141 12.2852C18.2435 12.2852 14.5729 12.2852 10.791 12.2852C10.791 11.3538 10.791 10.4225 10.791 9.46289Z" fill="white"/>
<path d="M2.49023 25.8984C4.35293 25.8984 6.21563 25.8984 8.13477 25.8984C8.13477 26.8298 8.13477 27.7611 8.13477 28.7207C6.27207 28.7207 4.40938 28.7207 2.49023 28.7207C2.49023 27.7894 2.49023 26.858 2.49023 25.8984Z" fill="white"/>
<path d="M2.49023 20.4199C4.35293 20.4199 6.21563 20.4199 8.13477 20.4199C8.13477 21.3513 8.13477 22.2826 8.13477 23.2422C6.27207 23.2422 4.40938 23.2422 2.49023 23.2422C2.49023 22.3108 2.49023 21.3795 2.49023 20.4199Z" fill="white"/>
<path d="M2.49023 14.9414C4.35293 14.9414 6.21563 14.9414 8.13477 14.9414C8.13477 15.8728 8.13477 16.8041 8.13477 17.7637C6.27207 17.7637 4.40938 17.7637 2.49023 17.7637C2.49023 16.8323 2.49023 15.901 2.49023 14.9414Z" fill="white"/>
<path d="M2.49023 9.46289C4.35293 9.46289 6.21563 9.46289 8.13477 9.46289C8.13477 10.3942 8.13477 11.3256 8.13477 12.2852C6.27207 12.2852 4.40938 12.2852 2.49023 12.2852C2.49023 11.3538 2.49023 10.4225 2.49023 9.46289Z" fill="white"/>
</svg>
