<svg width="85" height="85" viewBox="0 0 85 85" fill="none" xmlns="http://www.w3.org/2000/svg">
<g clip-path="url(#clip0_1046_146)">
<path d="M34.5714 49.8747C35.3484 50.5722 35.8014 51.4145 35.871 52.4596C35.8308 53.6082 35.4261 54.5544 34.6094 55.371C34.3034 55.6444 33.9921 55.9101 33.678 56.1742C33.4333 56.3846 33.1889 56.5954 32.9447 56.8064C32.8157 56.9176 32.6868 57.0288 32.5539 57.1434C25.3241 62.9558 25.3241 62.9558 21.8357 71.0864C21.7481 73.3834 22.2404 75.5801 22.5781 77.8613C18.4692 77.8613 14.3603 77.8613 10.1269 77.8613C10.0854 74.1675 10.0854 74.1675 10.0775 73.0039C10.0726 72.6992 10.0675 72.3944 10.0621 72.0897C10.0618 71.8528 10.0618 71.8528 10.0615 71.6112C10.0508 70.7263 10.0508 70.7263 9.65435 69.9569C9.16906 69.6442 8.86696 69.6422 8.30078 69.7266C7.83447 70.0482 7.74621 70.3494 7.63671 70.8887C7.61857 71.1267 7.60766 71.3654 7.60263 71.6041C7.59932 71.7437 7.596 71.8832 7.59259 72.027C7.58843 72.2506 7.58843 72.2506 7.58418 72.4788C7.58073 72.6326 7.57728 72.7864 7.57373 72.9449C7.56289 73.4354 7.5531 73.926 7.54333 74.4165C7.53616 74.7494 7.52892 75.0823 7.5216 75.4152C7.50372 76.2306 7.48725 77.0459 7.4707 77.8613C5.66279 77.8613 3.85488 77.8613 1.99218 77.8613C1.97712 76.0587 1.96496 74.2561 1.95778 72.4535C1.95433 71.6162 1.94965 70.779 1.94209 69.9418C1.93482 69.1323 1.93089 68.3229 1.92918 67.5134C1.92796 67.2061 1.92558 66.8988 1.92197 66.5915C1.89227 63.9577 2.13738 61.8088 3.98437 59.7656C5.36764 58.4693 6.99926 57.5692 8.93238 57.626C9.57733 57.6685 10.2212 57.7245 10.8652 57.779C18.2794 58.5797 18.2794 58.5797 24.9155 55.9652C26.6115 54.4819 28.0935 52.7228 29.3865 50.8804C30.0203 49.9884 30.467 49.4601 31.5505 49.1921C32.6687 49.0147 33.6436 49.2211 34.5714 49.8747Z" fill="white"/>
<path d="M63.4019 57.5618C63.5433 57.561 63.6847 57.5601 63.8304 57.5592C64.2941 57.557 64.7577 57.5571 65.2214 57.5575C65.5464 57.5568 65.8714 57.5561 66.1964 57.5553C66.8764 57.5541 67.5564 57.5541 68.2364 57.555C69.1038 57.556 69.9712 57.5532 70.8386 57.5493C71.5096 57.5469 72.1806 57.5467 72.8516 57.5472C73.1712 57.5472 73.4908 57.5463 73.8104 57.5446C76.5798 57.5318 78.9059 57.7959 81.0292 59.7539C83.0205 61.9034 83.0807 64.2499 83.0564 67.0152C83.0555 67.329 83.0548 67.6427 83.0543 67.9565C83.0524 68.7766 83.0475 69.5967 83.042 70.4169C83.0369 71.256 83.0346 72.0952 83.0321 72.9344C83.0268 74.5767 83.018 76.219 83.0078 77.8613C81.1999 77.8613 79.392 77.8613 77.5293 77.8613C77.5212 77.3676 77.513 76.8739 77.5046 76.3652C77.4957 75.8861 77.4862 75.407 77.4766 74.9279C77.4702 74.5954 77.4645 74.2629 77.4592 73.9303C77.4516 73.4518 77.442 72.9734 77.432 72.495C77.4291 72.2726 77.4291 72.2726 77.4262 72.0458C77.4046 71.1326 77.3765 70.4039 76.6992 69.7266C76.14 69.6536 75.825 69.6484 75.345 69.9563C74.871 70.6292 74.9388 71.2849 74.9379 72.0897C74.9353 72.2359 74.9327 72.3821 74.93 72.5327C74.9213 73.0776 74.9183 73.6225 74.9145 74.1675C74.9008 75.3864 74.8871 76.6054 74.873 77.8613C71.2024 77.8613 67.5318 77.8613 63.75 77.8613C63.6981 74.0741 63.6981 74.0741 63.6856 72.8797C63.6802 72.5677 63.6747 72.2557 63.6689 71.9438C63.6679 71.7814 63.6669 71.6191 63.6658 71.4518C63.6625 71.2968 63.6592 71.1419 63.6558 70.9822C63.653 70.7803 63.653 70.7803 63.6502 70.5744C63.5677 70.1388 63.4376 69.9903 63.0859 69.7266C62.5197 69.6422 62.2176 69.6442 61.7323 69.9569C61.2571 70.6292 61.3256 71.285 61.3246 72.0897C61.3219 72.2546 61.3191 72.4194 61.3163 72.5893C61.3082 73.1154 61.3047 73.6414 61.3013 74.1675C61.2966 74.5244 61.2916 74.8813 61.2863 75.2381C61.2735 76.1126 61.2668 76.9868 61.2598 77.8613C59.3971 77.8613 57.5344 77.8613 55.6152 77.8613C55.6039 76.1482 55.5948 74.435 55.5894 72.7218C55.5868 71.9261 55.5833 71.1304 55.5776 70.3347C55.5722 69.565 55.5692 68.7954 55.568 68.0257C55.5671 67.7339 55.5653 67.442 55.5626 67.1502C55.537 64.2784 55.7656 61.8497 57.7942 59.6411C59.3553 58.1537 61.289 57.5552 63.4019 57.5618Z" fill="white"/>
<path d="M59.0044 7.09651C59.1109 7.09599 59.2174 7.09547 59.3272 7.09494C59.6838 7.09362 60.0403 7.09466 60.3969 7.09571C60.6528 7.09526 60.9086 7.09467 61.1644 7.09395C61.859 7.09243 62.5535 7.09302 63.2481 7.09407C63.9747 7.09491 64.7014 7.09413 65.4281 7.09361C66.6484 7.09301 67.8687 7.0938 69.089 7.09539C70.5002 7.09719 71.9113 7.09661 73.3225 7.09478C74.5337 7.09327 75.745 7.09306 76.9562 7.09393C77.6798 7.09445 78.4034 7.09451 79.127 7.09342C79.8072 7.09246 80.4874 7.09312 81.1677 7.09504C81.4174 7.09548 81.6672 7.09536 81.9169 7.09462C82.2577 7.09372 82.5983 7.09485 82.939 7.09651C83.1297 7.09663 83.3205 7.09676 83.517 7.09689C84.0009 7.13841 84.2692 7.19974 84.668 7.4707C85.0186 7.99658 85.0418 8.12266 85.0433 8.72376C85.0445 8.87854 85.0456 9.03332 85.0468 9.19279C85.0464 9.36227 85.046 9.53175 85.0456 9.70636C85.0464 9.8851 85.0473 10.0638 85.0482 10.248C85.0505 10.8404 85.0503 11.4327 85.0499 12.0251C85.0506 12.436 85.0513 12.8468 85.0521 13.2577C85.0533 14.1195 85.0533 14.9812 85.0524 15.843C85.0514 16.9486 85.0543 18.0541 85.0581 19.1597C85.0606 20.0084 85.0607 20.8571 85.0602 21.7057C85.0603 22.1134 85.0611 22.5211 85.0628 22.9288C85.0649 23.4983 85.0637 24.0678 85.0618 24.6374C85.0631 24.8065 85.0644 24.9757 85.0657 25.1499C85.0645 25.3052 85.0633 25.4604 85.0621 25.6204C85.0622 25.755 85.0622 25.8897 85.0622 26.0284C84.9837 26.493 84.8227 26.7193 84.502 27.0605C83.9878 27.2319 83.6751 27.2363 83.1387 27.2159C82.1422 27.1832 81.1463 27.1664 80.1493 27.155C79.721 27.1474 79.2927 27.1352 78.8646 27.1179C76.1904 26.9521 76.1904 26.9521 73.8246 27.997C73.2138 28.5711 72.6908 29.1978 72.1795 29.8606C71.7836 30.3364 71.3351 30.7241 70.8599 31.1186C70.553 31.3801 70.2756 31.6571 69.9963 31.9476C69.5606 32.373 69.5606 32.373 69.2285 32.373C69.2285 30.6747 69.2285 28.9764 69.2285 27.2266C68.4232 27.2323 67.6179 27.2381 66.7882 27.2441C66.2775 27.2466 65.7668 27.249 65.2561 27.2509C64.4458 27.2539 63.6356 27.2574 62.8253 27.2641C62.1719 27.2696 61.5185 27.2725 60.8651 27.2738C60.616 27.2747 60.367 27.2765 60.1179 27.2792C59.7686 27.2828 59.4193 27.2833 59.07 27.2831C58.7719 27.2848 58.7719 27.2848 58.4679 27.2865C57.8828 27.2201 57.5716 27.0889 57.1094 26.7285C56.9531 26.2598 56.9222 25.9733 56.9212 25.4881C56.9205 25.3361 56.9197 25.1841 56.919 25.0275C56.9191 24.8611 56.9192 24.6948 56.9192 24.5233C56.9187 24.3478 56.9181 24.1723 56.9176 23.9915C56.916 23.4099 56.9157 22.8283 56.9155 22.2467C56.9149 21.8433 56.9144 21.4399 56.9138 21.0365C56.9128 20.1904 56.9125 19.3442 56.9126 18.4981C56.9126 17.4126 56.9103 16.3271 56.9075 15.2417C56.9056 14.4084 56.9053 13.5751 56.9054 12.7418C56.9052 12.3415 56.9045 11.9413 56.9032 11.541C56.9016 10.9818 56.902 10.4226 56.903 9.86338C56.9021 9.69734 56.9012 9.5313 56.9002 9.36023C56.9009 9.20778 56.9016 9.05533 56.9023 8.89825C56.9022 8.76607 56.9021 8.63388 56.902 8.49769C56.95 8.07629 57.0387 7.82303 57.2754 7.4707C57.8254 7.07701 58.3426 7.09694 59.0044 7.09651ZM60.5608 11.0088C60.2096 11.4492 60.2096 11.4492 60.2533 12.0569C60.4494 12.6796 60.547 12.7951 61.0938 13.1152C61.4879 13.1903 61.4879 13.1903 61.918 13.1807C62.084 13.1826 62.2499 13.1845 62.4209 13.1864C62.6924 13.1857 62.6924 13.1857 62.9695 13.1849C63.1609 13.1864 63.3524 13.1878 63.5497 13.1892C64.1835 13.1931 64.8172 13.1933 65.451 13.1931C65.7798 13.1939 66.1086 13.1948 66.4375 13.1959C67.4713 13.199 68.5051 13.1995 69.5389 13.1984C70.6047 13.1973 71.6705 13.2011 72.7363 13.2073C73.6521 13.2124 74.5678 13.2142 75.4835 13.2136C76.0302 13.2132 76.5768 13.2145 77.1234 13.2182C77.7332 13.2219 78.3427 13.2203 78.9524 13.2174C79.2234 13.2207 79.2234 13.2207 79.5 13.224C80.5103 13.2131 80.5103 13.2131 81.3826 12.7314C81.7337 12.291 81.7337 12.291 81.6901 11.6834C81.494 11.0606 81.3964 10.9451 80.8496 10.625C80.4554 10.5499 80.4554 10.5499 80.0253 10.5595C79.8594 10.5576 79.6934 10.5558 79.5225 10.5538C79.2509 10.5545 79.2509 10.5545 78.9739 10.5553C78.7824 10.5539 78.591 10.5525 78.3937 10.551C77.7599 10.5471 77.1262 10.547 76.4924 10.5472C76.1635 10.5463 75.8347 10.5454 75.5059 10.5444C74.4721 10.5412 73.4383 10.5407 72.4045 10.5418C71.3387 10.5429 70.2729 10.5391 69.2071 10.533C68.2913 10.5279 67.3756 10.526 66.4598 10.5266C65.9132 10.527 65.3666 10.5257 64.8199 10.522C64.2102 10.5183 63.6007 10.5199 62.991 10.5229C62.7199 10.5196 62.7199 10.5196 62.4434 10.5162C61.4331 10.5271 61.4331 10.5271 60.5608 11.0088ZM60.2637 16.4355C60.1253 16.9408 60.1253 16.9408 60.2637 17.4316C60.5736 17.8139 60.8209 18.0423 61.2598 18.2617C61.517 18.2778 61.7749 18.2834 62.0326 18.2839C62.1956 18.2846 62.3585 18.2853 62.5264 18.2861C62.7058 18.286 62.8851 18.2859 63.07 18.2858C63.2584 18.2864 63.4468 18.287 63.641 18.2875C64.2666 18.2891 64.8922 18.2894 65.5178 18.2896C65.9512 18.2901 66.3847 18.2907 66.8181 18.2913C67.7277 18.2923 68.6374 18.2926 69.5471 18.2925C70.5986 18.2924 71.65 18.2941 72.7015 18.2968C73.7127 18.2992 74.724 18.2998 75.7352 18.2997C76.1656 18.2999 76.5959 18.3006 77.0263 18.3019C77.6277 18.3035 78.229 18.3031 78.8304 18.302C79.0091 18.303 79.1879 18.3039 79.372 18.3049C79.5359 18.3042 79.6997 18.3035 79.8686 18.3028C80.0819 18.3029 80.0819 18.3029 80.2995 18.303C80.7275 18.257 80.9866 18.1624 81.3477 17.9297C81.7341 17.3501 81.7632 17.1175 81.6797 16.4355C81.3697 16.0533 81.1225 15.8249 80.6836 15.6055C80.4271 15.5884 80.17 15.5816 79.913 15.5799C79.7505 15.5785 79.5881 15.5771 79.4207 15.5756C79.2418 15.5749 79.063 15.5742 78.8787 15.5734C78.6908 15.5721 78.5029 15.5707 78.3093 15.5693C77.6853 15.5652 77.0613 15.5625 76.4372 15.5601C76.2245 15.5592 76.0117 15.5583 75.7925 15.5574C74.8985 15.5539 74.0044 15.5507 73.1103 15.5488C71.8295 15.5461 70.5488 15.5406 69.268 15.5312C68.2586 15.524 67.2492 15.5213 66.2397 15.5202C65.8105 15.5191 65.3813 15.5166 64.9522 15.5126C64.3516 15.5074 63.7512 15.5074 63.1506 15.5086C62.8843 15.5045 62.8843 15.5045 62.6127 15.5003C61.538 15.5094 60.9852 15.6124 60.2637 16.4355ZM60.5354 21.1359C60.213 21.5807 60.213 21.5807 60.2533 22.1838C60.4504 22.8099 60.5381 22.9273 61.0938 23.2422C61.578 23.3186 61.578 23.3186 62.1187 23.3093C62.3259 23.3114 62.5331 23.3135 62.7466 23.3156C62.9721 23.3153 63.1976 23.3148 63.4232 23.3142C63.6551 23.3149 63.8871 23.3158 64.119 23.3168C64.6047 23.3183 65.0903 23.3179 65.5759 23.3162C66.1979 23.3143 66.8196 23.3177 67.4416 23.3225C67.9204 23.3256 68.3992 23.3255 68.878 23.3246C69.1073 23.3246 69.3366 23.3256 69.5659 23.3276C69.8865 23.3301 70.2072 23.3279 70.5278 23.3255C70.7101 23.3255 70.8924 23.3254 71.0803 23.3254C71.6666 23.2221 71.8619 23.0488 72.2168 22.5781C72.3413 21.9971 72.3413 21.9971 72.2168 21.416C71.7881 20.98 71.508 20.7733 70.9017 20.6665C70.7232 20.6655 70.5447 20.6645 70.3608 20.6634C70.1575 20.6608 69.9541 20.6581 69.7446 20.6554C69.5264 20.6562 69.3081 20.6571 69.0833 20.6579C68.8557 20.6571 68.6281 20.656 68.4005 20.6548C67.9243 20.6531 67.4482 20.6538 66.9721 20.6563C66.363 20.6591 65.7541 20.6552 65.145 20.6494C64.6753 20.6457 64.2056 20.646 63.7359 20.6473C63.4025 20.6475 63.0692 20.6442 62.7358 20.6409C61.5455 20.6063 61.5455 20.6063 60.5354 21.1359Z" fill="white"/>
<path d="M2.02106 7.11647C2.23986 7.11576 2.45867 7.11506 2.68411 7.11433C2.92803 7.11438 3.17196 7.11446 3.41588 7.11455C3.67164 7.11406 3.9274 7.11349 4.18316 7.11286C4.87913 7.11139 5.57509 7.11101 6.27106 7.1109C6.85154 7.11075 7.43203 7.11014 8.01252 7.10955C9.38188 7.10819 10.7512 7.10779 12.1206 7.10791C13.5342 7.10801 14.9478 7.10626 16.3614 7.10363C17.574 7.10146 18.7867 7.10057 19.9994 7.10068C20.7241 7.10072 21.4488 7.10024 22.1734 7.09849C22.855 7.09689 23.5366 7.09687 24.2182 7.09808C24.4685 7.09825 24.7188 7.09786 24.9691 7.09686C25.3106 7.09558 25.652 7.09634 25.9934 7.09762C26.1846 7.09753 26.3757 7.09744 26.5727 7.09735C27.0604 7.13866 27.3288 7.18716 27.7246 7.4707C28.0445 7.94706 28.0983 8.33057 28.0988 8.89713C28.1002 9.12545 28.1002 9.12545 28.1016 9.35839C28.1006 9.60705 28.1006 9.60705 28.0996 9.86074C28.1005 10.124 28.1005 10.124 28.1014 10.3926C28.1028 10.9733 28.1019 11.554 28.1007 12.1347C28.101 12.5379 28.1013 12.941 28.1017 13.3442C28.1022 14.1894 28.1015 15.0345 28.0999 15.8797C28.098 16.9639 28.0991 18.048 28.1011 19.1322C28.1023 19.9648 28.1019 20.7973 28.1011 21.6299C28.1008 22.0297 28.1011 22.4295 28.1019 22.8293C28.1027 23.3877 28.1015 23.9461 28.0996 24.5045C28.1003 24.6703 28.1009 24.836 28.1016 25.0068C28.1007 25.1591 28.0998 25.3113 28.0988 25.4681C28.0986 25.666 28.0986 25.666 28.0984 25.868C28.0512 26.2779 27.9385 26.5435 27.7246 26.8945C27.1647 27.3 26.6236 27.2668 25.9489 27.2643C25.7835 27.2643 25.7835 27.2643 25.6149 27.2644C25.252 27.2642 24.8891 27.2616 24.5262 27.259C24.2741 27.2584 24.0219 27.2579 23.7697 27.2576C23.1071 27.2563 22.4444 27.253 21.7818 27.2494C20.9861 27.2454 20.1905 27.2438 19.3949 27.2419C18.1871 27.2387 16.9793 27.2323 15.7715 27.2266C15.7715 28.9249 15.7715 30.6232 15.7715 32.373C15.097 32.0358 14.7546 31.7171 14.2358 31.1798C13.6168 30.5459 12.989 29.9396 12.306 29.3745C11.9531 29.0527 11.9531 29.0527 11.6023 28.6402C10.891 27.8231 10.3724 27.2947 9.26424 27.1968C8.88492 27.1935 8.50545 27.1988 8.12633 27.2116C7.92429 27.2115 7.72226 27.2113 7.5141 27.2112C6.87329 27.212 6.23332 27.2239 5.59265 27.2369C4.94918 27.2438 4.3058 27.2482 3.6623 27.2502C3.26317 27.2521 2.86405 27.2572 2.46501 27.2657C2.2843 27.2678 2.10359 27.2699 1.9174 27.272C1.67994 27.2767 1.67994 27.2767 1.43768 27.2816C0.905609 27.2153 0.59739 27.0416 0.16601 26.7285C-0.0300912 26.3363 -0.0221345 26.0989 -0.0244384 25.6614C-0.0256263 25.5069 -0.0268142 25.3523 -0.0280381 25.1931C-0.0284845 25.023 -0.0289309 24.8529 -0.0293908 24.6777C-0.0304817 24.499 -0.0315727 24.3203 -0.0326966 24.1361C-0.0359774 23.5429 -0.0379097 22.9496 -0.0395641 22.3563C-0.0402407 22.1542 -0.0409173 21.952 -0.0416144 21.7437C-0.0450794 20.674 -0.0474531 19.6044 -0.0490079 18.5347C-0.0506797 17.4278 -0.0565601 16.321 -0.0631477 15.2141C-0.0674798 14.3647 -0.0688775 13.5154 -0.0694745 12.666C-0.0702852 12.2578 -0.0722214 11.8497 -0.0752914 11.4416C-0.079316 10.8711 -0.0791851 10.3009 -0.0780282 9.73048C-0.0801549 9.56107 -0.0822815 9.39167 -0.0844727 9.21713C-0.0759864 8.07251 -0.0759864 8.07251 0.31615 7.53699C0.925064 7.13041 1.28737 7.11754 2.02106 7.11647ZM3.61742 11.0088C3.26625 11.4492 3.26625 11.4492 3.30993 12.0569C3.50598 12.6796 3.60362 12.7951 4.15039 13.1152C4.54456 13.1903 4.54456 13.1903 4.97467 13.1807C5.14061 13.1826 5.30655 13.1845 5.47752 13.1864C5.74908 13.1857 5.74908 13.1857 6.02613 13.1849C6.21758 13.1864 6.40903 13.1878 6.60629 13.1892C7.24009 13.1931 7.87383 13.1933 8.50765 13.1931C8.83646 13.1939 9.16527 13.1948 9.49408 13.1959C10.5279 13.199 11.5617 13.1995 12.5955 13.1984C13.6613 13.1973 14.7271 13.2011 15.7929 13.2073C16.7087 13.2124 17.6244 13.2142 18.5402 13.2136C19.0868 13.2132 19.6334 13.2145 20.1801 13.2182C20.7898 13.2219 21.3993 13.2203 22.009 13.2174C22.2801 13.2207 22.2801 13.2207 22.5566 13.224C23.5669 13.2131 23.5669 13.2131 24.4392 12.7314C24.7904 12.291 24.7904 12.291 24.7467 11.6833C24.5506 11.0606 24.453 10.9451 23.9062 10.625C23.5121 10.5499 23.5121 10.5499 23.082 10.5595C22.916 10.5576 22.7501 10.5558 22.5791 10.5538C22.3076 10.5545 22.3076 10.5545 22.0305 10.5553C21.8391 10.5539 21.6476 10.5525 21.4503 10.551C20.8165 10.5471 20.1828 10.547 19.549 10.5472C19.2202 10.5463 18.8914 10.5454 18.5625 10.5444C17.5287 10.5412 16.4949 10.5407 15.4611 10.5418C14.3953 10.5429 13.3295 10.5391 12.2637 10.533C11.3479 10.5279 10.4322 10.526 9.51646 10.5266C8.96979 10.527 8.42321 10.5257 7.87656 10.522C7.26683 10.5183 6.65733 10.5199 6.04761 10.5229C5.77655 10.5196 5.77655 10.5196 5.50002 10.5162C4.48975 10.5271 4.48975 10.5271 3.61742 11.0088ZM3.65234 15.9375C3.26594 16.5171 3.2368 16.7497 3.32031 17.4316C3.63027 17.8139 3.87753 18.0423 4.3164 18.2617C4.57363 18.2778 4.83154 18.2834 5.08926 18.2839C5.2522 18.2846 5.41513 18.2853 5.583 18.2861C5.76239 18.286 5.94178 18.2859 6.1266 18.2858C6.31504 18.2864 6.50347 18.2869 6.69761 18.2875C7.32323 18.2891 7.94883 18.2894 8.57444 18.2896C9.00786 18.2901 9.44129 18.2907 9.87471 18.2913C10.7844 18.2923 11.6941 18.2926 12.6037 18.2925C13.6552 18.2924 14.7067 18.2941 15.7581 18.2968C16.7694 18.2992 17.7806 18.2998 18.7918 18.2997C19.2222 18.2999 19.6526 18.3006 20.083 18.3019C20.6843 18.3035 21.2857 18.303 21.8871 18.302C22.0658 18.303 22.2445 18.3039 22.4286 18.3049C22.5925 18.3042 22.7564 18.3035 22.9252 18.3028C23.1385 18.3029 23.1385 18.3029 23.3561 18.303C23.7841 18.257 24.0432 18.1624 24.4043 17.9297C24.7945 17.3444 24.8466 17.1245 24.7363 16.4355C24.2955 15.9308 24.0045 15.6553 23.3403 15.53C22.8432 15.5008 22.3525 15.499 21.8546 15.506C21.6661 15.5053 21.4776 15.5047 21.2833 15.504C20.6613 15.5029 20.0394 15.5077 19.4173 15.5127C18.9849 15.5134 18.5524 15.5138 18.1199 15.5139C17.2142 15.5147 16.3085 15.5186 15.4028 15.5246C14.3562 15.5315 13.3097 15.5345 12.2631 15.535C11.255 15.5355 10.247 15.5381 9.23896 15.5416C8.81043 15.5431 8.38191 15.5442 7.95338 15.545C7.35524 15.5465 6.75715 15.5502 6.15903 15.5546C5.98135 15.5547 5.80368 15.5548 5.62062 15.5549C5.45771 15.5566 5.2948 15.5582 5.12696 15.56C4.98563 15.5607 4.84429 15.5615 4.69868 15.5623C4.27277 15.6104 4.01214 15.7061 3.65234 15.9375ZM12.7832 21.416C12.6725 21.9971 12.6725 21.9971 12.7832 22.5781C13.1371 23.0479 13.3344 23.2217 13.9186 23.3276C14.1004 23.3287 14.2822 23.3297 14.4696 23.3307C14.6762 23.3334 14.8829 23.336 15.0958 23.3387C15.3208 23.3381 15.5458 23.3372 15.7708 23.3362C16.0024 23.3371 16.2339 23.3381 16.4655 23.3393C16.9505 23.3411 17.4354 23.3403 17.9203 23.3379C18.5408 23.335 19.161 23.3389 19.7814 23.3448C20.2596 23.3484 20.7376 23.3482 21.2158 23.3468C21.4445 23.3467 21.6731 23.3478 21.9018 23.3502C22.222 23.3531 22.5423 23.3502 22.8624 23.347C23.1354 23.3467 23.1354 23.3467 23.4138 23.3465C24.0719 23.2071 24.3259 22.9346 24.7363 22.4121C24.7785 21.8081 24.7785 21.8081 24.5703 21.25C24.0397 20.7178 23.616 20.6885 22.8813 20.6849C22.6741 20.6828 22.4669 20.6807 22.2534 20.6785C22.0279 20.6788 21.8024 20.6793 21.5768 20.68C21.3449 20.6792 21.1129 20.6783 20.881 20.6773C20.3953 20.6758 19.9097 20.6763 19.4241 20.6779C18.8021 20.6798 18.1804 20.6765 17.5584 20.6716C17.0796 20.6686 16.6008 20.6686 16.122 20.6696C15.8927 20.6696 15.6634 20.6686 15.4341 20.6665C15.1135 20.664 14.7928 20.6663 14.4722 20.6687C14.2899 20.6687 14.1076 20.6687 13.9197 20.6687C13.3335 20.772 13.1376 20.9449 12.7832 21.416Z" fill="white"/>
<path d="M74.375 40.0098C74.5188 40.1056 74.6626 40.2015 74.8108 40.3003C76.2302 41.645 77.1055 43.4639 77.2368 45.4105C77.2819 47.8185 76.7839 49.7581 75.1325 51.579C74.9921 51.7057 74.8517 51.8324 74.7071 51.9629C74.6259 52.0427 74.5448 52.1225 74.4613 52.2048C72.7498 53.8105 70.7703 54.0365 68.5333 54.0005C66.4457 53.9182 64.7972 52.9191 63.3765 51.4337C61.8312 49.5975 61.2362 47.5204 61.4258 45.1562C61.7905 42.8825 62.8662 41.085 64.6923 39.6641C67.7534 37.6075 71.4534 37.8482 74.375 40.0098Z" fill="white"/>
<path d="M19.6942 39.2582C21.6188 40.501 22.8769 42.1861 23.4601 44.3988C23.8791 46.6631 23.4498 48.7315 22.237 50.675C21.1529 52.2119 19.6163 53.3918 17.7786 53.8766C15.3168 54.2532 13.0027 54.0279 10.9395 52.5446C10.5207 52.2122 10.1526 51.8623 9.79491 51.4648C9.65795 51.3176 9.52098 51.1704 9.37987 51.0187C7.91561 49.2218 7.58539 47.0692 7.80272 44.8242C8.07024 43.4197 8.59664 42.2999 9.46288 41.1719C9.60669 40.9562 9.60669 40.9562 9.75341 40.7361C12.2894 38.0592 16.4921 37.4644 19.6942 39.2582Z" fill="white"/>
<path d="M45.6543 30.8789C46.1592 31.1967 46.5591 31.6236 46.9824 32.041C47.1932 32.2381 47.4042 32.435 47.6153 32.6318C47.8439 32.8496 48.0721 33.0677 48.3001 33.2861C48.4123 33.3905 48.5244 33.4948 48.6399 33.6023C49.1524 34.1037 49.4415 34.4374 49.6704 35.1279C49.5974 36.4268 48.4374 37.2771 47.5635 38.1421C47.4374 38.2694 47.3114 38.3968 47.1815 38.5279C47.0593 38.6497 46.9371 38.7715 46.8112 38.8969C46.7007 39.0071 46.5901 39.1173 46.4762 39.2308C45.9376 39.698 45.6277 39.8462 44.9072 39.8334C44.3261 39.6777 44.3261 39.6777 43.9215 39.3146C43.6119 38.7574 43.5574 38.4795 43.6621 37.8516C43.8757 37.5689 44.0964 37.2913 44.3261 37.0215C44.186 37.02 44.186 37.02 44.0429 37.0185C43.0679 37.0079 42.093 36.9939 41.1181 36.9779C40.7545 36.9724 40.3909 36.9677 40.0273 36.964C39.5039 36.9584 38.9806 36.9497 38.4572 36.9404C38.2953 36.9394 38.1334 36.9383 37.9666 36.9372C37.0872 36.9183 36.4527 36.8515 35.6933 36.3574C35.3352 35.9214 35.3615 35.6846 35.3717 35.1123C35.5669 34.3834 35.7076 34.2451 36.3574 33.8672C36.965 33.7664 37.5668 33.7668 38.1816 33.766C38.3573 33.7633 38.533 33.7605 38.7141 33.7577C39.2739 33.7497 39.8337 33.7461 40.3937 33.7427C40.7738 33.738 41.1539 33.733 41.534 33.7278C42.4647 33.7155 43.3954 33.7069 44.3261 33.7012C44.2472 33.6323 44.1682 33.5634 44.0869 33.4924C43.7394 33.104 43.6876 32.7174 43.6387 32.2077C43.6765 31.6695 43.9456 31.4037 44.3261 31.0449C44.8271 30.7944 45.0937 30.7959 45.6543 30.8789Z" fill="white"/>
<path d="M39.9371 17.8039C40.5874 17.9472 40.8131 18.034 41.1719 18.5938C41.3379 19.1541 41.3379 19.1541 41.3379 19.7559C41.1276 20.095 40.9072 20.4283 40.6738 20.752C40.7743 20.7526 40.8747 20.7532 40.9782 20.7538C42.0232 20.7607 43.068 20.7722 44.1129 20.7864C44.5029 20.7911 44.8929 20.7946 45.283 20.7969C45.8435 20.8005 46.4038 20.8082 46.9643 20.8168C47.1388 20.817 47.3133 20.8172 47.4931 20.8174C48.7002 20.8417 48.7002 20.8417 49.2462 21.2258C49.5446 21.6951 49.6273 22.0214 49.6387 22.5781C49.4106 23.056 49.1821 23.3667 48.8086 23.7402C48.4598 23.7865 48.4598 23.7865 48.0242 23.7932C47.7799 23.7981 47.7799 23.7981 47.5307 23.8032C47.2664 23.806 47.2664 23.806 46.9967 23.809C46.7266 23.8138 46.7266 23.8138 46.451 23.8187C45.8741 23.8287 45.2973 23.8364 44.7205 23.844C44.3301 23.8503 43.9397 23.8568 43.5493 23.8634C42.5908 23.8794 41.6323 23.8935 40.6738 23.9062C40.7834 24.0582 40.893 24.2101 41.0059 24.3667C41.3379 24.9023 41.3379 24.9023 41.3379 25.5042C41.1528 26.1287 41.0561 26.377 40.5078 26.7285C39.9341 26.8571 39.721 26.8956 39.1797 26.7285C38.5597 26.2959 38.0477 25.7729 37.5195 25.2344C37.3687 25.0893 37.2178 24.9442 37.0623 24.7947C35.665 23.4401 35.665 23.4401 35.3613 22.7441C35.4164 21.425 36.1405 20.8056 37.0274 19.9339C37.2804 19.6838 37.5265 19.428 37.7728 19.1712C39.1029 17.8218 39.1029 17.8218 39.9371 17.8039Z" fill="white"/>
</g>
<defs>
<clipPath id="clip0_1046_146">
<rect width="85" height="85" fill="white"/>
</clipPath>
</defs>
</svg>
