<svg width="92" height="114" viewBox="0 0 92 114" fill="none" xmlns="http://www.w3.org/2000/svg">
<path d="M45.6152 2.63307e-05C45.7677 0.000147212 45.9201 0.000268095 46.0772 0.00039264C48.5392 0.00935298 50.848 0.191976 53.1956 0.972508C53.3379 1.01896 53.4802 1.06542 53.6268 1.11328C60.2596 3.3532 65.0779 7.95317 68.3284 14.0454C69.6355 16.7405 70.3013 19.5664 70.6179 22.5338C70.761 22.553 70.9041 22.5722 71.0515 22.592C72.4197 22.8132 73.4206 23.1077 74.4151 24.0898C75.4347 25.654 75.4443 27.0361 75.4202 28.8688C75.4237 29.1322 75.4271 29.3955 75.4307 29.6668C75.4229 31.4071 75.2923 32.7637 74.0094 34.0569C73.8807 34.1374 73.752 34.2179 73.6193 34.3009C73.4254 34.4276 73.4254 34.4276 73.2276 34.557C72.5521 34.9204 71.9984 35.0078 71.2461 34.9955C70.9651 34.9909 70.6841 34.9863 70.3945 34.9816C70.4683 35.5684 70.542 36.1552 70.6179 36.7598C70.7653 36.7736 70.9128 36.7873 71.0646 36.8015C72.8687 37.2878 74.4721 38.6279 75.4228 40.2122C76.5822 42.4601 76.8782 44.937 76.1043 47.3877C75.1485 49.6429 73.3152 51.126 71.1484 52.1528C69.9176 52.5396 68.7668 52.5497 67.4908 52.5418C67.4325 52.6546 67.3742 52.7674 67.3141 52.8837C65.6821 56.0314 64.0047 59.0378 61.8151 61.8403C61.7262 61.9557 61.6372 62.0711 61.5455 62.1899C61.2367 62.5445 61.2367 62.5445 60.8271 62.8774C59.8487 63.742 59.5795 64.4886 59.4914 65.7532C59.4574 66.6847 59.4573 67.6142 59.4637 68.5461C59.4608 68.9342 59.4572 69.3224 59.4528 69.7105C59.4437 70.6562 59.4442 71.6015 59.4498 72.5472C59.651 72.5735 59.8523 72.5998 60.0597 72.6268C61.6268 72.8392 63.1584 73.0784 64.6848 73.4919C64.8645 73.5402 65.0442 73.5886 65.2293 73.6385C74.5407 76.2258 82.4621 82.6644 87.2018 90.9931C90.2342 96.4768 92.8454 103.88 91.7423 110.214C91.2858 111.627 90.2781 112.829 89.0035 113.577C87.642 114.134 86.1116 113.983 84.6644 113.976C84.3166 113.977 83.9689 113.978 83.6212 113.979C82.6672 113.982 81.7132 113.981 80.7592 113.979C79.7298 113.977 78.7004 113.98 77.6709 113.981C75.655 113.984 73.639 113.984 71.623 113.982C69.9848 113.98 68.3466 113.98 66.7084 113.981C66.3587 113.981 66.3587 113.981 66.002 113.981C65.5284 113.981 65.0549 113.982 64.5813 113.982C60.1406 113.984 55.6998 113.981 51.259 113.978C47.4477 113.975 43.6364 113.975 39.8251 113.978C35.3999 113.982 30.9747 113.983 26.5496 113.981C26.0778 113.981 25.6061 113.981 25.1344 113.981C24.7862 113.981 24.7862 113.981 24.431 113.98C22.7944 113.98 21.1578 113.981 19.5212 113.982C17.5273 113.984 15.5333 113.984 13.5394 113.98C12.5218 113.978 11.5043 113.978 10.4867 113.98C9.55549 113.982 8.62432 113.981 7.6931 113.977C7.35597 113.977 7.01885 113.977 6.68173 113.979C6.22376 113.981 5.76599 113.979 5.30804 113.975C5.05359 113.975 4.79914 113.975 4.53698 113.975C3.12036 113.807 1.94964 113.036 1.05781 111.948C-0.815612 109.005 0.229744 104.215 0.928676 100.999C3.22837 91.3499 8.91298 83.0093 17.372 77.6614C21.7351 75.0049 27.4327 72.5112 32.6462 72.5472C32.653 71.4991 32.6494 70.4517 32.6367 69.4037C32.6337 69.0478 32.6336 68.6918 32.6362 68.3359C32.7126 66.3172 32.7126 66.3172 32.1026 64.4509C31.7099 64.0672 31.304 63.755 30.8593 63.4336C30.5368 63.0824 30.5368 63.0824 30.2477 62.7182C30.1533 62.6 30.059 62.4819 29.9618 62.3602C29.8664 62.2376 29.771 62.1151 29.6727 61.9888C29.5686 61.8553 29.4646 61.7219 29.3574 61.5844C27.7034 59.4369 26.2489 57.2389 25.024 54.8202C24.9367 54.6479 24.8494 54.4757 24.7595 54.2982C24.1584 53.0736 24.1584 53.0736 24.1584 52.3196C23.9511 52.3654 23.7438 52.4112 23.5302 52.4585C21.5652 52.7271 19.7253 52.0994 18.1276 50.9859C17.5134 50.4441 17.5134 50.4441 17.0108 49.8745C16.7275 49.5788 16.7275 49.5788 16.4384 49.2771C14.9324 47.3894 14.7788 45.2949 14.9497 42.9717C15.1714 41.0854 16.267 39.389 17.6783 38.1474C18.6539 37.3904 19.5339 36.7598 20.808 36.7598C20.808 36.2464 20.808 35.7329 20.808 35.2039C20.6274 35.166 20.4469 35.1282 20.2609 35.0893C18.5978 34.7139 17.6022 34.4165 16.5431 33.0401C15.8259 31.7631 15.9886 30.2886 16.0057 28.8688C16.0005 28.4378 16.0005 28.4378 15.9952 27.998C16.0027 26.1809 16.1109 25.0664 17.3677 23.7025C18.2459 23.0267 18.8509 22.7242 19.9564 22.7422C20.2374 22.7468 20.5184 22.7514 20.808 22.7561C20.8273 22.5432 20.8466 22.3303 20.8664 22.111C21.5606 15.2618 24.8092 9.50791 30.1188 5.10621C34.5915 1.60875 39.9838 -0.00752455 45.6152 2.63307e-05ZM44.2367 3.73714C43.984 3.76722 43.984 3.76722 43.7262 3.79792C43.5526 3.81912 43.379 3.84032 43.2001 3.86217C42.9345 3.89397 42.9345 3.89397 42.6635 3.92642C42.2281 3.97863 41.7927 4.03148 41.3574 4.08445C41.1543 6.61153 41.1543 6.61153 42.1557 8.8609C43.1716 9.9328 44.06 10.4541 45.5315 10.6279C46.7408 10.5891 47.7545 10.1136 48.7283 9.41921C49.8231 8.16313 50.1003 6.99727 50.0825 5.36257C50.0805 5.12303 50.0785 4.88348 50.0764 4.63668C50.0738 4.45444 50.0712 4.27221 50.0685 4.08445C49.4171 4.00975 48.7656 3.93576 48.1141 3.86217C47.9298 3.84097 47.7455 3.81976 47.5557 3.79792C47.3772 3.77786 47.1987 3.7578 47.0147 3.73714C46.851 3.71851 46.6872 3.69989 46.5185 3.6807C45.7462 3.61371 45.0031 3.64468 44.2367 3.73714ZM33.0929 7.64096C33.2498 8.44047 33.5878 9.0852 33.9585 9.8082C35.6651 13.4669 35.6332 17.1482 34.2665 20.924C34.0285 21.5364 33.7847 22.1465 33.5397 22.7561C41.5003 22.7561 49.461 22.7561 57.6629 22.7561C57.304 21.6849 56.9232 20.6302 56.5242 19.5738C55.4482 16.3892 55.8989 12.5518 57.3505 9.57463C57.6635 8.9937 57.9872 8.4253 58.3329 7.86324C56.281 6.20267 56.281 6.20267 53.8657 5.41814C53.8126 5.76456 53.8126 5.76456 53.7584 6.11798C53.325 8.77046 52.7725 10.821 50.606 12.5997C48.661 13.9603 46.601 14.2826 44.2611 14.0871C42.2 13.6626 40.4314 12.8046 39.1647 11.0941C37.9911 9.22262 37.6949 7.59824 37.5602 5.41814C36.0801 5.41814 34.2786 6.78878 33.0929 7.64096ZM29.9659 10.5306C26.8735 13.899 24.8252 18.1571 24.6051 22.7561C27.034 23.0683 27.034 23.0683 29.2591 22.3315C29.7269 21.7545 30.0767 21.1944 30.4126 20.5333C30.5542 20.2823 30.5542 20.2823 30.6988 20.0262C31.8272 17.8125 32.0137 15.3424 31.3374 12.9688C30.8812 11.6074 30.8812 11.6074 29.9659 10.5306ZM61.0133 10.5306C60.8309 10.9192 60.6496 11.3083 60.4689 11.6976C60.3678 11.9142 60.2667 12.1308 60.1626 12.354C59.3439 14.2667 59.3627 16.7781 60.0361 18.7411C60.5184 19.8713 61.1408 20.9046 61.9068 21.867C62.0882 22.1133 62.0882 22.1133 62.2732 22.3645C63.0676 22.9548 63.792 22.853 64.7546 22.8117C64.9317 22.8077 65.1088 22.8036 65.2912 22.7995C65.7267 22.7891 66.1621 22.7731 66.5974 22.7561C66.4248 18.5486 64.6896 14.3799 61.9068 11.1975C61.4336 10.8092 61.4336 10.8092 61.0133 10.5306ZM19.9145 26.5349C19.9081 27.2712 19.9041 28.0075 19.9006 28.7438C19.8987 28.954 19.8968 29.1642 19.8949 29.3807C19.8942 29.5806 19.8935 29.7804 19.8927 29.9863C19.8915 30.1714 19.8904 30.3565 19.8892 30.5472C19.8662 30.9817 19.8662 30.9817 20.1379 31.2028C20.792 31.2256 21.4409 31.2337 22.0951 31.2325C22.4069 31.2333 22.4069 31.2333 22.7249 31.2341C23.427 31.2355 24.129 31.2353 24.8311 31.2351C25.3321 31.2358 25.8332 31.2365 26.3342 31.2374C27.6993 31.2393 29.0643 31.2398 30.4294 31.24C31.5668 31.2402 32.7043 31.241 33.8417 31.2418C36.3706 31.2435 38.8994 31.2442 41.4282 31.244C41.656 31.244 41.656 31.244 41.8885 31.244C42.1165 31.244 42.1165 31.244 42.3492 31.244C44.8145 31.2439 47.2797 31.246 49.745 31.2491C52.2736 31.2523 54.8021 31.2538 57.3307 31.2537C58.7514 31.2536 60.1721 31.2543 61.5928 31.2566C62.9284 31.2587 64.2639 31.2588 65.5995 31.2572C66.091 31.2569 66.5824 31.2575 67.0739 31.2588C67.7423 31.2605 68.4107 31.2595 69.079 31.2578C69.3741 31.2595 69.3741 31.2595 69.6751 31.2612C70.7001 31.3024 70.7 31.3024 71.5114 30.7582C71.5768 30.3316 71.5768 30.3316 71.5628 29.8474C71.5624 29.6693 71.562 29.4912 71.5615 29.3078C71.5588 29.1217 71.5561 28.9356 71.5532 28.7438C71.5531 28.5568 71.553 28.3699 71.5528 28.1773C71.6349 27.2851 71.6349 27.2851 71.288 26.5349C70.6272 26.5131 69.9717 26.506 69.3108 26.5082C69.1008 26.508 68.8909 26.5078 68.6745 26.5076C67.9652 26.5072 67.256 26.5084 66.5467 26.5097C66.0406 26.5097 65.5344 26.5097 65.0282 26.5096C63.6493 26.5095 62.2704 26.5108 60.8916 26.5124C59.4523 26.5137 58.013 26.5139 56.5738 26.5141C54.1565 26.5147 51.7393 26.5161 49.322 26.5181C46.8318 26.5202 44.3416 26.5217 41.8514 26.5227C41.698 26.5227 41.5446 26.5228 41.3865 26.5229C40.617 26.5231 39.8475 26.5234 39.078 26.5237C32.6902 26.526 26.3024 26.5299 19.9145 26.5349ZM24.8285 34.9816C23.0981 38.4257 25.2508 44.6542 26.3921 48.0962C26.4401 48.2425 26.4881 48.3888 26.5375 48.5396C27.8068 52.3335 29.7124 55.85 32.1995 58.988C32.3013 59.1183 32.4032 59.2486 32.5081 59.3829C35.7801 63.5239 39.8611 66.3785 45.1894 67.0509C47.3691 67.1704 49.7265 66.4447 51.6321 65.4342C51.8353 65.3322 52.0386 65.2302 52.2481 65.1251C54.1789 64.0916 55.6803 62.7429 57.2161 61.2108C57.3765 61.0538 57.5369 60.8968 57.7021 60.735C60.1708 58.1511 62.0147 54.8894 63.4703 51.6527C63.6482 51.2573 63.6482 51.2573 63.8298 50.8539C65.7546 46.312 68.0038 39.8471 66.374 34.9816C52.664 34.9816 38.954 34.9816 24.8285 34.9816ZM20.0402 41.2472C18.9643 42.4222 18.5395 43.393 18.5743 44.9843C18.7884 46.3403 19.5058 47.1261 20.5113 48.0189C21.1929 48.4115 21.818 48.467 22.5949 48.5408C22.5634 48.4157 22.5319 48.2906 22.4995 48.1617C21.885 45.7042 21.3165 43.281 21.0313 40.7609C20.5181 40.7114 20.5181 40.7114 20.0402 41.2472ZM70.3945 40.7609C70.3691 40.8933 70.3437 41.0257 70.3174 41.1622C69.9972 42.7955 69.6096 44.408 69.2062 46.0227C69.1336 46.3193 69.1336 46.3193 69.0596 46.6218C69.0157 46.7986 68.9717 46.9754 68.9264 47.1575C68.8029 47.7133 68.8029 47.7133 68.831 48.5408C69.9528 48.4344 70.633 48.1325 71.5114 47.4294C72.5087 46.1149 72.8178 45.048 72.6282 43.4283C72.2445 42.2455 71.679 41.4459 70.6179 40.7609C70.5442 40.7609 70.4705 40.7609 70.3945 40.7609ZM54.491 68.0108C50.6545 70.3359 46.2023 71.1415 41.8041 70.1021C39.8484 69.5745 38.0402 68.7557 36.22 67.8793C35.7768 70.8691 35.7768 70.8691 36.5021 73.6927C37.2512 74.5029 38.1658 75.0603 39.1169 75.6101C39.8077 76.0233 40.4219 76.5204 41.0502 77.0206C41.2832 77.1974 41.5161 77.3742 41.7561 77.5563C42.2644 77.9423 42.7677 78.3337 43.269 78.7285C43.4 78.8309 43.531 78.9333 43.6659 79.0388C43.9164 79.2348 44.1661 79.432 44.4148 79.6303C45.2539 80.3304 45.2539 80.3304 46.2714 80.5493C46.7693 80.2301 47.1907 79.9139 47.6395 79.5352C47.9179 79.3086 48.1965 79.0823 48.4753 78.8562C48.6981 78.6736 48.6981 78.6736 48.9253 78.4874C49.7596 77.8117 50.6132 77.1608 51.4645 76.5066C51.9484 76.1338 52.4313 75.7607 52.9087 75.3796C53.419 74.9923 53.419 74.9923 54.0331 74.6075C55.2402 73.8047 55.2402 73.8047 55.8293 72.5314C55.8723 71.747 55.8484 70.9967 55.7922 70.2132C55.7771 69.8118 55.7771 69.8118 55.7617 69.4022C55.7355 68.7452 55.6989 68.0906 55.6526 67.4347C55.2064 67.4347 54.8596 67.7829 54.491 68.0108ZM27.4391 77.3262C27.2859 77.371 27.1327 77.4157 26.9749 77.4618C26.0389 77.7492 25.2724 78.1056 24.3818 78.5488C24.3818 82.7299 24.3818 86.911 24.3818 91.2188C30.7945 91.2188 37.2073 91.2188 43.8144 91.2188C43.8144 88.7982 43.8144 86.3775 43.8144 83.8835C42.7608 82.9661 41.7521 82.0942 40.6454 81.2578C40.3941 81.0671 40.1428 80.8764 39.8915 80.6856C39.7649 80.5898 39.6382 80.494 39.5076 80.3953C38.8804 79.9205 38.255 79.4433 37.63 78.9656C37.4508 78.8288 37.4508 78.8288 37.268 78.6893C36.2974 77.9465 35.3432 77.1849 34.3947 76.4145C33.0509 75.3915 28.9882 76.8709 27.4391 77.3262ZM55.5564 78.0386C54.9964 78.4986 54.416 78.9314 53.8378 79.3684C52.9718 80.0309 52.1096 80.6982 51.2482 81.3664C51.0668 81.507 50.8854 81.6476 50.6986 81.7925C50.3397 82.071 49.981 82.3497 49.6226 82.6286C49.4582 82.7562 49.2938 82.8838 49.1245 83.0153C48.978 83.1292 48.8316 83.243 48.6807 83.3604C48.3338 83.6219 47.9736 83.8656 47.6115 84.1058C47.6115 86.4531 47.6115 88.8004 47.6115 91.2188C54.1717 91.2188 60.7319 91.2188 67.4908 91.2188C67.4908 87.0377 67.4908 82.8566 67.4908 78.5488C65.2394 77.6002 65.2394 77.6002 62.9398 76.9372C62.7927 76.9017 62.6455 76.8662 62.494 76.8296C61.6328 76.6251 60.7712 76.4604 59.8965 76.326C59.7393 76.2956 59.5821 76.2652 59.4201 76.2339C57.7542 76.0584 56.7776 77.0243 55.5564 78.0386ZM18.5883 81.5218C18.4385 81.6213 18.2886 81.7208 18.1343 81.8232C16.5219 82.9176 15.1339 84.1942 13.7555 85.568C13.4395 85.882 13.1199 86.1926 12.7922 86.4945C7.55484 91.3899 4.2903 99.4506 4.00777 106.501C3.99901 106.866 3.99173 107.232 3.98596 107.598C3.98196 107.771 3.97797 107.945 3.97385 108.123C3.96802 109.055 3.96802 109.055 4.35328 109.881C5.17838 110.394 5.91957 110.362 6.86628 110.36C7.08864 110.36 7.08864 110.36 7.3155 110.36C7.80497 110.36 8.29443 110.358 8.7839 110.357C9.12347 110.356 9.46305 110.356 9.80263 110.356C10.696 110.355 11.5894 110.353 12.4828 110.35C13.555 110.348 14.6271 110.347 15.6992 110.345C17.3277 110.343 18.9561 110.339 20.5846 110.335C20.5846 107.474 20.5846 104.614 20.5846 101.666C19.1841 101.593 17.7836 101.519 16.3407 101.444C15.2239 100.777 15.2239 100.777 15.0005 100.11C14.9391 99.0378 14.9306 97.9657 14.9223 96.8919C14.9186 96.5375 14.9125 96.183 14.904 95.8287C14.8918 95.316 14.8869 94.8037 14.8836 94.2908C14.8786 94.1333 14.8735 93.9759 14.8683 93.8136C14.8739 92.5046 15.0746 92.4788 16.1174 91.4411C18.3286 91.3311 18.3286 91.3311 20.5846 91.2188C20.5846 87.6979 20.5846 84.1769 20.5846 80.5493C19.8106 80.5493 19.2151 81.105 18.5883 81.5218ZM71.288 80.5493C71.288 84.0703 71.288 87.5912 71.288 91.2188C75.0472 91.2188 78.8064 91.2188 82.6795 91.2188C81.5129 89.3945 80.4586 87.9553 78.9852 86.4434C78.665 86.1125 78.3516 85.7763 78.0386 85.4386C76.249 83.5446 73.8695 81.1916 71.288 80.5493ZM18.5743 94.9976C18.5743 95.9512 18.5743 96.9048 18.5743 97.8873C40.8347 97.8873 63.095 97.8873 86.03 97.8873C85.6614 96.9337 85.2929 95.9801 84.9131 94.9976C63.0213 94.9976 41.1295 94.9976 18.5743 94.9976ZM24.3818 101.666C24.3818 104.527 24.3818 107.388 24.3818 110.335C30.7945 110.335 37.2073 110.335 43.8144 110.335C43.8144 107.474 43.8144 104.614 43.8144 101.666C37.4016 101.666 30.9889 101.666 24.3818 101.666ZM47.6115 101.666C47.6115 104.527 47.6115 107.388 47.6115 110.335C51.813 110.335 56.0144 110.335 60.3432 110.335C60.3432 107.474 60.3432 104.614 60.3432 101.666C56.1418 101.666 51.9403 101.666 47.6115 101.666ZM64.1404 101.666C64.1404 104.527 64.1404 107.388 64.1404 110.335C65.246 110.335 66.3517 110.335 67.4908 110.335C67.4908 107.474 67.4908 104.614 67.4908 101.666C66.3852 101.666 65.2795 101.666 64.1404 101.666ZM71.288 101.666C71.288 104.527 71.288 107.388 71.288 110.335C73.9548 110.354 73.9548 110.354 76.6217 110.368C77.7099 110.372 78.7981 110.376 79.8863 110.385C80.7639 110.393 81.6415 110.397 82.5192 110.398C82.8535 110.4 83.1878 110.402 83.5221 110.406C83.9915 110.41 84.4608 110.411 84.9303 110.411C85.3305 110.413 85.3305 110.413 85.7389 110.415C86.5733 110.325 87.1096 110.114 87.8169 109.668C88.1021 108.817 88.0336 108.05 87.9844 107.168C87.9783 107.008 87.9723 106.848 87.9661 106.683C87.8727 104.938 87.5021 103.434 87.1468 101.666C81.9134 101.666 76.68 101.666 71.288 101.666Z" fill="black"/>
</svg>
