<svg width="111" height="111" viewBox="0 0 111 111" fill="none" xmlns="http://www.w3.org/2000/svg">
<path d="M28.1836 46.7442C28.1836 46.1919 28.6313 45.7441 29.1836 45.7441C51.778 45.7441 74.382 45.7441 97.6421 45.7441C98.1944 45.7441 98.6426 46.1918 98.6426 46.7441C98.6426 47.7352 98.6426 48.7299 98.6426 49.7391C98.6426 50.288 98.2001 50.7343 97.6513 50.7391C97.6138 50.7394 97.5761 50.7397 97.5384 50.74C96.3347 50.7512 95.1311 50.7654 93.9275 50.7816C93.1977 50.7913 92.4679 50.7998 91.7381 50.8056C90.899 50.8128 90.0602 50.8242 89.2212 50.8363C88.8279 50.8384 88.8279 50.8384 88.4267 50.8405C88.1837 50.8448 87.9406 50.8491 87.6903 50.8535C87.476 50.8559 87.2618 50.8583 87.0411 50.8608C86.5745 50.9022 86.5162 50.9073 86.2681 51.0918C86.1883 51.1512 86.1175 51.2228 86.0651 51.3073C85.7049 51.888 85.7677 52.404 85.7651 53.1244C85.7637 53.2808 85.7622 53.4372 85.7607 53.5983C85.7567 54.1236 85.7573 54.6488 85.7578 55.1741C85.7559 55.5501 85.7536 55.9261 85.7511 56.3022C85.7451 57.3243 85.7431 58.3463 85.7418 59.3685C85.7398 60.4361 85.7341 61.5038 85.7288 62.5715C85.7194 64.5939 85.7132 66.6162 85.7082 68.6386C85.7023 70.9408 85.6928 73.2429 85.683 75.5451C85.6642 79.9489 85.6496 84.3527 85.6375 88.7566C85.636 89.3078 85.1887 89.7539 84.6374 89.7539C83.0737 89.7539 81.505 89.7539 79.9078 89.7539C79.358 89.7539 78.9112 89.3099 78.9078 88.7601C78.9047 88.2757 78.9028 87.9732 78.8971 87.0812C78.8903 86.3773 78.8825 85.6735 78.8742 84.9696C78.8657 84.2269 78.8587 83.4843 78.8553 82.7416C78.8514 81.8891 78.8406 81.0368 78.8294 80.1844C78.829 79.7856 78.829 79.7856 78.8286 79.3788C78.8243 79.1315 78.82 78.8841 78.8156 78.6293C78.814 78.4418 78.8123 78.2543 78.8106 78.0626C78.8101 78.0009 78.8043 77.939 78.7904 77.8789C78.6632 77.3301 78.4177 77.0939 78.0489 76.7411C77.9055 76.604 77.8071 76.4256 77.7712 76.2305C77.7204 75.9548 77.7201 75.8468 77.7186 75.3699C77.7157 75.1384 77.7129 74.9069 77.7099 74.6684C77.7115 74.295 77.7115 74.295 77.7132 73.9142C77.7107 73.6576 77.7081 73.4011 77.7055 73.1367C77.6978 72.3164 77.6958 71.4962 77.6946 70.6758C77.691 69.8554 77.6863 69.0352 77.6791 68.2149C77.6748 67.7043 77.6728 67.1937 77.6732 66.6832C77.6717 66.4517 77.6702 66.2202 77.6686 65.9816C77.6684 65.7782 77.6681 65.5748 77.6678 65.3652C77.6198 64.8872 77.5292 64.5643 77.3214 64.1907C77.234 64.0335 77.0964 63.9076 76.927 63.847C76.3825 63.6524 75.8666 63.7071 75.2454 63.704C75.0111 63.7024 75.0111 63.7024 74.7721 63.7007C74.2462 63.6974 73.7202 63.6956 73.1942 63.6938C72.8183 63.6917 72.4423 63.6895 72.0663 63.6873C71.0433 63.6814 70.0203 63.6768 68.9973 63.6725C67.929 63.6678 66.8608 63.6618 65.7925 63.656C63.7686 63.6452 61.7447 63.6355 59.7207 63.6261C57.417 63.6154 55.1133 63.6035 52.8096 63.5915C48.2984 63.568 43.7873 63.5459 39.2761 63.5247C38.8951 63.5229 38.5856 63.2163 38.5803 62.8353C38.5677 61.9952 38.551 61.1553 38.5329 60.3153C38.5257 59.9517 38.5197 59.5882 38.5147 59.2246C38.5075 58.7019 38.4961 58.1795 38.484 57.657C38.4826 57.4943 38.4812 57.3317 38.4798 57.1642C38.4607 56.3835 38.4585 56.2916 38.1905 55.7497C38.1116 55.59 37.9922 55.4496 37.832 55.3716C37.496 55.2083 37.2122 55.1958 36.7732 55.1895C36.5822 55.1852 36.3913 55.1809 36.1946 55.1765C35.9893 55.1751 35.784 55.1737 35.5725 55.1723C35.3617 55.1684 35.1509 55.1645 34.9337 55.1605C34.2599 55.1487 33.5863 55.1414 32.9125 55.1342C32.4559 55.127 31.9993 55.1195 31.5427 55.1117C30.7523 55.0983 29.962 55.0879 29.1717 55.0782C28.6241 55.0716 28.1836 54.6259 28.1836 54.0782C28.1836 51.6549 28.1836 49.2254 28.1836 46.7442Z" fill="white"/>
<path d="M64.7868 11.3255C65.1204 11.4938 65.1204 11.4938 65.4608 11.6656C65.7099 11.7906 65.959 11.9156 66.2157 12.0445C66.4829 12.1804 66.7501 12.3163 67.0173 12.4523C67.2944 12.5921 67.5715 12.7319 67.8486 12.8715C69.4911 13.7012 71.1234 14.5487 72.7473 15.4141C74.355 16.2665 75.9841 17.0754 77.6133 17.8858C79.5521 18.8502 81.4824 19.8263 83.3931 20.8456C84.9932 21.6943 86.6148 22.4991 88.2363 23.3057C90.0074 24.1867 91.7755 25.0705 93.5208 26.0021C95.3552 26.9811 97.2147 27.9077 99.0762 28.834C101.04 29.8118 103.002 30.7916 104.943 31.815C105.179 31.939 105.179 31.939 105.419 32.0656C106.35 32.5606 107.268 33.2929 108.182 33.8203C108.182 33.7466 108.182 33.8919 108.182 33.8203C79.268 33.8203 50.3543 33.8203 20.6057 33.8203C19.9082 33.8203 19.6382 32.9661 20.257 32.644C20.4479 32.5444 20.6388 32.4447 20.8356 32.342C21.1461 32.1817 21.1461 32.1817 21.4629 32.0182C21.6805 31.9052 21.8982 31.7922 22.1224 31.6758C23.994 30.7079 25.8783 29.7659 27.7648 28.8277C29.3053 28.0614 30.8389 27.2861 32.3569 26.4763C34.2006 25.4931 36.0689 24.5616 37.9395 23.6309C39.958 22.6265 41.969 21.6135 43.9581 20.5517C45.6925 19.631 47.4528 18.7624 49.2108 17.8879C50.838 17.0782 52.46 16.2616 54.0637 15.4062C55.8126 14.4792 57.5688 13.5663 59.3329 12.6684C59.6482 12.5073 59.9631 12.345 60.2773 12.1817C60.7199 11.952 61.1643 11.7262 61.6093 11.5013C61.7423 11.4312 61.8754 11.3611 62.0125 11.2888C63.1298 10.7327 63.6785 10.841 64.7868 11.3255ZM58.1016 17.7774C57.0086 19.4805 56.8501 21.1774 56.9935 23.1166C57.0081 23.3144 57.0437 23.5107 57.1078 23.6984C57.6332 25.2392 58.6765 26.5206 60.0714 27.3774C61.4546 28.0973 62.7423 28.3269 64.2636 28.2142C64.491 28.1974 64.7149 28.1475 64.9284 28.0675C65.3205 27.9206 65.6963 27.7578 66.0744 27.5745C66.224 27.502 66.3774 27.4355 66.5379 27.392C66.7206 27.3425 66.8071 27.3429 66.9671 27.3968C67.1207 27.4485 67.2659 27.5234 67.4009 27.6131C67.7445 27.8414 68.0105 28.0825 68.3113 28.4013C68.4318 28.526 68.5522 28.6508 68.6763 28.7794C68.9257 29.0421 69.1747 29.3052 69.4233 29.5687C69.5437 29.6932 69.6642 29.8177 69.7883 29.9459C69.8963 30.0601 70.0043 30.1743 70.1156 30.2919C70.3333 30.4672 70.5142 30.5807 70.7146 30.6564C71.0935 30.7998 71.5479 30.6555 71.8685 30.4078C72.2539 30.1098 72.4386 29.6332 72.3243 29.1596C72.2057 28.6679 71.9544 28.3083 71.5006 27.8643C71.0748 27.4676 70.6419 27.08 70.2075 26.6927C70.0702 26.5646 69.9367 26.4385 69.8073 26.3102C69.3566 25.8636 69.0681 25.2156 69.3173 24.6321C69.3347 24.5914 69.3539 24.547 69.375 24.4981C70.0652 22.5583 70.1448 20.6637 69.2666 18.7665C68.3134 17.0843 67.0816 16.0127 65.2559 15.3926C62.5432 14.6466 59.8902 15.6818 58.1016 17.7774Z" fill="white"/>
<path d="M24.1054 58.0278C24.3658 58.0278 24.6261 58.0279 24.8943 58.0279C25.1721 58.0313 25.45 58.0346 25.7362 58.0381C26.026 58.0393 26.3157 58.0402 26.6055 58.0409C27.3647 58.0434 28.1238 58.0497 28.8829 58.057C29.659 58.0636 30.4351 58.0666 31.2112 58.0699C32.4716 58.0756 33.7321 58.0842 34.9926 58.0948C35.4245 58.0985 35.7732 58.4486 35.7754 58.8806C35.7877 61.2988 35.8035 63.717 35.8226 66.1352C35.8323 67.3785 35.8408 68.6218 35.8466 69.8652C35.8522 71.0643 35.861 72.2633 35.8719 73.4623C35.8756 73.9206 35.878 74.3789 35.8794 74.8372C35.8815 75.4774 35.8875 76.1174 35.8946 76.7575C35.8943 76.9485 35.8939 77.1395 35.8936 77.3363C35.8947 77.772 35.8949 77.88 35.9347 78.2393C35.9668 78.5301 36.1239 78.8007 36.3877 78.9271C36.9717 79.2071 37.4733 79.1933 38.2066 79.1913C38.3674 79.1925 38.5282 79.1938 38.6939 79.1951C39.2341 79.1988 39.7744 79.1994 40.3147 79.2C40.7014 79.2021 41.0881 79.2043 41.4747 79.2066C42.526 79.2126 43.5772 79.2158 44.6284 79.2187C45.7265 79.222 46.8245 79.2278 47.9226 79.2334C50.0025 79.2436 52.0825 79.2515 54.1625 79.2587C56.5302 79.267 58.8979 79.2777 61.2655 79.2886C65.8045 79.3095 70.3435 79.3274 74.8826 79.3441C75.4334 79.3461 75.8789 79.7932 75.8789 80.3441C75.8789 84.2671 75.8789 88.1976 75.8789 92.2226C75.8789 92.7749 75.4312 93.2227 74.8789 93.2227C74.387 93.2227 73.8929 93.2227 73.3937 93.2227C72.9414 93.2227 72.5454 92.9192 72.428 92.4824C72.3937 92.355 72.3534 92.2049 72.2882 91.9626C71.3937 89.105 69.9353 87.3915 67.296 85.9863C65.2653 85.1099 62.809 85.0719 60.7167 85.7703C58.3322 86.7928 56.5657 88.2336 55.5407 90.6482C55.297 91.2754 55.0767 91.9046 54.8619 92.5393C54.724 92.9471 54.3425 93.2227 53.9121 93.2227C44.1689 93.2227 34.419 93.2227 24.3948 93.2227C23.9439 93.2227 23.5486 92.9209 23.4299 92.4858C23.2818 91.9426 23.1327 91.3959 22.9805 90.8379C21.9655 88.3569 20.3993 87.0361 18.0314 85.9194C16.1308 85.1329 13.7083 85.1001 11.7477 85.7432C9.4025 86.7498 7.66865 88.2349 6.675 90.594C6.44088 91.2184 6.23579 91.8361 6.05532 92.4685C5.9294 92.9097 5.53164 93.2227 5.07277 93.2227C4.65424 93.2227 4.23433 93.2227 3.81085 93.2227C3.26153 93.2227 2.815 92.7796 2.81112 92.2303C2.79977 90.6219 2.79056 89.0136 2.78469 87.4052C2.78129 86.5048 2.77668 85.6044 2.76932 84.704C2.76226 83.8352 2.75837 82.9666 2.75668 82.0978C2.75548 81.7662 2.75313 81.4345 2.74962 81.1028C2.74491 80.6388 2.74425 80.1748 2.74455 79.7107C2.74311 79.4464 2.74166 79.1821 2.74017 78.9098C2.80769 78.3521 2.81692 78.2758 2.98359 78.0335C3.04337 77.9466 3.11796 77.8697 3.20663 77.8126C3.67518 77.5106 4.02586 77.5317 4.6358 77.5313C4.87806 77.5295 5.12031 77.5277 5.36991 77.5259C5.63583 77.5272 5.90174 77.5285 6.17572 77.5299C6.60542 77.5281 7.03512 77.5263 7.46482 77.5245C7.92688 77.5232 8.38891 77.5235 8.85097 77.5243C9.81388 77.5258 10.7767 77.5223 11.7396 77.5181C13.7838 77.5099 15.828 77.5072 17.8722 77.5049C20.0783 77.5025 22.2843 77.4992 24.4903 77.4896C25.4476 77.4856 26.4048 77.4848 27.362 77.4863C27.8141 77.4866 28.2662 77.4854 28.7183 77.4835C29.2696 77.4812 29.8209 77.4812 30.3722 77.484C30.6151 77.4822 30.858 77.4804 31.1082 77.4786C31.2956 77.4785 31.483 77.4783 31.6748 77.4782C31.7232 77.4782 31.7718 77.4748 31.8196 77.467C32.3425 77.3817 32.6294 77.2353 32.9911 76.9131C33.111 76.8062 33.1985 76.667 33.2415 76.5122C33.4145 75.8891 33.416 75.3707 33.4182 74.6824C33.419 74.5399 33.4197 74.3974 33.4204 74.2506C33.4225 73.7797 33.4229 73.3088 33.4232 72.8379C33.4239 72.5104 33.4246 72.1828 33.4253 71.8553C33.4266 71.1688 33.427 70.4823 33.4269 69.7958C33.4269 68.9163 33.4299 68.0369 33.4336 67.1575C33.436 66.4811 33.4364 65.8047 33.4363 65.1282C33.4366 64.804 33.4375 64.4798 33.4392 64.1556C33.4413 63.702 33.4407 63.2485 33.4394 62.795C33.4397 62.537 33.44 62.279 33.4403 62.0131C33.3961 61.4684 33.3312 61.1255 33.0926 60.7093C33.0069 60.5598 32.8738 60.4414 32.7126 60.3805C32.2921 60.2219 31.9451 60.2337 31.4355 60.2251C31.2098 60.2207 30.9841 60.2164 30.7516 60.212C30.5073 60.2083 30.2629 60.2047 30.0112 60.201C29.7615 60.1965 29.5119 60.192 29.2547 60.1873C28.4551 60.1731 27.6554 60.1604 26.8557 60.1476C26.3146 60.1383 25.7734 60.1288 25.2323 60.1193C24.2239 60.1016 23.2154 60.0847 22.207 60.0683C21.6808 60.0597 21.2181 59.7021 21.3452 59.1914C21.4016 58.9648 21.571 58.68 21.7754 58.5671C22.5311 58.1497 23.1779 58.0219 24.1054 58.0278ZM17.0982 80.244C16.972 80.3639 16.8865 80.5203 16.8469 80.6897C16.7617 81.0533 16.7693 81.1598 16.8696 81.569C16.8961 81.6773 16.9412 81.7806 17.0026 81.8735C17.2063 82.1816 17.2733 82.2523 17.588 82.4702C17.712 82.556 17.8548 82.6118 18.0043 82.6313C18.4926 82.6947 18.9308 82.7206 19.4364 82.7148C19.6761 82.7161 19.6761 82.7161 19.9207 82.7173C20.2579 82.7179 20.5952 82.7163 20.9325 82.7127C21.447 82.7081 21.9609 82.7127 22.4753 82.7182C22.8038 82.7177 23.1322 82.7165 23.4607 82.7148C23.6136 82.7166 23.7665 82.7183 23.9241 82.7202C24.6667 82.7061 25.0972 82.6185 25.717 82.243C25.764 82.2144 25.8085 82.1809 25.8497 82.1444C26.2585 81.7816 26.2881 81.7335 26.3536 81.201C26.3633 81.122 26.3633 81.0421 26.3536 80.9632C26.2882 80.4288 26.2584 80.3817 25.8439 80.0172C25.8043 79.9824 25.7617 79.9503 25.7165 79.923C24.9759 79.4763 24.3743 79.4391 23.5157 79.4493C23.2837 79.4481 23.2837 79.4481 23.0469 79.4468C22.7212 79.4462 22.3954 79.4478 22.0696 79.4515C21.5727 79.4561 21.0765 79.4515 20.5796 79.4459C20.2621 79.4465 19.9445 79.4476 19.6269 79.4493C19.4794 79.4476 19.3319 79.4458 19.18 79.444C18.2491 79.4622 17.719 79.6536 17.0982 80.244Z" fill="white"/>
<path d="M21.0293 37.8556C21.0293 37.3033 21.477 36.8555 22.0293 36.8555C49.274 36.8555 76.5284 36.8555 104.58 36.8555C105.132 36.8555 105.58 37.3032 105.58 37.8555C105.58 54.655 105.58 71.4639 105.58 88.7535C105.58 89.3058 105.132 89.7539 104.58 89.7539C103.949 89.7539 103.315 89.7539 102.675 89.7539C102.124 89.7539 101.676 89.3081 101.675 88.757C101.674 88.5146 101.673 88.2704 101.672 88.0231C101.656 82.6507 101.637 77.2783 101.615 71.906C101.605 69.1437 101.594 66.3815 101.586 63.6192C101.579 61.2121 101.571 58.8051 101.56 56.398C101.555 55.1231 101.55 53.8481 101.547 52.5731C101.544 51.3737 101.539 50.1744 101.533 48.9751C101.531 48.5343 101.53 48.0934 101.529 47.6526C101.529 47.0519 101.525 46.4513 101.521 45.8507C101.522 45.5875 101.522 45.5875 101.523 45.319C101.525 44.3216 101.525 44.18 101.211 43.5195C101.096 43.2777 100.886 43.0892 100.625 43.0266C100.133 42.9082 99.7124 42.898 99.1414 42.8973C98.8824 42.8965 98.6233 42.8956 98.3565 42.8948C97.9274 42.895 97.9274 42.895 97.4898 42.8953C97.184 42.8948 96.8782 42.8941 96.5724 42.8934C95.7302 42.8916 94.888 42.8912 94.0458 42.8911C93.1382 42.8907 92.2307 42.889 91.3231 42.8876C89.338 42.8846 87.3528 42.8833 85.3676 42.8824C84.1288 42.8818 82.8899 42.8809 81.6511 42.8799C78.223 42.8772 74.7949 42.875 71.3667 42.8743C71.1473 42.8742 70.9278 42.8742 70.7017 42.8741C70.3717 42.8741 70.3717 42.8741 70.035 42.874C69.5892 42.8739 69.1434 42.8738 68.6976 42.8737C68.4764 42.8737 68.2553 42.8736 68.0274 42.8736C64.4419 42.8727 60.8565 42.8689 57.271 42.8639C53.5923 42.8587 49.9136 42.856 46.2349 42.8558C44.1684 42.8556 42.102 42.8543 40.0355 42.8504C38.2763 42.8471 36.5172 42.8459 34.758 42.8477C33.86 42.8486 32.962 42.8484 32.064 42.8453C31.2425 42.8426 30.4211 42.8428 29.5996 42.8455C29.1604 42.8461 28.7211 42.8435 28.2819 42.8408C27.8925 42.843 27.8925 42.843 27.4953 42.8451C27.2707 42.845 27.0462 42.8449 26.8148 42.8448C26.2459 42.9239 25.9448 43.0581 25.5721 43.384C25.4332 43.5055 25.3391 43.6705 25.2973 43.8503C25.2324 44.1298 25.2349 44.2301 25.2469 44.7048C25.2405 45.0498 25.2405 45.0498 25.2339 45.4017C25.2337 45.6497 25.2334 45.8977 25.2331 46.1532C25.2295 46.4073 25.226 46.6614 25.2223 46.9232C25.2117 47.7361 25.2071 48.549 25.2026 49.3619C25.1965 49.9125 25.19 50.4631 25.1832 51.0137C25.1694 52.1741 25.1592 53.3344 25.1518 54.4947C25.1498 54.816 24.8984 55.0805 24.5777 55.0986C24.2029 55.1229 24.2029 55.1229 23.8206 55.1477C23.4508 55.1703 23.4508 55.1703 23.0736 55.1934C22.7715 55.221 22.5766 55.2388 22.3976 55.2701C21.7103 55.3904 21.0293 54.9732 21.0293 54.2754C21.0293 48.8547 21.0293 43.4229 21.0293 37.8556Z" fill="white"/>
<path d="M18.289 63.0618C18.5158 63.0622 18.7425 63.0627 18.9761 63.0632C19.2322 63.0632 19.4883 63.0633 19.7521 63.0633C20.0308 63.0644 20.3094 63.0655 20.5965 63.0667C20.8802 63.067 21.1638 63.0673 21.456 63.0676C22.2112 63.0684 22.9664 63.0706 23.7217 63.073C24.4918 63.0752 25.262 63.0762 26.0321 63.0773C27.2118 63.079 28.3914 63.0819 29.5711 63.0851C30.1223 63.0866 30.5684 63.5339 30.5684 64.0851C30.5684 67.2209 30.5684 70.3635 30.5684 73.578C30.5684 74.1303 30.1206 74.5781 29.5684 74.5781C24.6319 74.5781 19.6878 74.5781 14.6219 74.5781C14.004 74.5781 13.5217 74.0204 13.6625 73.4187C13.7544 73.0262 13.8684 72.6484 14.0376 72.2176C14.115 72.0187 14.1924 71.8199 14.2722 71.615C14.3975 71.2989 14.3975 71.2989 14.5254 70.9764C14.6112 70.7574 14.697 70.5384 14.7854 70.3127C14.9663 69.8517 15.1478 69.3909 15.3299 68.9303C15.6097 68.2225 15.8874 67.5139 16.1649 66.8051C16.3409 66.3572 16.5171 65.9094 16.6934 65.4616C16.7769 65.2487 16.8605 65.0357 16.9466 64.8163C17.024 64.6209 17.1014 64.4254 17.1812 64.2241C17.2493 64.0513 17.3175 63.8785 17.3878 63.7006C17.6524 63.0942 17.6524 63.0942 18.289 63.0618Z" fill="white"/>
<path d="M67.4916 89.2526C68.8818 90.3873 69.6715 91.8932 69.856 93.6826C69.9296 95.4506 69.4941 96.8056 68.3588 98.1684C67.0264 99.5744 65.5481 100.17 63.6299 100.255C61.9194 100.236 60.4229 99.6442 59.1898 98.4402C58.8555 98.0169 58.5821 97.5951 58.3184 97.125C58.2045 96.9315 58.0906 96.7379 57.9742 96.54C57.9328 96.4696 57.8999 96.3944 57.8778 96.3158C57.4043 94.6294 57.4235 92.8591 58.2481 91.2851C59.2912 89.6604 60.4155 88.659 62.2546 88.1001C62.3128 88.0824 62.3733 88.0705 62.4339 88.0648C64.2868 87.8891 65.9359 88.1754 67.4916 89.2526Z" fill="white"/>
<path d="M18.1751 89.0077C18.2258 89.035 18.2745 89.0675 18.3192 89.1037C19.7588 90.271 20.6704 91.5208 20.8811 93.4013C20.9527 95.2052 20.6291 96.7158 19.4735 98.1142C19.4363 98.1593 19.3943 98.2006 19.3493 98.2379C19.1884 98.3713 19.027 98.5052 18.8613 98.6426C18.6132 98.8706 18.6132 98.8706 18.36 99.1032C16.8117 100.183 15.2904 100.37 13.4414 100.16C11.8784 99.7866 10.7282 99.0554 9.75587 97.7754C8.86065 96.3152 8.48693 94.9342 8.67189 93.2226C9.10546 91.4561 9.78627 89.9697 11.3675 88.9951C13.7354 87.7566 15.8339 87.747 18.1751 89.0077Z" fill="white"/>
<path d="M38.5898 67.5567C38.5898 67.0044 39.0376 66.5566 39.5898 66.5566C40.1611 66.5566 40.7347 66.5566 41.3142 66.5566C41.8511 66.5566 42.2922 66.9806 42.3134 67.5171C42.329 67.9097 42.3445 68.3023 42.3601 68.695C42.4269 69.3563 42.43 69.3865 42.8388 69.7402C42.8795 69.7755 42.9237 69.8077 42.9696 69.8357C43.3603 70.0741 43.389 70.0696 43.9285 69.9847C44.3723 69.8671 44.4563 69.8448 44.6859 69.593C44.8135 69.4531 44.8922 69.2754 44.9193 69.088C44.9787 68.6774 44.9835 68.5724 45.0125 67.9387C45.0236 67.7489 45.0317 67.6118 45.0384 67.4978C45.0695 66.9693 45.5072 66.5566 46.0366 66.5566C46.6141 66.5566 47.1937 66.5566 47.7793 66.5566C48.3316 66.5566 48.7793 67.0044 48.7793 67.5566C48.7793 70.1907 48.7793 72.8312 48.7793 75.5293C48.7793 76.0815 48.3316 76.5293 47.7793 76.5293C45.0737 76.5293 42.3616 76.5293 39.5899 76.5293C39.0376 76.5293 38.5898 76.0816 38.5898 75.5293C38.5898 72.8953 38.5898 70.2547 38.5898 67.5567Z" fill="white"/>
<path d="M88.6699 54.7657C88.6699 54.2134 89.1176 53.7656 89.6699 53.7656C90.1708 53.7656 90.6736 53.7656 91.1812 53.7656C91.7166 53.7656 92.157 54.1873 92.1803 54.7222C92.1935 55.0266 92.2067 55.331 92.22 55.6354C92.2222 55.6873 92.2284 55.7391 92.2394 55.79C92.3728 56.4058 92.5529 56.6921 92.9837 57.0477C93.1361 57.1734 93.3282 57.2422 93.5256 57.2493C93.8356 57.2605 93.9583 57.2405 94.2404 57.1316C94.4258 57.0601 94.5869 56.9316 94.6805 56.7563C94.9918 56.1733 95.0427 55.6009 95.0925 54.9038C95.0975 54.834 95.1025 54.7642 95.1075 54.6944C95.1449 54.1711 95.5803 53.7656 96.1049 53.7656C96.6146 53.7656 97.1261 53.7656 97.6426 53.7656C98.1949 53.7656 98.6426 54.2133 98.6426 54.7656C98.6426 57.3997 98.6426 60.0402 98.6426 62.7382C98.6426 63.2905 98.1949 63.7383 97.6426 63.7383C95.0085 63.7383 92.368 63.7383 89.67 63.7383C89.1177 63.7383 88.6699 63.2906 88.6699 62.7383C88.6699 60.1042 88.6699 57.4637 88.6699 54.7657Z" fill="white"/>
<path d="M51.8145 67.5567C51.8145 67.0044 52.2622 66.5566 52.8144 66.5566C53.3141 66.5566 53.8157 66.5566 54.322 66.5566C54.8589 66.5566 55.3 66.9806 55.3212 67.5171C55.3368 67.9097 55.3523 68.3023 55.3679 68.695C55.4345 69.3505 55.438 69.3846 55.8328 69.7309C55.8782 69.7707 55.9276 69.8065 55.9796 69.8372C56.3655 70.0655 56.4154 70.073 56.9651 70.0315C57.0178 70.0275 57.0709 70.0191 57.1223 70.0068C57.631 69.8844 57.6899 69.8565 57.8834 69.5131C57.9298 69.4308 57.9633 69.3418 57.9828 69.2494C58.1076 68.6581 58.1821 68.0709 58.2394 67.4765C58.2895 66.9575 58.7202 66.5566 59.2415 66.5566C59.7538 66.5566 60.268 66.5566 60.7871 66.5566C61.3394 66.5566 61.7871 67.0044 61.7871 67.5566C61.7871 70.1907 61.7871 72.8312 61.7871 75.5293C61.7871 76.0815 61.3394 76.5293 60.7871 76.5293C58.1531 76.5293 55.5126 76.5293 52.8145 76.5293C52.2622 76.5293 51.8145 76.0816 51.8145 75.5293C51.8145 72.8953 51.8145 70.2547 51.8145 67.5567Z" fill="white"/>
<path d="M88.6699 67.7735C88.6699 67.2212 89.1176 66.7734 89.6699 66.7734C90.1708 66.7734 90.6736 66.7734 91.1812 66.7734C91.7166 66.7734 92.157 67.1951 92.1803 67.73C92.1935 68.0344 92.2067 68.3388 92.22 68.6432C92.2222 68.6951 92.2284 68.747 92.2394 68.7978C92.3728 69.4136 92.5529 69.6999 92.9837 70.0555C93.1361 70.1813 93.3282 70.25 93.5256 70.2571C93.8356 70.2683 93.9583 70.2483 94.2404 70.1394C94.4258 70.0679 94.5869 69.9394 94.6805 69.7641C94.9918 69.1811 95.0427 68.6087 95.0925 67.9116C95.0975 67.8418 95.1025 67.772 95.1075 67.7022C95.1449 67.1789 95.5803 66.7734 96.1049 66.7734C96.6146 66.7734 97.1261 66.7734 97.6426 66.7734C98.1949 66.7734 98.6426 67.2211 98.6426 67.7734C98.6426 70.4075 98.6426 73.048 98.6426 75.7461C98.6426 76.2983 98.1949 76.7461 97.6426 76.7461C95.0085 76.7461 92.368 76.7461 89.67 76.7461C89.1177 76.7461 88.6699 76.2984 88.6699 75.7461C88.6699 73.1121 88.6699 70.4715 88.6699 67.7735Z" fill="white"/>
<path d="M64.8223 67.5567C64.8223 67.0044 65.27 66.5566 65.8223 66.5566C66.3231 66.5566 66.8259 66.5566 67.3335 66.5566C67.8689 66.5566 68.3093 66.9783 68.3326 67.5132C68.3458 67.8176 68.3591 68.122 68.3723 68.4264C68.3746 68.4783 68.3807 68.5302 68.3917 68.581C68.5251 69.1968 68.7052 69.4831 69.136 69.8387C69.2884 69.9645 69.4805 70.0332 69.678 70.0403C69.9879 70.0515 70.1106 70.0315 70.3927 69.9226C70.5782 69.8511 70.7392 69.7226 70.8329 69.5473C71.1442 68.9644 71.1951 68.3919 71.2449 67.6948C71.2499 67.625 71.2548 67.5553 71.2598 67.4854C71.2972 66.9621 71.7326 66.5566 72.2573 66.5566C72.767 66.5566 73.2785 66.5566 73.7949 66.5566C74.3472 66.5566 74.7949 67.0044 74.7949 67.5566C74.7949 70.1907 74.7949 72.8312 74.7949 75.5293C74.7949 76.0815 74.3472 76.5293 73.7949 76.5293C71.1609 76.5293 68.5204 76.5293 65.8223 76.5293C65.27 76.5293 64.8223 76.0816 64.8223 75.5293C64.8223 72.8953 64.8223 70.2547 64.8223 67.5567Z" fill="white"/>
<path d="M88.6699 80.7813C88.6699 80.229 89.1176 79.7812 89.6699 79.7812C90.1727 79.7812 90.6774 79.7812 91.1869 79.7812C91.72 79.7812 92.1594 80.1994 92.1857 80.7318C92.2053 81.1277 92.2249 81.5237 92.2445 81.9196C92.299 82.5316 92.3036 82.5833 92.563 82.9162C92.6149 82.9827 92.6754 83.0425 92.7431 83.0929C93.0484 83.3201 93.1099 83.313 93.7782 83.2365C94.4795 83.1261 94.5198 83.1198 94.7366 82.7388C94.7644 82.6897 94.7882 82.6381 94.8062 82.5847C94.9951 82.0259 95.0499 81.5163 95.0925 80.9194C95.0975 80.8496 95.1025 80.7799 95.1075 80.71C95.1449 80.1867 95.5803 79.7812 96.1049 79.7812C96.6146 79.7812 97.1261 79.7812 97.6426 79.7812C98.1949 79.7812 98.6426 80.229 98.6426 80.7812C98.6426 83.4153 98.6426 86.0558 98.6426 88.7539C98.6426 89.3062 98.1949 89.7539 97.6426 89.7539C95.0085 89.7539 92.368 89.7539 89.67 89.7539C89.1177 89.7539 88.6699 89.3062 88.6699 88.7539C88.6699 86.1199 88.6699 83.4793 88.6699 80.7813Z" fill="white"/>
<path d="M65.3101 18.1161C66.1762 18.6123 66.7581 19.1896 67.1737 20.0886C67.1962 20.1373 67.214 20.1883 67.2272 20.2403C67.5209 21.4042 67.5224 22.4864 67.0542 23.5989C67.0346 23.6456 67.0106 23.6906 66.9829 23.733C66.4241 24.5872 65.6682 25.2004 64.7165 25.5435C64.6431 25.57 64.5662 25.5856 64.4884 25.5922C63.3799 25.6873 62.4002 25.7278 61.3812 25.279C61.2904 25.239 61.2079 25.1821 61.1356 25.114C60.1268 24.1636 59.4959 23.3083 59.3436 21.9045C59.3372 21.8454 59.337 21.7853 59.3429 21.7261C59.4689 20.4721 59.9559 19.4306 60.8254 18.5242C60.8875 18.4596 60.9593 18.4049 61.038 18.3621C62.4333 17.6039 63.8318 17.4703 65.3101 18.1161Z" fill="white"/>
</svg>
