<svg width="85" height="85" viewBox="0 0 85 85" fill="none" xmlns="http://www.w3.org/2000/svg">
<path d="M39.9754 59.062C40.1649 59.0607 40.3543 59.0593 40.5495 59.058C40.9507 59.0557 41.3519 59.0539 41.753 59.0526C42.1572 59.0507 42.5614 59.0473 42.9656 59.0424C48.0361 58.9805 52.8128 59.8003 56.6103 63.4265C56.833 63.6439 57.0543 63.8629 57.2754 64.082C57.3877 64.1863 57.5001 64.2905 57.6159 64.3979C60.4124 67.0332 62.0338 71.1704 62.1521 74.9561C62.1208 76.8837 61.4598 78.3126 60.1171 79.6719C58.8462 80.8481 57.6585 81.3663 55.9314 81.3721C55.8127 81.3727 55.694 81.3733 55.5717 81.374C55.1738 81.3758 54.776 81.3764 54.3781 81.3771C54.0929 81.3781 53.8076 81.3792 53.5223 81.3804C52.5853 81.3839 51.6483 81.3856 50.7113 81.3872C50.3884 81.3879 50.0655 81.3886 49.7426 81.3893C48.2252 81.3924 46.7078 81.3948 45.1905 81.3962C43.4407 81.3978 41.691 81.4022 39.9412 81.4089C38.5877 81.4139 37.2342 81.4164 35.8806 81.4169C35.0728 81.4173 34.2649 81.4188 33.457 81.423C32.6964 81.4268 31.9358 81.4275 31.1752 81.4258C30.8969 81.4257 30.6186 81.4268 30.3404 81.4291C28.0739 81.4466 26.3878 81.0821 24.6533 79.5215C23.3684 78.2051 22.8599 76.565 22.8579 74.7735C22.9368 70.8211 24.8456 67.0407 27.5586 64.2481C27.6705 64.1239 27.7824 63.9998 27.8978 63.8719C31.0023 60.5403 35.5217 59.0924 39.9754 59.062Z" fill="white"/>
<path d="M48.4766 8.96485C48.5954 8.99866 48.7142 9.03247 48.8366 9.06731C51.6968 9.9086 54.3562 11.3342 56.6113 13.2813C56.7007 13.357 56.79 13.4327 56.8821 13.5107C61.2854 17.2713 63.9279 22.6271 64.4141 28.3887C64.4181 28.6653 64.4198 28.9421 64.4141 29.2188C63.573 29.0684 62.7782 28.8052 61.966 28.5443C59.2082 27.7498 56.5265 28.3609 54.0601 29.7012C51.8111 30.9765 50.5273 32.8628 49.4727 35.1953C48.8809 35.0786 48.4009 34.8337 47.8644 34.5624C44.7952 33.1377 41.5024 32.9145 38.2893 34.0676C37.635 34.332 37.0146 34.5979 36.4151 34.9722C36.0254 35.1953 36.0254 35.1953 35.5273 35.1953C35.445 35.031 35.3626 34.8666 35.2777 34.6973C34.6974 33.5625 34.1501 32.528 33.2446 31.6124C33.0371 31.377 33.0371 31.377 33.0371 31.0449C32.9432 31.0015 32.8492 30.958 32.7524 30.9133C32.3409 30.6959 31.9891 30.4405 31.6156 30.163C29.562 28.721 27.0929 27.9444 24.5703 28.2227C23.3808 28.4332 22.1626 28.6645 21.084 29.2188C20.9196 29.2188 20.7553 29.2188 20.5859 29.2188C20.7746 23.3523 23.3182 17.9727 27.5586 13.9453C30.3371 11.4613 33.6007 9.7574 37.1875 8.79883C37.376 8.74555 37.5646 8.69226 37.7588 8.63736C41.1248 7.84297 45.1691 7.99985 48.4766 8.96485ZM41.8048 10.3241C41.4197 10.7093 41.3379 10.9101 41.3379 11.4551C41.575 11.9418 41.575 11.9418 42.002 12.2852C42.5 12.4235 42.5 12.4235 42.998 12.2852C43.4395 11.9548 43.4395 11.9548 43.6621 11.4551C43.5943 10.9196 43.5943 10.9196 43.3301 10.459C42.7554 10.0759 42.4296 9.98493 41.8048 10.3241ZM32.207 12.9492C31.9437 13.3239 31.9437 13.3239 31.875 13.7793C32.0605 14.1681 32.2341 14.4705 32.5391 14.7754C33.2276 14.8443 33.2276 14.8443 33.8361 14.5679C34.0684 14.2255 34.1748 14.0292 34.1992 13.6133C34.0314 13.1537 34.0314 13.1538 33.7012 12.7832C33.1053 12.554 32.7206 12.5596 32.207 12.9492ZM50.9668 13.1152C50.7944 13.5955 50.7617 13.8371 50.9357 14.3189C51.1152 14.6344 51.1152 14.6344 51.4648 14.7754C52.1539 14.8444 52.1539 14.8444 52.7618 14.5679C52.9887 14.2335 53.0883 14.0168 53.125 13.6133C52.982 13.1712 52.8633 12.9946 52.4713 12.7417C51.7981 12.4969 51.4632 12.6354 50.9668 13.1152ZM51.1328 19.9219C50.7103 20.3623 50.2992 20.813 49.8886 21.2645C49.3859 21.8171 48.8742 22.3547 48.3417 22.879C47.9032 23.3113 47.4862 23.7495 47.0862 24.2175C46.5342 24.862 45.9367 25.4556 45.3327 26.0504C44.7741 26.6037 44.2523 27.1765 43.751 27.7817C43.4702 28.0846 43.1645 28.3109 42.832 28.5547C42.7694 28.4696 42.7069 28.3845 42.6424 28.2968C40.785 25.5817 40.785 25.5817 38.6816 23.0762C38.1836 23.007 38.1836 23.007 37.6855 23.0762C37.3098 23.5374 37.3098 23.5374 37.3613 24.0282C37.569 24.7399 37.9328 25.2002 38.3911 25.7739C38.5724 26.0074 38.7533 26.2411 38.9339 26.475C39.0284 26.5968 39.1229 26.7185 39.2203 26.844C39.8107 27.619 40.3696 28.4175 40.9305 29.2141C41.6299 30.2083 41.6299 30.2083 42.5 31.0449C43.1881 30.9994 43.5136 30.7769 43.9877 30.292C44.1071 30.1712 44.2265 30.0504 44.3495 29.9259C44.4719 29.7987 44.5943 29.6715 44.7205 29.5404C44.8416 29.4177 44.9627 29.2949 45.0875 29.1685C45.7665 28.4756 46.4149 27.7631 47.049 27.0291C47.4241 26.6043 47.822 26.2114 48.2275 25.8154C48.7452 25.3055 49.25 24.7916 49.7217 24.2383C50.1934 23.685 50.6986 23.1715 51.2158 22.6611C52.0845 21.8008 52.9431 20.9418 53.623 19.9219C53.593 19.4419 53.4949 19.292 53.1354 18.9673C52.2927 18.4566 51.7248 19.3505 51.1328 19.9219ZM25.3381 19.8492C25.0113 20.2563 25.0113 20.2563 25.0787 20.8557C25.1804 21.4584 25.1804 21.4584 25.7324 21.7481C26.3254 21.7345 26.3254 21.7345 26.8945 21.582C27.254 21.0428 27.3181 20.8796 27.2266 20.2539C26.8955 19.8003 26.7016 19.6177 26.1475 19.5068C25.7142 19.5665 25.7142 19.5665 25.3381 19.8492ZM58.0432 19.8492C57.7164 20.2563 57.7164 20.2563 57.7838 20.8557C57.8855 21.4584 57.8855 21.4584 58.4375 21.7481C59.0305 21.7345 59.0305 21.7345 59.5996 21.582C59.9916 21.1015 59.9916 21.1015 59.9005 20.4926C59.824 19.879 59.824 19.879 59.2676 19.5898C58.7232 19.5061 58.507 19.5442 58.0432 19.8492Z" fill="white"/>
<path d="M49.2697 37.3639C51.4149 39.162 52.7405 41.6424 53.0887 44.4176C53.2746 47.3487 52.6068 50.1682 50.6446 52.4167C48.8367 54.4071 46.5332 55.9429 43.7808 56.1405C40.6742 56.2864 37.8354 55.7335 35.4651 53.5815C33.1594 51.3878 31.9156 48.7099 31.8231 45.5298C31.9591 42.5379 33.14 39.6835 35.3503 37.622C39.6378 34.2666 44.9262 34.1384 49.2697 37.3639Z" fill="white"/>
<path d="M23.6592 50.1088C23.807 50.1083 23.9547 50.1077 24.107 50.1071C24.4182 50.1063 24.7295 50.1059 25.0408 50.1059C25.5103 50.1056 25.9798 50.1026 26.4493 50.0994C30.1138 50.0863 30.1138 50.0863 31.2109 50.4687C31.6597 50.9512 31.6597 50.9512 31.9165 51.5478C32.0177 51.7598 32.1206 51.971 32.2252 52.1814C32.3011 52.3375 32.3011 52.3375 32.3786 52.4967C32.7894 53.2551 33.4237 53.8533 34.0332 54.4531C34.1387 54.5584 34.2442 54.6637 34.3529 54.7722C35.4494 55.7983 36.7792 56.583 38.1836 57.1094C38.1288 57.2189 38.074 57.3285 38.0176 57.4414C37.5944 57.5283 37.1787 57.5977 36.7517 57.6593C32.1011 58.4161 27.863 60.8835 24.9691 64.6229C24.2976 65.5605 23.7349 66.5342 23.1994 67.5534C23.1391 67.6673 23.0789 67.7811 23.0168 67.8985C22.8702 68.1756 22.7241 68.453 22.5781 68.7305C21.4264 68.7389 20.2746 68.7447 19.1229 68.7487C18.7316 68.7504 18.3403 68.7526 17.9491 68.7555C17.3845 68.7596 16.8199 68.7614 16.2553 68.7629C15.9958 68.7655 15.9958 68.7655 15.731 68.7681C13.7753 68.7684 12.1494 68.4719 10.6548 67.1313C10.3925 66.8478 10.1751 66.5615 9.96095 66.2402C9.89247 66.1409 9.82399 66.0416 9.75343 65.9393C8.86889 64.3668 9.14688 62.1736 9.54591 60.4919C10.1822 58.4015 11.1746 56.5907 12.6172 54.9512C12.7182 54.8176 12.8192 54.6841 12.9233 54.5465C15.5397 51.4372 19.7252 50.1141 23.6592 50.1088Z" fill="white"/>
<path d="M58.9341 50.0843C59.389 50.0848 59.8438 50.0809 60.2987 50.0767C63.8776 50.0636 67.0985 50.6624 70.0586 52.793C70.2 52.8936 70.3415 52.9941 70.4872 53.0978C73.256 55.1818 75.0476 58.3795 75.7031 61.7578C75.92 63.5787 75.8275 65.2165 74.707 66.7383C73.6484 67.9567 72.3173 68.5823 70.7227 68.7305C70.0795 68.7523 69.4369 68.7498 68.7934 68.7467C68.6108 68.7465 68.4282 68.7462 68.24 68.746C67.6599 68.7451 67.0798 68.743 66.4996 68.7409C66.105 68.74 65.7104 68.7393 65.3158 68.7386C64.3512 68.7368 63.3865 68.734 62.4219 68.7305C62.3232 68.5398 62.2245 68.349 62.1228 68.1525C61.9899 67.8981 61.857 67.6437 61.7241 67.3894C61.6594 67.2642 61.5948 67.139 61.5282 67.0099C59.2246 62.6165 55.1355 59.6134 50.4642 58.1152C49.6153 57.8739 48.7466 57.7312 47.8739 57.6053C47.5751 57.5606 47.2784 57.5022 46.9824 57.4414C46.9276 57.3319 46.8729 57.2223 46.8164 57.1094C47.0421 57.0038 47.0421 57.0038 47.2723 56.896C48.5041 56.308 49.6102 55.7018 50.6348 54.7852C50.7589 54.6765 50.883 54.5677 51.0109 54.4557C52.0828 53.4567 53.0766 52.1747 53.5847 50.7833C53.7891 50.4688 53.7891 50.4688 54.1725 50.3331C55.7604 50.1157 57.3329 50.0805 58.9341 50.0843Z" fill="white"/>
<path d="M42.4066 3.5901C42.538 3.59024 42.6694 3.59039 42.8048 3.59054C48.1888 3.61014 53.3651 5.166 57.7735 8.30079C57.866 8.36636 57.9585 8.43192 58.0538 8.49947C61.5769 11.0388 64.2518 14.259 66.2403 18.0957C66.3198 18.2471 66.3198 18.2471 66.401 18.4015C68.2767 22.0136 69.0978 26.0939 69.0833 30.1422C69.0839 30.3223 69.0846 30.5024 69.0852 30.6879C69.084 31.6529 69.0422 32.581 68.8965 33.5352C68.2115 33.3068 68.0777 32.9099 67.7162 32.3095C67.4298 31.913 67.166 31.6706 66.7999 31.3549C66.0592 30.629 66.0654 29.9254 66.0431 28.9282C66.0243 28.5866 66.004 28.2451 65.9822 27.9036C65.9715 27.7338 65.9609 27.564 65.9499 27.389C65.5623 22.7889 63.4218 18.2465 60.4297 14.7754C60.297 14.6185 60.1643 14.4617 60.0276 14.3001C58.2224 12.216 56.0465 10.5969 53.6231 9.29688C53.5149 9.2387 53.4067 9.18052 53.2953 9.12057C49.9284 7.34637 46.3364 6.56828 42.5415 6.58875C42.4248 6.58906 42.3081 6.58936 42.1878 6.58967C37.0938 6.61188 32.0681 8.26076 28.0567 11.4551C27.9715 11.5225 27.8864 11.5899 27.7987 11.6593C23.1029 15.4061 19.9699 20.7661 19.0918 26.7285C19.0166 27.6056 18.9605 28.4848 18.9522 29.3651C18.9146 30.2933 18.7921 30.7783 18.1184 31.4405C17.8896 31.6408 17.6607 31.841 17.4317 32.041C17.1013 32.4751 17.1013 32.4751 16.8714 32.8711C16.6392 33.255 16.6392 33.255 16.4356 33.5352C16.326 33.5352 16.2164 33.5352 16.1035 33.5352C15.3421 28.3955 16.3114 23.0671 18.5938 18.4277C18.6447 18.323 18.6956 18.2182 18.748 18.1103C19.9546 15.656 21.5133 13.5829 23.4082 11.6211C23.5495 11.4694 23.6907 11.3176 23.8362 11.1613C28.6288 6.14638 35.547 3.57149 42.4066 3.5901Z" fill="white"/>
<path d="M31.3737 31.9314C32.2987 32.7798 32.9249 33.6488 33.4937 34.7595C33.5803 34.9283 33.5803 34.9283 33.6686 35.1006C33.8928 35.5751 34.0352 35.9504 34.0209 36.4787C33.8382 36.9265 33.6194 37.1695 33.2758 37.5091C30.9931 39.9923 30.3225 43.0547 30.0488 46.3184C29.7309 46.4538 29.4126 46.5886 29.0942 46.723C28.9171 46.7981 28.7399 46.8732 28.5573 46.9506C27.5937 47.3313 26.7391 47.3502 25.7117 47.3559C25.5623 47.3594 25.4129 47.3628 25.259 47.3663C22.8753 47.38 20.8886 46.409 19.1826 44.7801C17.5648 43.0432 16.7439 40.8865 16.7676 38.5156C16.9359 35.8653 17.8693 33.8574 19.7662 32.0203C23.1603 29.1243 27.8964 29.2015 31.3737 31.9314Z" fill="white"/>
<path d="M65.296 32.0825C67.2613 33.9657 68.1536 36.1483 68.2324 38.8477C68.1705 40.3742 67.8118 41.666 67.0703 42.998C66.9986 43.1275 66.927 43.257 66.8531 43.3904C65.6927 45.2937 63.9175 46.5262 61.8032 47.1711C61.0021 47.3584 60.2121 47.378 59.3921 47.3767C59.239 47.3767 59.0859 47.3766 58.9282 47.3766C57.7331 47.3567 56.7045 47.1623 55.6153 46.6504C55.5008 46.6072 55.3862 46.5639 55.2683 46.5194C54.9512 46.3184 54.9512 46.3184 54.8459 45.9875C54.8348 45.8532 54.8238 45.7188 54.8124 45.5804C54.7973 45.4302 54.7821 45.28 54.7665 45.1253C54.7449 44.8838 54.7449 44.8838 54.7229 44.6374C54.3874 41.6808 53.402 39.1523 51.2003 37.0656C50.9668 36.6894 50.9668 36.6894 50.9837 36.1291C51.4653 34.1858 52.7506 32.4209 54.4364 31.341C57.9797 29.2765 62.0787 29.3276 65.296 32.0825Z" fill="white"/>
</svg>
