<svg width="79" height="70" viewBox="0 0 79 70" fill="none" xmlns="http://www.w3.org/2000/svg">
<path d="M60.4317 25.014C64.5834 24.8986 68.7395 26.0624 71.9324 28.7582C72.2783 29.0606 72.2783 29.0606 72.7662 29.3682C73.6411 28.4328 74.4479 27.4614 75.2213 26.4435C76.1191 25.2668 76.1191 25.2668 76.6463 25.092C77.6513 24.9547 77.6513 24.9547 78.1336 25.2045C78.4979 25.5003 78.7825 25.7865 78.9943 26.2053C79.0568 27.4415 78.6032 28.1419 77.7949 29.0352C77.5959 29.2669 77.3969 29.4986 77.1979 29.7304C77.0114 29.9428 76.8247 30.155 76.6377 30.367C76.3896 30.6526 76.1434 30.9399 75.9013 31.2305C75.8097 31.3359 75.7181 31.4413 75.6238 31.5498C75.4271 31.8631 75.4271 31.8631 75.4765 32.2495C75.6695 32.8212 75.9569 33.322 76.259 33.842C77.1929 35.5101 77.8342 37.3038 78.1526 39.1897C78.1713 39.2985 78.19 39.4073 78.2092 39.5194C78.8282 43.929 77.7087 48.3116 75.151 51.9466C73.5937 53.9634 71.7948 55.5845 69.568 56.8353C69.4039 56.9291 69.2399 57.0228 69.0709 57.1194C65.1132 59.2315 60.3571 59.4918 56.0806 58.264C55.2709 58.015 54.5076 57.6999 53.7453 57.3347C53.5654 57.2491 53.3855 57.1634 53.2002 57.0752C49.3658 55.1458 46.3114 51.6868 44.9127 47.6568C43.4237 43.0769 43.7444 38.2653 45.9645 33.9766C46.5441 32.9106 47.2414 31.9657 48.0222 31.0328C48.1885 30.8304 48.1885 30.8304 48.3582 30.6238C51.0215 27.513 54.9926 25.6453 59.037 25.0816C59.5015 25.0468 59.9663 25.0333 60.4317 25.014ZM52.062 31.8652C51.9205 31.9899 51.7791 32.1145 51.6333 32.243C49.1979 34.5019 47.6404 37.7771 47.4521 41.0801C47.3217 45.1597 48.668 48.6965 51.5044 51.6956C54.2914 54.3127 57.7676 55.593 61.5891 55.5625C65.3665 55.4619 68.6385 53.8144 71.2513 51.1754C74.0952 48.1724 74.9463 44.5116 74.8155 40.4977C74.6918 38.4971 73.9076 36.7581 72.9345 35.0281C72.2329 35.6849 71.6602 36.3963 71.0829 37.1609C70.3432 38.1299 69.5899 39.084 68.8105 40.0221C67.967 41.0386 67.1542 42.0744 66.3513 43.1225C65.6196 44.0741 64.8642 45.0046 64.0954 45.9271C63.5594 46.5719 63.0487 47.2286 62.5551 47.9058C62.2338 48.2956 61.9889 48.4274 61.4883 48.5119C60.2962 48.5342 59.7789 47.9433 58.9634 47.1802C58.186 46.4335 57.423 45.6725 56.6594 44.9121C56.4538 44.7078 56.2481 44.5037 56.0423 44.2995C55.6646 43.9246 55.2872 43.5495 54.91 43.1742C54.4665 42.733 54.022 42.2929 53.577 41.8532C53.3144 41.5936 53.3612 41.339 53.3455 40.9793C53.3544 40.3696 53.3961 40.207 53.7558 39.6787C54.3824 39.27 54.69 39.2409 55.4285 39.3562C56.2157 39.811 56.8125 40.3569 57.434 41.0033C57.6194 41.1916 57.8048 41.3799 57.9903 41.5681C58.2789 41.8628 58.5668 42.1582 58.8534 42.4548C59.1324 42.7428 59.4139 43.028 59.6959 43.3131C59.7813 43.4029 59.8667 43.4927 59.9547 43.5852C60.4018 44.0566 60.4018 44.0566 61.0128 44.1873C61.362 43.994 61.5518 43.8112 61.7993 43.5003C61.8864 43.3927 61.9734 43.2851 62.0631 43.1742C62.1546 43.0576 62.2461 42.9409 62.3405 42.8208C62.4368 42.7008 62.5331 42.5807 62.6323 42.4571C62.9259 42.0905 63.2172 41.7223 63.5082 41.3538C63.6714 41.1493 63.8347 40.9449 63.9981 40.7406C64.3782 40.2647 64.7563 39.7872 65.1338 39.3092C65.5168 38.8247 65.9013 38.3414 66.2856 37.858C66.7531 37.27 67.2203 36.6818 67.6861 36.0925C68.6354 34.893 69.5966 33.7052 70.5779 32.5311C69.8462 30.8095 67.5199 29.8732 65.8648 29.2017C61.1971 27.4863 55.7158 28.5406 52.062 31.8652Z" fill="white"/>
<path d="M41.1539 0.768188C41.338 0.82768 41.5221 0.887173 41.7118 0.948468C44.7601 2.01503 47.6545 3.59881 49.1193 6.5545C50.3868 9.4709 50.1205 12.9994 49.3587 16.0427C49.3101 16.237 49.3101 16.237 49.2605 16.4353C48.4642 19.5019 47.183 22.2671 45.1725 24.7475C45.0627 24.8853 44.9528 25.0231 44.8396 25.1651C42.9555 27.3882 40.4597 28.6933 37.5538 28.9767C34.4228 29.1543 31.6645 28.3225 29.2647 26.293C25.1525 22.545 23.233 16.8252 23.0228 11.4356C23.0159 11.103 23.0106 10.7705 23.0071 10.4379C23.0036 10.2104 23.0036 10.2104 23 9.97835C23.0164 7.69001 23.8866 5.41571 25.5077 3.7502C29.5605 0.239152 36.0873 -0.929184 41.1539 0.768188ZM27.7793 6.48585C26.2146 8.40433 26.3313 10.5601 26.5689 12.8967C27.0645 17.0722 28.7673 21.1918 31.9444 24.0905C32.4781 24.487 33.0134 24.7975 33.6189 25.076C33.7329 25.1312 33.8468 25.1865 33.9642 25.2434C35.4158 25.834 37.3268 25.7873 38.7992 25.3018C41.9874 23.9602 43.8267 21.1999 45.0895 18.1541C46.2296 15.3031 47.3975 11.0436 46.0811 8.07951C44.5956 5.50875 41.7219 4.42387 38.9603 3.64226C35.4382 2.73483 30.3334 3.81677 27.7793 6.48585Z" fill="white"/>
<path d="M27.7793 6.48585C26.2146 8.40433 26.3313 10.5601 26.5689 12.8967C27.0645 17.0722 28.7673 21.1918 31.9444 24.0905C32.4781 24.487 33.0134 24.7975 33.6189 25.076L33.9642 25.2434C35.4158 25.834 37.3268 25.7873 38.7992 25.3018C41.9874 23.9602 43.8267 21.1999 45.0895 18.1541C46.2296 15.3031 47.3975 11.0436 46.0811 8.07951C44.5956 5.50875 41.7219 4.42387 38.9603 3.64226C35.4382 2.73483 30.3334 3.81677 27.7793 6.48585Z" fill="white"/>
<path d="M35.5439 38.4951C34.6422 38.4998 33.7405 38.5002 32.8388 38.499C31.3994 38.4978 29.9598 38.5035 28.5204 38.5098C28.0328 38.5112 27.5449 38.51 27.0573 38.5089L27.0194 38.5088C23.3261 38.5102 20.2573 39.2051 17.4853 41.7725C14.867 44.4526 13.5304 48.1349 13.5214 51.8184L13.5165 52.3066C13.5115 52.8211 13.5087 53.3358 13.506 53.8503L13.5058 53.8838C13.5026 54.2509 13.4994 54.6182 13.496 54.9854C13.4875 55.9468 13.4808 56.9087 13.4745 57.8701C13.4682 58.7965 13.4602 59.7228 13.4521 60.6492L13.4462 61.3389C13.4351 62.6635 13.426 63.9883 13.417 65.313L13.4081 66.5947H21.9374L21.9198 62.6904C21.9173 61.8747 21.9149 61.0588 21.913 60.2432L21.9128 60.1433C21.9098 58.8816 21.9069 57.62 21.9003 56.3584C21.8949 55.3145 21.8918 54.2704 21.8905 53.2266C21.8896 52.828 21.8874 52.4288 21.8847 52.0303C21.881 51.4727 21.8805 50.915 21.8808 50.3574L21.8779 50.1115L21.8749 49.8574C21.8786 49.0366 21.8831 48.4479 22.4394 47.7881C22.922 47.4593 23.2833 47.4151 23.8612 47.4688L24.2431 47.4951C24.8119 47.6917 24.9697 47.9382 25.2831 48.4482C25.3767 49.0158 25.3685 49.5775 25.3601 50.1506L25.3593 50.208V50.7529C25.3588 51.3346 25.3538 51.9164 25.3485 52.498C25.3476 52.8575 25.347 53.2177 25.3466 53.5771C25.3435 54.7637 25.3357 55.9503 25.328 57.1368L25.3279 57.1383L25.3251 57.5732L25.2831 66.5947H47.6952V61.29C41.5764 57.5001 37.4999 50.7265 37.4999 43C37.4999 41.4534 37.6642 39.9452 37.9745 38.4912C37.5067 38.4937 37.039 38.4927 36.5712 38.4902C36.2288 38.4916 35.8863 38.493 35.5439 38.4951Z" fill="white"/>
<path d="M51.04 66.5947H59.7372V64.4854C59.4925 64.4936 59.2467 64.5 58.9999 64.5C56.2116 64.5 53.5473 63.969 51.1025 63.0029C51.1006 63.0839 51.0992 63.1648 51.0978 63.2458C51.0963 63.3344 51.0948 63.4231 51.0927 63.5117L51.0667 65.0304L51.04 66.5947Z" fill="white"/>
<path fill-rule="evenodd" clip-rule="evenodd" d="M63.1269 64.3135L63.1288 64.1016V61.0375C62.0322 61.2875 60.8984 61.4401 59.7372 61.4856C59.4926 61.4952 59.2468 61.5 58.9999 61.5C56.1748 61.5 53.4976 60.8667 51.1025 59.7344V63.0029C53.5473 63.969 56.2116 64.5 58.9999 64.5C59.2467 64.5 59.4925 64.4936 59.7372 64.4854V66.5947H51.04H47.6952H25.2831H21.9374H13.4081L13.417 65.313C13.426 63.9883 13.4351 62.6635 13.4462 61.3389L13.4521 60.6492C13.4602 59.7228 13.4682 58.7965 13.4745 57.8701C13.4808 56.9087 13.4875 55.9468 13.496 54.9854C13.4994 54.6182 13.5026 54.2509 13.5058 53.8838L13.506 53.8503C13.5087 53.3358 13.5115 52.8211 13.5165 52.3066L13.5214 51.8184C13.5304 48.1349 14.867 44.4526 17.4853 41.7725C20.2573 39.2051 23.3261 38.5102 27.0194 38.5088L27.0573 38.5089C27.5449 38.51 28.0328 38.5112 28.5204 38.5098C29.9598 38.5035 31.3994 38.4978 32.8388 38.499C33.7405 38.5002 34.6422 38.4998 35.5439 38.4951C35.8863 38.493 36.2288 38.4916 36.5712 38.4902C37.039 38.4927 37.5067 38.4937 37.9745 38.4912C37.6642 39.9452 37.4999 41.4534 37.4999 43C37.4999 50.7265 41.5764 57.5001 47.6952 61.29V57.6453C43.3184 54.2619 40.4999 48.9601 40.4999 43C40.4999 40.1403 41.1488 37.4321 42.3073 35.0146L39.036 35.0049C39.0122 35.0044 38.988 35.0035 38.9634 35.0026C38.932 35.0015 38.9 35.0003 38.8671 35L38.4159 35.0059C37.9115 35.0039 37.4066 35.0026 36.9023 35.0059C36.5409 35.0084 36.1796 35.0104 35.8183 35.0107C35.0628 35.0106 34.3071 35.011 33.5517 35.0146C32.5714 35.0203 31.5906 35.0244 30.6103 35.0244C29.8453 35.0242 29.0803 35.0254 28.3153 35.0273L27.7001 35.029L27.2157 35.0303C26.6922 35.0306 26.168 35.0311 25.6444 35.0342C25.5213 35.035 25.46 35.0356 25.399 35.0362C25.3386 35.0367 25.2785 35.0373 25.1591 35.0381C23.595 35.0365 22.0802 35.2048 20.6005 35.7295L20.286 35.8486C17.1258 37.038 14.4211 39.3062 12.6855 42.1758C12.6372 42.2611 12.5898 42.3454 12.5427 42.429C12.4964 42.5114 12.4503 42.5932 12.4042 42.6748C11.7135 43.8808 11.1008 45.0918 10.6923 46.4209L10.5858 46.7881C9.86846 49.2103 9.84725 51.7541 9.86026 54.2559C9.86209 54.592 9.86356 54.9285 9.86417 55.2646C9.86503 56.1514 9.86636 57.0381 9.87003 57.9248C9.87385 58.8414 9.87611 59.7582 9.87784 60.6748C9.88111 62.4583 9.88665 64.2419 9.89347 66.0254L9.89446 66.3145L9.89542 66.5947C8.87589 66.5878 7.85637 66.5827 6.83683 66.5791C6.54943 66.5782 6.26191 66.577 5.97443 66.5758L5.9689 66.5758L5.95726 66.5757L5.58878 66.5742C4.97529 66.57 4.36147 66.5663 3.74796 66.5645L3.45291 66.5635L3.16593 66.5625L2.87989 66.56L2.6005 66.5576H2.07218L2.06118 66.5576C1.60883 66.5554 1.6054 66.5554 1.19815 66.5947C0.554563 66.8448 0.315622 67.1243 0.0272564 67.75L0.0269611 67.7537C-0.0139136 68.2677 -0.0407728 68.6055 0.194249 69.0693C0.640477 69.6087 0.885002 69.8676 1.58878 69.9971L1.92093 69.9966L2.24015 69.9961C2.62655 69.9993 3.01292 70.0012 3.39933 69.998C3.68431 69.9956 3.96981 69.9947 4.2548 69.9951C5.04096 69.9983 5.82703 69.9988 6.61319 69.9951C7.47254 69.9911 8.33196 69.9904 9.19132 69.9912C10.8748 69.9931 12.5586 69.9909 14.2421 69.9863C16.2195 69.9809 18.1973 69.9791 20.1747 69.9785C23.6945 69.9777 27.2145 69.9738 30.7343 69.9668C34.1653 69.9599 37.5963 69.9542 41.0273 69.9521H41.3529H41.6689L42.961 69.9517L44.2235 69.9512C47.4255 69.9494 50.6278 69.9457 53.8298 69.942L55.2489 69.9404L57.0253 69.9385L58.0928 69.9374C59.8352 69.9357 61.5778 69.934 63.3202 69.9307L63.9433 69.9294C64.6038 69.9279 65.2643 69.9265 65.9247 69.9258C66.7309 69.925 67.5375 69.9239 68.3437 69.9219L68.9109 69.9206L69.2196 69.9199C69.6254 69.9198 70.0317 69.9192 70.4374 69.918L70.5824 69.9175L70.6216 69.9175L70.8007 69.917C70.8912 69.9168 70.9787 69.9182 71.0639 69.9196C71.4964 69.9264 71.8696 69.9324 72.2812 69.7295C72.657 69.3697 72.9237 69.0914 72.9999 68.5684C73.0066 67.8458 72.9575 67.4541 72.4814 66.9082C71.8201 66.5201 71.8189 66.5201 70.5049 66.5205H70.5009C70.355 66.5231 70.2823 66.5243 70.2099 66.5254C70.1705 66.5261 70.1312 66.5267 70.0803 66.5276C70.0387 66.5283 69.9893 66.5291 69.9257 66.5303C69.3159 66.5332 68.7063 66.5369 68.0966 66.5449C67.6725 66.5506 67.2483 66.5553 66.8241 66.5586C65.6872 66.5658 64.2197 66.5801 63.0829 66.5947C63.0933 66.1755 63.1014 65.7562 63.1073 65.3369L63.1142 64.8213L63.1269 64.3135Z" fill="white"/>
</svg>
