<svg width="85" height="85" viewBox="0 0 85 85" fill="none" xmlns="http://www.w3.org/2000/svg">
<g clip-path="url(#clip0_1036_725)">
<path d="M68.4308 53.7067C68.7367 53.7067 69.0425 53.7064 69.3483 53.706C69.986 53.7057 70.6236 53.7078 71.2613 53.7116C72.0748 53.7163 72.8881 53.7159 73.7016 53.7137C74.332 53.7126 74.9623 53.7139 75.5927 53.7159C75.8926 53.7167 76.1924 53.7168 76.4922 53.7161C79.0609 53.7131 81.1196 54.0113 83.1219 55.7812C84.207 56.9256 85.0184 58.711 85.0244 60.2747C85.0262 60.5907 85.0262 60.5907 85.028 60.913C85.0285 61.1469 85.0289 61.3809 85.0294 61.6148C85.0304 61.8607 85.0315 62.1067 85.0327 62.3527C85.0362 63.1606 85.0379 63.9686 85.0395 64.7766C85.0402 65.0546 85.0409 65.3327 85.0416 65.6108C85.0448 66.9166 85.0471 68.2225 85.0485 69.5284C85.0501 71.0367 85.0545 72.5449 85.0612 74.0532C85.0662 75.2186 85.0687 76.384 85.0692 77.5495C85.0696 78.2458 85.0711 78.9421 85.0753 79.6384C85.0791 80.2932 85.0798 80.9478 85.0781 81.6026C85.078 81.843 85.0791 82.0834 85.0814 82.3238C85.0843 82.6518 85.0827 82.9798 85.081 83.3077C85.0814 83.4913 85.0818 83.6749 85.0822 83.8641C85 84.3359 85 84.3359 84.7247 84.7269C84.2321 85.0729 83.9472 85.0838 83.3478 85.0854C83.1455 85.0875 82.9433 85.0897 82.7349 85.0918C82.5112 85.0908 82.2876 85.0897 82.0639 85.0886C81.828 85.0897 81.5921 85.0912 81.3562 85.0929C80.7158 85.0966 80.0755 85.0961 79.435 85.0947C78.9003 85.0938 78.3657 85.095 77.831 85.0962C76.5695 85.0991 75.3081 85.0985 74.0466 85.0957C72.7454 85.0929 71.4443 85.0955 70.1431 85.1009C69.0257 85.1053 67.9084 85.1065 66.791 85.1051C66.1237 85.1043 65.4565 85.1047 64.7892 85.1081C64.1617 85.1111 63.5343 85.1101 62.9067 85.106C62.6766 85.1052 62.4464 85.1058 62.2163 85.1079C60.5065 85.1223 60.5065 85.1223 59.7118 84.7222C59.2517 83.809 59.3197 82.8737 59.3288 81.8697C59.328 81.6326 59.3267 81.3956 59.3252 81.1585C59.3221 80.5153 59.3243 79.8721 59.3275 79.2289C59.3303 78.5539 59.3288 77.8789 59.328 77.2039C59.3272 76.069 59.3298 74.9341 59.3345 73.7992C59.3398 72.4917 59.3398 71.1843 59.3369 69.8767C59.3343 68.6153 59.3354 67.3538 59.3383 66.0924C59.3394 65.5576 59.3392 65.0228 59.338 64.488C59.3367 63.8557 59.3388 63.2235 59.3433 62.5912C59.3449 62.252 59.3434 61.9128 59.3417 61.5737C59.3645 59.3388 59.8868 57.4418 61.4258 55.7812C63.5226 53.868 65.7293 53.688 68.4308 53.7067ZM63.2519 58.2715C62.7066 59.1441 62.4009 59.9556 62.4019 60.9895C62.4017 61.1746 62.4014 61.3596 62.4012 61.5503C62.4018 61.7534 62.4024 61.9566 62.403 62.1658C62.403 62.3796 62.403 62.5935 62.4029 62.8138C62.4029 63.4002 62.4039 63.9867 62.405 64.5732C62.4061 65.1861 62.4062 65.799 62.4064 66.4118C62.4069 67.5724 62.4082 68.733 62.4099 69.8937C62.4121 71.4619 62.413 73.0302 62.414 74.5985C62.4155 77.0696 62.4188 79.5406 62.4219 82.0117C68.8865 82.0117 75.3512 82.0117 82.0117 82.0117C82.0311 78.1238 82.0311 78.1238 82.0441 74.2359C82.0481 72.6499 82.0527 71.0639 82.0618 69.478C82.0684 68.3228 82.0727 67.1677 82.0742 66.0125C82.075 65.4012 82.0771 64.79 82.0819 64.1788C82.0873 63.4952 82.0874 62.8117 82.0871 62.1281C82.0895 61.927 82.0919 61.726 82.0943 61.5188C82.0878 60.1792 81.8996 59.109 81.0331 58.0549C80.928 57.9689 80.823 57.8828 80.7147 57.7942C80.559 57.6613 80.559 57.6613 80.4002 57.5257C79.4612 56.9083 78.6584 56.7032 77.5426 56.7129C77.4167 56.712 77.2907 56.7111 77.1609 56.7102C76.7478 56.7081 76.3348 56.7095 75.9217 56.7112C75.6325 56.7109 75.3432 56.7104 75.054 56.7097C74.4491 56.709 73.8442 56.7101 73.2393 56.7124C72.4665 56.7152 71.6938 56.7136 70.9211 56.7106C70.3242 56.7088 69.7273 56.7094 69.1304 56.7107C68.8456 56.711 68.5608 56.7106 68.276 56.7095C67.8767 56.7082 67.4777 56.7101 67.0784 56.7129C66.9624 56.7119 66.8464 56.7109 66.7268 56.7098C65.3433 56.7274 64.167 57.231 63.2519 58.2715Z" fill="white"/>
<path d="M7.15331 53.7597C7.28625 53.7586 7.41919 53.7575 7.55616 53.7564C7.99481 53.7531 8.43346 53.7511 8.87212 53.7495C9.02272 53.7488 9.17333 53.7481 9.3285 53.7474C10.1263 53.744 10.924 53.7416 11.7218 53.74C12.5414 53.7382 13.361 53.7325 14.1805 53.7259C14.8145 53.7215 15.4484 53.7202 16.0824 53.7196C16.3843 53.7188 16.6861 53.7169 16.988 53.7138C19.5463 53.6891 21.6062 53.9855 23.5742 55.7812C25.3045 57.6481 25.6672 59.7605 25.655 62.2377C25.6562 62.4771 25.6576 62.7165 25.6593 62.9559C25.663 63.599 25.6626 64.242 25.6611 64.885C25.6602 65.4235 25.6615 65.962 25.6627 66.5005C25.6655 67.7701 25.6649 69.0398 25.6621 70.3095C25.6593 71.6178 25.6619 72.926 25.6673 74.2343C25.6717 75.3609 25.6729 76.4874 25.6715 77.614C25.6707 78.2855 25.6711 78.957 25.6745 79.6285C25.6775 80.2587 25.6765 80.8887 25.6725 81.5188C25.6716 81.7498 25.6722 81.9808 25.6743 82.2117C25.6887 83.9272 25.6887 83.9272 25.2882 84.7222C24.3769 85.1809 23.4446 85.1139 22.4429 85.1048C22.2067 85.1056 21.9705 85.1068 21.7343 85.1084C21.0939 85.1114 20.4536 85.1093 19.8132 85.106C19.1428 85.1033 18.4724 85.1048 17.802 85.1056C16.6765 85.1064 15.551 85.1037 14.4254 85.0991C13.1241 85.0938 11.8229 85.0938 10.5215 85.0966C9.26947 85.0993 8.01742 85.0981 6.76535 85.0953C6.23256 85.0942 5.69979 85.0943 5.167 85.0956C4.53974 85.0968 3.91257 85.0948 3.28532 85.0903C3.05511 85.0891 2.82488 85.0891 2.59466 85.0903C2.28051 85.0918 1.96636 85.0887 1.65222 85.0854C1.47639 85.085 1.30057 85.0845 1.11941 85.084C0.534199 84.976 0.34191 84.8201 1.08108e-05 84.3359C-0.0840193 83.8683 -0.0840193 83.8683 -0.0854314 83.3178C-0.0875439 83.1088 -0.0896563 82.8998 -0.0918328 82.6846C-0.0908064 82.4534 -0.0897097 82.2221 -0.0885498 81.9909C-0.0897216 81.7471 -0.0911734 81.5033 -0.0928841 81.2594C-0.0966233 80.597 -0.0961287 79.9346 -0.0946567 79.2722C-0.093808 78.7182 -0.0950195 78.1642 -0.0962292 77.6102C-0.0990535 76.3018 -0.098458 74.9934 -0.0956832 73.6849C-0.0928816 72.3386 -0.095492 70.9924 -0.100867 69.6462C-0.105313 68.4882 -0.106503 67.3302 -0.105098 66.1722C-0.104283 65.4816 -0.104629 64.7911 -0.108051 64.1005C-0.111121 63.4496 -0.110081 62.7989 -0.106025 62.1481C-0.1052 61.9106 -0.105755 61.6732 -0.107876 61.4358C-0.126988 59.1101 0.518457 57.3241 2.1206 55.6373C3.56115 54.2673 5.20393 53.7667 7.15331 53.7597ZM3.81837 58.2611C3.72934 58.3653 3.64032 58.4695 3.54859 58.5769C3.08267 59.3089 2.94674 60.0326 2.94836 60.8897C2.94791 61.0768 2.94745 61.264 2.94698 61.4568C2.94817 61.6597 2.94937 61.8626 2.9506 62.0716C2.95055 62.2871 2.9505 62.5026 2.95045 62.7246C2.95036 63.3135 2.9523 63.9024 2.95463 64.4912C2.95671 65.1074 2.9569 65.7236 2.95729 66.3398C2.95832 67.5057 2.96104 68.6715 2.96438 69.8374C2.96879 71.4136 2.97058 72.9897 2.97251 74.5658C2.97563 77.0478 2.98225 79.5297 2.98829 82.0117C9.45294 82.0117 15.9176 82.0117 22.5781 82.0117C22.5975 78.1533 22.5975 78.1533 22.6106 74.2949C22.6145 72.7209 22.6191 71.147 22.6282 69.5731C22.6349 68.4266 22.6391 67.2803 22.6406 66.1338C22.6415 65.5272 22.6435 64.9206 22.6483 64.314C22.6537 63.6356 22.6538 62.9573 22.6535 62.2789C22.6559 62.0794 22.6583 61.8798 22.6608 61.6742C22.6527 60.0285 22.2584 58.7818 21.084 57.6074C20.0703 56.8951 19.2178 56.7526 18.0048 56.7453C17.8795 56.7439 17.7541 56.7426 17.625 56.7412C17.2108 56.7371 16.7966 56.7343 16.3824 56.7319C16.2404 56.731 16.0984 56.7302 15.952 56.7293C15.1999 56.7248 14.4477 56.7216 13.6955 56.7192C13.0752 56.717 12.455 56.7124 11.8348 56.7056C11.0837 56.6974 10.3328 56.6933 9.58167 56.6921C9.29667 56.691 9.01168 56.6885 8.72671 56.6845C6.87351 56.66 5.09042 56.706 3.81837 58.2611Z" fill="white"/>
<path d="M36.9078 53.7408C37.0408 53.7397 37.1738 53.7386 37.3108 53.7375C37.7477 53.7343 38.1845 53.7337 38.6213 53.7333C38.9276 53.7322 39.2338 53.7311 39.54 53.7299C40.1812 53.728 40.8224 53.7273 41.4637 53.7275C42.2807 53.7276 43.0976 53.723 43.9145 53.7173C44.5471 53.7136 45.1796 53.713 45.8121 53.7131C46.1131 53.7127 46.414 53.7113 46.7149 53.7087C49.3452 53.6882 51.3973 54.0425 53.4142 55.8785C54.6463 57.1871 55.3006 58.8494 55.3076 60.6266C55.3094 60.9366 55.3094 60.9366 55.3112 61.2529C55.3117 61.4807 55.3122 61.7084 55.3126 61.9362C55.3136 62.177 55.3147 62.4178 55.3159 62.6587C55.3194 63.4479 55.3211 64.2371 55.3228 65.0262C55.3234 65.2982 55.3241 65.5702 55.3248 65.8422C55.328 67.1195 55.3303 68.3967 55.3317 69.6739C55.3334 71.1478 55.3377 72.6217 55.3444 74.0956C55.3494 75.2355 55.3519 76.3754 55.3524 77.5154C55.3528 78.196 55.3543 78.8766 55.3585 79.5572C55.3624 80.1971 55.3631 80.837 55.3614 81.4769C55.3613 81.7116 55.3623 81.9463 55.3646 82.181C55.3675 82.5016 55.366 82.8223 55.3642 83.1429C55.3646 83.3223 55.365 83.5016 55.3654 83.6864C55.2602 84.3056 55.0806 84.5762 54.6192 85C54.1608 85.1045 54.1608 85.1045 53.6236 85.1054C53.3177 85.1089 53.3177 85.1089 53.0057 85.1125C52.7802 85.1109 52.5548 85.1092 52.3293 85.1074C52.0915 85.1085 51.8537 85.11 51.6158 85.1118C50.9703 85.1156 50.3248 85.1141 49.6793 85.1115C49.0038 85.1094 48.3283 85.1114 47.6529 85.1127C46.5185 85.1142 45.3842 85.1122 44.2498 85.1082C42.9382 85.1037 41.6267 85.1052 40.3151 85.1097C39.1891 85.1135 38.0632 85.114 36.9372 85.1119C36.2647 85.1106 35.5922 85.1104 34.9196 85.1131C34.2873 85.1155 33.6551 85.1139 33.0228 85.1091C32.7907 85.108 32.5586 85.1083 32.3265 85.1101C32.0098 85.1124 31.6931 85.109 31.3764 85.1054C31.1992 85.1051 31.0219 85.1048 30.8393 85.1045C30.3809 85 30.3809 85 29.9919 84.6425C29.6717 84.0925 29.6334 83.7764 29.6325 83.1433C29.6297 82.8333 29.6297 82.8333 29.6268 82.5171C29.6281 82.2894 29.6295 82.0617 29.6309 81.834C29.63 81.5931 29.6288 81.3522 29.6274 81.1114C29.6243 80.4579 29.6255 79.8044 29.6276 79.1509C29.6293 78.4656 29.6277 77.7802 29.6267 77.0949C29.6255 75.943 29.6271 74.791 29.6302 73.6391C29.6338 72.3109 29.6327 70.9827 29.629 69.6544C29.626 68.5118 29.6256 67.3692 29.6273 66.2265C29.6283 65.5451 29.6285 64.8638 29.6263 64.1824C29.6244 63.5405 29.6257 62.8988 29.6295 62.2569C29.6304 62.0227 29.6302 61.7884 29.6287 61.5541C29.6159 59.3148 30.1223 57.4544 31.6779 55.7916C33.1432 54.4208 34.9067 53.7384 36.9078 53.7408ZM33.4113 58.431C32.6568 59.658 32.636 60.6687 32.6485 62.0905C32.6485 62.306 32.6484 62.5215 32.6483 62.7436C32.6482 63.3318 32.6511 63.9199 32.6546 64.5081C32.6577 65.1238 32.658 65.7395 32.6586 66.3553C32.6601 67.52 32.6642 68.6847 32.6692 69.8494C32.6758 71.4242 32.6785 72.999 32.6814 74.5737C32.6861 77.0531 32.696 79.5324 32.7051 82.0117C39.1697 82.0117 45.6344 82.0117 52.2949 82.0117C52.3191 78.1279 52.3191 78.1279 52.3355 74.244C52.3404 72.6595 52.3462 71.075 52.3576 69.4905C52.3658 68.3364 52.3712 67.1823 52.373 66.0281C52.3741 65.4175 52.3766 64.8069 52.3827 64.1963C52.3894 63.5132 52.3896 62.8302 52.3892 62.147C52.3922 61.9465 52.3951 61.746 52.3982 61.5394C52.3898 60.1501 52.1363 59.0023 51.1734 57.9543C50.1927 57.0297 49.145 56.7021 47.8159 56.7076C47.6253 56.7055 47.6253 56.7055 47.4309 56.7034C47.014 56.6995 46.5972 56.6993 46.1802 56.6995C45.8881 56.6983 45.596 56.6971 45.3038 56.6957C44.6925 56.6935 44.0812 56.6932 43.4698 56.6942C42.69 56.6952 41.9103 56.6901 41.1305 56.6834C40.5273 56.6791 39.9241 56.6786 39.3209 56.6792C39.0336 56.6789 38.7463 56.6773 38.459 56.6744C36.4453 56.6558 34.7739 56.7796 33.4113 58.431Z" fill="white"/>
<path d="M78.7433 33.3173C80.5537 34.8627 81.7864 36.9916 82.1777 39.3457C82.2299 40.1798 82.2327 41.0135 82.2335 41.8489C82.2346 42.0911 82.2357 42.3333 82.2369 42.5754C82.2388 43.0805 82.2395 43.5857 82.2393 44.0908C82.2392 44.7376 82.2438 45.3843 82.2495 46.0312C82.2532 46.5302 82.2539 47.0292 82.2537 47.5283C82.2541 47.7668 82.2555 48.0054 82.2581 48.2439C82.2614 48.5768 82.26 48.9097 82.2584 49.2426C82.2589 49.4318 82.2594 49.621 82.2598 49.8159C82.1593 50.4119 81.9868 50.602 81.5137 50.9668C80.941 51.1577 80.4919 51.1538 79.8879 51.1562C79.661 51.1592 79.4342 51.1625 79.2073 51.1659C78.8518 51.1707 78.4964 51.1743 78.1408 51.1744C76.728 51.1767 75.6746 51.225 74.541 52.1289C73.1919 52.6955 71.4904 52.6911 70.1312 52.16C69.7324 51.9796 69.3886 51.7927 69.0305 51.54C68.4503 51.2398 68.0383 51.2351 67.3868 51.2314C67.2757 51.2296 67.1646 51.2278 67.0502 51.2259C66.6972 51.2203 66.3443 51.2177 65.9912 51.2158C65.5259 51.2134 65.0609 51.2078 64.5957 51.2003C64.3897 51.1991 64.1837 51.1979 63.9715 51.1967C63.372 51.1275 63.0647 50.998 62.5879 50.6348C62.205 50.0605 62.2125 49.8371 62.2076 49.1596C62.2055 48.9583 62.2034 48.757 62.2012 48.5495C62.2009 48.3311 62.2005 48.1127 62.2001 47.8877C62.199 47.6599 62.1979 47.4321 62.1968 47.2043C62.1948 46.7253 62.1941 46.2464 62.1943 45.7674C62.1944 45.1607 62.1899 44.5542 62.1841 43.9475C62.1804 43.4757 62.1798 43.004 62.1799 42.5322C62.1794 42.202 62.1758 41.8719 62.1721 41.5417C62.187 38.5133 63.1364 35.9974 65.2688 33.8225C69.0637 30.1887 74.6243 30.2615 78.7433 33.3173ZM66.8317 36.5105C65.5554 38.208 65.1906 39.9812 65.2117 42.0487C65.2122 42.2236 65.2127 42.3986 65.2132 42.5789C65.215 43.1337 65.2192 43.6884 65.2234 44.2432C65.2251 44.621 65.2266 44.9989 65.2279 45.3767C65.2316 46.2994 65.2373 47.2219 65.2442 48.1445C65.7372 48.1445 66.2303 48.1445 66.7383 48.1445C66.7344 47.7939 66.7344 47.7939 66.7304 47.4362C66.7214 46.5702 66.7157 45.7042 66.7109 44.8382C66.7084 44.4632 66.705 44.0881 66.7007 43.7131C66.6947 43.1745 66.6919 42.6359 66.6897 42.0973C66.6871 41.9292 66.6845 41.7611 66.6819 41.5879C66.6818 41.4317 66.6818 41.2755 66.6818 41.1146C66.6801 40.9084 66.6801 40.9084 66.6784 40.6979C66.7538 40.2496 66.8728 40.1112 67.2363 39.8438C67.7447 39.6583 68.2326 39.6559 68.7703 39.6536C68.9438 39.6526 69.1172 39.6515 69.2959 39.6504C69.5755 39.6501 69.5755 39.6501 69.8608 39.6499C70.0532 39.6493 70.2456 39.6488 70.4438 39.6482C70.8506 39.6473 71.2574 39.647 71.6642 39.647C72.2865 39.6466 72.9087 39.6436 73.531 39.6405C73.9263 39.64 74.3215 39.6396 74.7168 39.6395C74.9029 39.6383 75.089 39.6371 75.2807 39.6359C75.5416 39.6366 75.5416 39.6366 75.8078 39.6374C76.0365 39.6371 76.0365 39.6371 76.2698 39.6367C76.7565 39.6832 77.0986 39.7775 77.5293 40.0098C77.8607 40.4791 77.9022 40.8694 77.899 41.435C77.899 41.5845 77.899 41.7341 77.899 41.8881C77.8972 42.0481 77.8955 42.2081 77.8938 42.3729C77.8933 42.5378 77.8928 42.7027 77.8923 42.8725C77.8905 43.3986 77.8863 43.9246 77.8821 44.4507C77.8804 44.8076 77.8789 45.1645 77.8776 45.5214C77.8739 46.3958 77.8683 47.2702 77.8613 48.1445C78.2996 48.1445 78.7379 48.1445 79.1895 48.1445C79.2107 46.9783 79.2251 45.8121 79.2351 44.6457C79.2392 44.2498 79.2449 43.8538 79.2521 43.458C79.3242 39.6435 79.3242 39.6435 77.5306 36.3568C76.0747 34.9093 74.3122 34.1319 72.2791 33.9917C70.1669 34.036 68.2695 34.9759 66.8317 36.5105ZM69.5606 42.5C69.5469 43.3286 69.5332 44.1573 69.5191 45.011C69.513 45.2706 69.507 45.5302 69.5007 45.7977C69.4991 46.0042 69.4974 46.2107 69.4957 46.4234C69.4922 46.6338 69.4888 46.8442 69.4852 47.061C69.5985 47.9408 70.0031 48.4427 70.65 49.0265C71.4048 49.5491 72.1569 49.581 73.0469 49.4727C73.8514 49.0704 74.667 48.3943 74.9778 47.517C75.0589 47.0295 75.0575 46.5609 75.0553 46.0668C75.0549 45.8797 75.0545 45.6926 75.054 45.4998C75.0525 45.2632 75.051 45.0265 75.0495 44.7827C75.046 44.0294 75.0426 43.2761 75.0391 42.5C73.2312 42.5 71.4233 42.5 69.5606 42.5Z" fill="white"/>
<path d="M37.753 31.0196C39.1816 30.9683 40.6346 31.1721 41.9086 31.8439C42.33 32.0915 42.33 32.0915 42.8009 31.9372C42.9755 31.8619 43.1502 31.7866 43.3301 31.709C45.8987 30.788 48.2934 30.8349 50.8066 31.9411C52.2447 32.718 53.2405 33.8204 53.7891 35.3613C54.1328 36.8302 53.9474 37.9934 53.291 39.3457C53.1459 39.5236 52.9999 39.7008 52.8533 39.8775C52.3073 40.6185 52.3878 41.3126 52.4402 42.1991C52.5133 44.9063 51.8187 47.2108 50.0018 49.2963C48.0837 51.2665 45.6443 52.459 42.8761 52.5325C39.812 52.5409 37.3797 51.5636 35.1311 49.4454C33.7768 47.9758 32.5514 45.8133 32.536 43.7543C32.5432 43.6152 32.5504 43.476 32.5579 43.3327C32.5629 43.1773 32.5679 43.0219 32.5731 42.8619C32.5849 42.5401 32.6 42.2184 32.6185 41.8969C32.6459 40.8164 32.4578 40.2037 31.7894 39.3488C31.1241 38.444 30.8969 37.2955 31.0449 36.1914C31.3718 34.4891 32.2125 33.3311 33.5968 32.3075C34.8808 31.5234 36.2619 31.114 37.753 31.0196ZM34.5312 35.5273C34.1552 36.0744 34.0298 36.3601 34.0436 37.0215C34.2849 37.7937 34.5471 38.3199 35.253 38.7569C36.7158 39.5065 38.1942 39.8252 39.8269 39.3807C40.4078 39.1522 40.9219 38.9036 41.4416 38.5571C42.019 38.2532 42.5361 38.2258 43.1641 38.3496C43.5575 38.5297 43.9158 38.7336 44.2808 38.9657C45.5288 39.6733 46.9527 39.721 48.3293 39.3859C49.4142 39.013 50.2064 38.6558 50.78 37.6233C50.9842 36.9655 51.0214 36.6734 50.8008 36.0254C50.1039 35.0005 49.2605 34.4513 48.0615 34.1577C46.7037 33.904 45.1866 33.961 43.9974 34.7491C43.9039 34.8245 43.8103 34.8998 43.714 34.9774C43.199 35.3818 42.8151 35.485 42.1615 35.4437C41.6808 35.3221 41.373 35.0555 40.9909 34.7491C39.0373 33.4067 36.1475 33.9032 34.5312 35.5273ZM41.5143 41.8152C40.3877 42.3132 39.4111 42.36 38.194 42.3547C38.0477 42.3554 37.9014 42.356 37.7507 42.3567C36.9907 42.3555 36.2751 42.3232 35.5273 42.168C35.3947 44.1573 36.076 45.8015 37.3535 47.3144C38.503 48.5479 40.1801 49.3785 41.856 49.5148C44.139 49.5923 45.9353 48.9316 47.6095 47.3715C48.8601 46.0223 49.527 44.2799 49.4843 42.4539C49.4805 42.3596 49.4766 42.2652 49.4727 42.168C49.341 42.1943 49.2094 42.2206 49.0738 42.2477C46.9664 42.5521 44.9859 42.4338 42.998 41.6699C42.3942 41.4486 42.0963 41.5551 41.5143 41.8152Z" fill="white"/>
<path d="M41.3022 -0.0670809C41.5981 -0.0702395 41.5981 -0.0702395 41.8999 -0.073462C42.1131 -0.0729746 42.3264 -0.0724873 42.546 -0.0719852C42.7649 -0.0728554 42.9837 -0.0737256 43.2091 -0.0746222C43.6723 -0.0761055 44.1355 -0.0757021 44.5987 -0.0740522C45.1918 -0.0721454 45.7847 -0.0754986 46.3778 -0.0803471C46.944 -0.0841287 47.5102 -0.0829859 48.0764 -0.0823611C48.3958 -0.0851587 48.3958 -0.0851587 48.7216 -0.0880127C48.9193 -0.0864553 49.1171 -0.0848979 49.3209 -0.0832933C49.4948 -0.0832658 49.6688 -0.0832382 49.8481 -0.0832098C50.4168 0.0208687 50.6083 0.220657 50.9668 0.664061C51.1985 1.12742 51.1548 1.50762 51.1561 2.02624C51.1566 2.13306 51.1571 2.23987 51.1576 2.34992C51.1591 2.70944 51.1593 3.06896 51.1596 3.42849C51.1603 3.68562 51.1612 3.94274 51.1621 4.19987C51.1642 4.89962 51.1653 5.59937 51.1661 6.29912C51.1665 6.73612 51.1672 7.17312 51.168 7.61012C51.1702 8.97689 51.1718 10.3437 51.1725 11.7104C51.1732 13.2891 51.1761 14.8677 51.1809 16.4464C51.1845 17.666 51.1862 18.8855 51.1864 20.1051C51.1866 20.8338 51.1876 21.5625 51.1905 22.2912C51.1933 22.9767 51.1936 23.6622 51.1922 24.3478C51.1921 24.5994 51.1928 24.8509 51.1944 25.1025C51.1965 25.4461 51.1956 25.7896 51.1938 26.1332C51.1942 26.4215 51.1942 26.4215 51.1946 26.7157C51.1251 27.2905 50.9809 27.5964 50.6348 28.0566C50.0716 28.4321 49.8704 28.4319 49.2095 28.4369C49.0194 28.439 48.8293 28.4411 48.6335 28.4433C48.3253 28.4439 48.3253 28.4439 48.0109 28.4444C47.6944 28.4461 47.6944 28.4461 47.3714 28.4478C46.9245 28.4495 46.4777 28.4504 46.0308 28.4502C45.4594 28.4502 44.888 28.4547 44.3165 28.4604C43.7703 28.465 43.224 28.4648 42.6777 28.4652C42.3705 28.4688 42.3705 28.4688 42.0572 28.4724C41.8661 28.4714 41.675 28.4704 41.4781 28.4693C41.2265 28.47 41.2265 28.47 40.9698 28.4708C40.3751 28.3651 40.0998 28.1509 39.6777 27.7246C39.4741 27.1603 39.4904 26.6046 39.4895 26.0094C39.4888 25.7931 39.4881 25.5769 39.4874 25.3541C39.4874 25.1148 39.4875 24.8755 39.4876 24.6362C39.4871 24.3839 39.4865 24.1316 39.4859 23.8794C39.4845 23.1944 39.4841 22.5094 39.484 21.8244C39.4838 21.2526 39.4832 20.6808 39.4826 20.109C39.4812 18.76 39.4808 17.411 39.481 16.062C39.4811 14.6702 39.4793 13.2785 39.4767 11.8868C39.4745 10.6919 39.4736 9.49699 39.4737 8.30209C39.4738 7.58843 39.4733 6.87478 39.4715 6.16113C39.4699 5.49002 39.4699 4.81894 39.4711 4.14783C39.4713 3.90162 39.4709 3.6554 39.4699 3.40919C39.4686 3.07292 39.4696 2.73665 39.4707 2.40038C39.4706 2.21225 39.4705 2.02411 39.4704 1.83028C39.5226 1.19569 39.6865 0.720478 40.0535 0.201334C40.472 -0.0909143 40.7949 -0.0644633 41.3022 -0.0670809ZM42.5 2.98828C42.5 10.3843 42.5 17.7803 42.5 25.4004C44.3627 25.4004 46.2254 25.4004 48.1445 25.4004C48.1445 18.0044 48.1445 10.6084 48.1445 2.98828C46.2818 2.98828 44.4191 2.98828 42.5 2.98828Z" fill="white"/>
<path d="M75.3354 5.59631C75.5326 5.59419 75.7299 5.59207 75.9331 5.58989C76.2529 5.58934 76.2529 5.58934 76.5793 5.58877C76.7981 5.58767 77.0169 5.58656 77.2423 5.58542C77.7055 5.58344 78.1687 5.58282 78.6319 5.58302C79.225 5.58305 79.8179 5.57852 80.411 5.5728C80.9772 5.56822 81.5434 5.56841 82.1096 5.56802C82.3225 5.56563 82.5354 5.56325 82.7548 5.56079C82.9525 5.56181 83.1503 5.56283 83.3541 5.56389C83.5281 5.56341 83.702 5.56294 83.8813 5.56245C84.464 5.66767 84.6309 5.85231 85 6.30861C85.084 6.71987 85.084 6.71987 85.0854 7.18961C85.0876 7.36812 85.0897 7.54664 85.0918 7.73056C85.0908 7.92557 85.0897 8.12058 85.0886 8.32151C85.0907 8.63055 85.0907 8.63055 85.0929 8.94583C85.096 9.51047 85.0961 10.075 85.0947 10.6396C85.0938 11.1112 85.095 11.5827 85.0962 12.0543C85.0991 13.1669 85.0985 14.2795 85.0957 15.3921C85.0929 16.5394 85.0955 17.6866 85.1009 18.834C85.1053 19.8195 85.1065 20.805 85.1051 21.7906C85.1043 22.379 85.1047 22.9673 85.1081 23.5557C85.1117 24.2119 85.1086 24.868 85.1048 25.5242C85.1077 25.8162 85.1077 25.8162 85.1107 26.1142C85.0954 27.4172 85.0954 27.4172 84.6387 28.0942C84.1081 28.4275 83.8274 28.4929 83.205 28.4935C83.0149 28.4955 82.8249 28.4976 82.6291 28.4998C82.3235 28.4965 82.3235 28.4965 82.0117 28.4931C81.8011 28.4935 81.5906 28.4939 81.3736 28.4943C80.9286 28.4941 80.4839 28.4924 80.039 28.4878C79.4701 28.4821 78.9015 28.4831 78.3325 28.4862C77.7881 28.4884 77.2437 28.4854 76.6992 28.4827C76.4955 28.4835 76.2918 28.4844 76.0819 28.4852C75.8918 28.4826 75.7018 28.48 75.506 28.4772C75.2559 28.4757 75.2559 28.4757 75.0008 28.4741C74.4178 28.3658 74.1364 28.1292 73.7109 27.7246C73.504 27.3107 73.5236 27.0326 73.5227 26.5693C73.522 26.3952 73.5213 26.2211 73.5206 26.0417C73.5207 25.8499 73.5207 25.6581 73.5208 25.4605C73.5203 25.2591 73.5197 25.0577 73.5191 24.8502C73.5178 24.2969 73.5173 23.7437 73.5172 23.1904C73.517 22.7287 73.5164 22.2671 73.5158 21.8054C73.5144 20.7162 73.514 19.627 73.5142 18.5378C73.5143 17.4139 73.5125 16.29 73.5099 15.1661C73.5077 14.2016 73.5068 13.2371 73.5069 12.2726C73.507 11.6963 73.5065 11.1201 73.5047 10.5439C73.5028 9.90115 73.5036 9.25845 73.5046 8.61572C73.5037 8.42458 73.5027 8.23345 73.5018 8.03652C73.5025 7.86147 73.5032 7.68643 73.5039 7.50608C73.5038 7.3541 73.5037 7.20211 73.5036 7.04551C73.5485 6.60598 73.6365 6.34572 73.877 5.97657C74.4475 5.59623 74.6635 5.6012 75.3354 5.59631ZM76.5332 8.63283C76.5332 14.1661 76.5332 19.6994 76.5332 25.4004C78.3411 25.4004 80.149 25.4004 82.0117 25.4004C82.0117 19.8671 82.0117 14.3338 82.0117 8.63283C80.2038 8.63283 78.3959 8.63283 76.5332 8.63283Z" fill="white"/>
<path d="M18.7598 34.3652C20.7574 35.8689 22.3091 38.2102 22.7033 40.7095C22.9802 43.8441 22.3484 46.8209 20.3058 49.2963C18.3937 51.2572 15.892 52.4708 13.1425 52.5241C10.1004 52.5171 7.63178 51.6194 5.43376 49.459C3.32592 47.2065 2.73679 44.5749 2.77621 41.5999C2.81399 40.4775 3.02757 39.5482 3.48632 38.5156C3.55287 38.362 3.61943 38.2083 3.688 38.05C4.96516 35.4364 7.12731 33.8551 9.80399 32.862C12.8122 31.8965 16.2159 32.5754 18.7598 34.3652ZM7.41557 37.8081C6.05271 39.6561 5.60664 41.5669 5.81054 43.8281C6.22309 45.7471 7.38146 47.3428 8.96483 48.4766C10.7217 49.4478 12.4834 49.7532 14.4758 49.3708C16.4577 48.7835 17.9181 47.584 18.955 45.8203C19.8798 44.0984 20.0117 42.2954 19.5068 40.4144C18.8581 38.5248 17.6658 37.1773 15.9375 36.1914C13.0279 34.7978 9.62998 35.4675 7.41557 37.8081Z" fill="white"/>
<path d="M24.3319 8.43476C24.5253 8.4321 24.7187 8.42943 24.9179 8.42668C25.8028 8.41932 26.6876 8.41241 27.5725 8.40866C28.0397 8.40645 28.5068 8.40182 28.9739 8.39504C29.6463 8.38528 30.3186 8.38232 30.9911 8.37988C31.2 8.37612 31.4089 8.37236 31.6242 8.36848C31.8192 8.36895 32.0141 8.36943 32.215 8.36991C32.3862 8.36857 32.5573 8.36723 32.7337 8.36584C33.4146 8.51226 33.636 8.72436 34.0332 9.29686C34.1536 9.88302 34.1466 10.4576 34.1406 11.0543C34.1421 11.2312 34.1435 11.4081 34.145 11.5904C34.1487 12.1748 34.1463 12.759 34.1434 13.3435C34.144 13.7497 34.1448 14.156 34.1459 14.5623C34.1471 15.4136 34.1453 16.2648 34.1414 17.1161C34.1367 18.2076 34.1394 19.2989 34.1444 20.3903C34.1474 21.2292 34.1464 22.068 34.1443 22.9069C34.1437 23.3093 34.1444 23.7118 34.1463 24.1142C34.1484 24.6766 34.1452 25.2388 34.1406 25.8011C34.1431 26.0509 34.1431 26.0509 34.1457 26.3056C34.1342 27.0599 34.1121 27.445 33.6729 28.0769C33.1349 28.4339 32.8608 28.4928 32.2203 28.4934C31.9294 28.4966 31.9294 28.4966 31.6327 28.4997C31.4248 28.4975 31.217 28.4953 31.0028 28.4931C30.6808 28.4937 30.6808 28.4937 30.3523 28.4943C29.8989 28.4948 29.4456 28.4923 28.9921 28.4878C28.4117 28.4821 27.8315 28.4831 27.251 28.4862C26.6962 28.4884 26.1414 28.4854 25.5865 28.4827C25.3783 28.4835 25.1701 28.4843 24.9555 28.4852C24.6655 28.4812 24.6655 28.4812 24.3696 28.4772C24.1995 28.4762 24.0295 28.4752 23.8543 28.4741C23.2933 28.3666 23.0996 28.1619 22.7441 27.7246C22.5503 27.3369 22.5564 27.1094 22.5548 26.6775C22.5539 26.5274 22.5529 26.3773 22.5519 26.2226C22.5518 26.0575 22.5516 25.8923 22.5514 25.7222C22.5505 25.5486 22.5497 25.375 22.5489 25.1961C22.5464 24.6198 22.5453 24.0435 22.5444 23.4672C22.5434 23.0677 22.5425 22.6682 22.5415 22.2686C22.5398 21.43 22.5388 20.5914 22.5382 19.7527C22.5373 18.6775 22.5333 17.6023 22.5286 16.5271C22.5255 15.7015 22.5247 14.8759 22.5244 14.0502C22.5239 13.6538 22.5226 13.2574 22.5204 12.861C22.5176 12.3065 22.5179 11.7522 22.5189 11.1977C22.5174 11.0336 22.5159 10.8694 22.5143 10.7003C22.5193 9.88127 22.5251 9.28925 23.0762 8.6328C23.5124 8.41471 23.8434 8.44087 24.3319 8.43476ZM25.5664 11.4551C25.5664 16.057 25.5664 20.659 25.5664 25.4004C27.3743 25.4004 29.1822 25.4004 31.0449 25.4004C31.0449 20.7984 31.0449 16.1965 31.0449 11.4551C29.237 11.4551 27.4291 11.4551 25.5664 11.4551Z" fill="white"/>
<path d="M58.4216 11.1817C58.615 11.179 58.8083 11.1764 59.0075 11.1737C59.2149 11.1754 59.4223 11.1771 59.6359 11.1788C59.8502 11.178 60.0645 11.1772 60.2852 11.1764C60.7379 11.1752 61.1905 11.177 61.6433 11.1809C62.2222 11.1856 62.8009 11.1829 63.3799 11.1779C63.9339 11.1742 64.4878 11.1768 65.0418 11.1788C65.2492 11.1771 65.4565 11.1755 65.6702 11.1737C65.9602 11.1777 65.9602 11.1777 66.2561 11.1817C66.4258 11.1823 66.5954 11.183 66.7702 11.1837C67.4361 11.3342 67.6694 11.5664 68.0664 12.1192C68.1838 12.6199 68.18 13.105 68.1738 13.6175C68.1753 13.7669 68.1767 13.9163 68.1782 14.0702C68.1819 14.563 68.1795 15.0556 68.1766 15.5484C68.1772 15.8914 68.178 16.2344 68.1791 16.5774C68.1803 17.2958 68.1785 18.0142 68.1746 18.7326C68.1699 19.6532 68.1726 20.5737 68.1776 21.4943C68.1806 22.2024 68.1796 22.9105 68.1775 23.6186C68.1769 23.958 68.1776 24.2975 68.1795 24.6369C68.1816 25.1115 68.1784 25.5857 68.1738 26.0602C68.1763 26.2704 68.1763 26.2704 68.1789 26.4847C68.1664 27.1786 68.1218 27.4815 67.7059 28.0606C67.168 28.4364 66.906 28.4936 66.2561 28.4961C66.0628 28.4987 65.8694 28.5013 65.6702 28.504C65.4628 28.5023 65.2555 28.5007 65.0418 28.4989C64.7204 28.5001 64.7204 28.5001 64.3925 28.5013C63.9398 28.5026 63.4872 28.5008 63.0345 28.4969C62.4555 28.4922 61.8768 28.4949 61.2979 28.4999C60.7439 28.5036 60.1899 28.501 59.6359 28.4989C59.3249 28.5014 59.3249 28.5014 59.0075 28.504C58.8142 28.5014 58.6208 28.4988 58.4216 28.4961C58.1671 28.4951 58.1671 28.4951 57.9075 28.4941C57.2416 28.3435 57.0083 28.1114 56.6113 27.5586C56.494 27.0579 56.4978 26.5728 56.5039 26.0602C56.5017 25.8362 56.5017 25.8362 56.4995 25.6076C56.4959 25.1148 56.4983 24.6222 56.5011 24.1293C56.5005 23.7864 56.4997 23.4434 56.4987 23.1004C56.4975 22.3819 56.4992 21.6636 56.5031 20.9451C56.5078 20.0245 56.5051 19.1041 56.5001 18.1835C56.4971 17.4754 56.4981 16.7673 56.5002 16.0591C56.5008 15.7197 56.5001 15.3803 56.4982 15.0409C56.4961 14.5663 56.4993 14.0921 56.5039 13.6175C56.5022 13.4774 56.5006 13.3373 56.4988 13.193C56.5113 12.4992 56.5559 12.1963 56.9718 11.6172C57.5097 11.2413 57.7717 11.1842 58.4216 11.1817ZM59.5996 14.2774C59.5996 17.948 59.5996 21.6186 59.5996 25.4004C61.4075 25.4004 63.2154 25.4004 65.0781 25.4004C65.0781 21.7298 65.0781 18.0592 65.0781 14.2774C63.2702 14.2774 61.4623 14.2774 59.5996 14.2774Z" fill="white"/>
<path d="M8.4668 25.4004C12.247 25.4004 16.0271 25.4004 19.9219 25.4004C19.9219 26.3865 19.9219 27.3727 19.9219 28.3887C16.1417 28.3887 12.3615 28.3887 8.4668 28.3887C8.4668 27.4025 8.4668 26.4164 8.4668 25.4004Z" fill="white"/>
<path d="M8.4668 19.7559C12.247 19.7559 16.0271 19.7559 19.9219 19.7559C19.9219 20.742 19.9219 21.7281 19.9219 22.7441C16.1417 22.7441 12.3615 22.7441 8.4668 22.7441C8.4668 21.758 8.4668 20.7719 8.4668 19.7559Z" fill="white"/>
<path d="M8.4668 14.1113C12.247 14.1113 16.0271 14.1113 19.9219 14.1113C19.9219 15.0975 19.9219 16.0836 19.9219 17.0996C16.1417 17.0996 12.3615 17.0996 8.4668 17.0996C8.4668 16.1135 8.4668 15.1273 8.4668 14.1113Z" fill="white"/>
<path d="M8.4668 8.4668C12.247 8.4668 16.0271 8.4668 19.9219 8.4668C19.9219 9.45293 19.9219 10.4391 19.9219 11.4551C16.1417 11.4551 12.3615 11.4551 8.4668 11.4551C8.4668 10.4689 8.4668 9.48281 8.4668 8.4668Z" fill="white"/>
<path d="M0 25.4004C1.91748 25.4004 3.83496 25.4004 5.81055 25.4004C5.81055 26.3865 5.81055 27.3727 5.81055 28.3887C3.89307 28.3887 1.97559 28.3887 0 28.3887C0 27.4025 0 26.4164 0 25.4004Z" fill="white"/>
<path d="M0 19.7559C1.91748 19.7559 3.83496 19.7559 5.81055 19.7559C5.81055 20.742 5.81055 21.7281 5.81055 22.7441C3.89307 22.7441 1.97559 22.7441 0 22.7441C0 21.758 0 20.7719 0 19.7559Z" fill="white"/>
<path d="M0 14.1113C1.91748 14.1113 3.83496 14.1113 5.81055 14.1113C5.81055 15.0975 5.81055 16.0836 5.81055 17.0996C3.89307 17.0996 1.97559 17.0996 0 17.0996C0 16.1135 0 15.1273 0 14.1113Z" fill="white"/>
<path d="M0 8.4668C1.91748 8.4668 3.83496 8.4668 5.81055 8.4668C5.81055 9.45293 5.81055 10.4391 5.81055 11.4551C3.89307 11.4551 1.97559 11.4551 0 11.4551C0 10.4689 0 9.48281 0 8.4668Z" fill="white"/>
</g>
<defs>
<clipPath id="clip0_1036_725">
<rect width="85" height="85" fill="white"/>
</clipPath>
</defs>
</svg>
