<svg width="96" height="96" viewBox="0 0 96 96" fill="none" xmlns="http://www.w3.org/2000/svg">
<path d="M77.1211 10.3711C79.1411 11.8967 80.4238 13.6335 81 16.1251C81.0671 16.7762 81.0663 17.4178 81.0549 18.0718C81.0541 18.2481 81.0533 18.4244 81.0525 18.6061C81.0494 19.1619 81.0424 19.7177 81.0352 20.2735C81.0323 20.6534 81.0298 21.0333 81.0275 21.4131C81.0213 22.338 81.0116 23.2628 81 24.1876C81.1766 24.2141 81.3531 24.2407 81.535 24.2681C82.7437 24.4872 83.6936 25.2785 84.4453 26.2266C85.582 27.9127 85.6786 29.523 85.5 31.5001C85.1959 32.7115 84.4506 33.7629 83.625 34.6876C83.5013 34.7494 83.3775 34.8113 83.25 34.8751C83.448 35.2823 83.6554 35.6778 83.8814 36.0704C83.9747 36.2328 84.0679 36.3952 84.1641 36.5626C84.2564 36.7211 84.3487 36.8797 84.4439 37.043C85.4965 39.2591 85.617 41.216 85.6128 43.6253C85.6143 43.9796 85.6159 44.3338 85.6177 44.6881C85.6205 45.4267 85.6204 46.1653 85.6184 46.9039C85.6162 47.8471 85.6226 48.7901 85.6313 49.7332C85.6368 50.4634 85.6371 51.1935 85.636 51.9236C85.6361 52.2713 85.6381 52.619 85.6419 52.9666C85.6732 56.2323 85.6732 56.2323 84.6747 57.461C83.8081 58.2969 83.2031 58.5377 81.9866 58.5169C81.8016 58.5145 81.6166 58.512 81.426 58.5095C81.2152 58.5048 81.2152 58.5048 81 58.5001C81.0382 58.6895 81.0382 58.6895 81.0771 58.8827C81.3262 60.1196 81.5731 61.3569 81.8189 62.5945C81.919 63.0948 82.0213 63.5947 82.125 64.0943C82.7465 67.1398 82.7465 67.1398 82.5 68.2501C82.2525 68.4976 82.005 68.7451 81.75 69.0001C81.0075 69.0001 80.265 69.0001 79.5 69.0001C79.5 73.9501 79.5 78.9001 79.5 84.0001C80.4281 84.0001 81.3563 84.0001 82.3125 84.0001C83.5789 84.4222 84.3682 85.1517 85.125 86.2501C85.6618 87.3745 85.569 88.5078 85.5703 89.7305C85.5749 89.9615 85.5795 90.1924 85.5842 90.4304C85.585 90.6521 85.5857 90.8739 85.5864 91.1023C85.588 91.3045 85.5895 91.5067 85.5911 91.7151C85.4759 92.3914 85.2797 92.5746 84.75 93.0001C84.2738 93.0965 84.2738 93.0965 83.7308 93.1001C83.5266 93.103 83.3225 93.106 83.1122 93.1091C82.8923 93.1081 82.6724 93.1072 82.4458 93.1063C82.2183 93.1074 81.9907 93.1086 81.7563 93.1098C81.2743 93.1111 80.7923 93.1105 80.3103 93.1081C79.5769 93.1055 78.844 93.1119 78.1106 93.1191C77.6416 93.1192 77.1726 93.1189 76.7036 93.118C76.486 93.1205 76.2683 93.1229 76.0441 93.1255C74.7598 93.111 73.8674 92.9219 72.7561 92.2646C72.3606 92.0182 72.3606 92.0182 71.7891 92.0508C71.2166 92.2433 71.2166 92.2433 70.6174 92.6313C69.5584 93.1624 68.4958 93.1077 67.333 93.0997C67.1039 93.1004 66.8747 93.1011 66.6386 93.1018C66.1564 93.1023 65.6742 93.101 65.192 93.0978C64.4529 93.0938 63.7142 93.0978 62.9751 93.1026C62.5059 93.1021 62.0366 93.1011 61.5674 93.0997C61.3463 93.1012 61.1252 93.1027 60.8974 93.1043C60.5894 93.1007 60.5894 93.1007 60.2752 93.0971C60.0949 93.0965 59.9145 93.0959 59.7287 93.0953C59.1102 92.9722 58.886 92.7394 58.5 92.2501C58.403 91.724 58.403 91.724 58.4004 91.1221C58.3994 90.9029 58.3985 90.6837 58.3975 90.4578C58.4004 90.2294 58.4033 90.001 58.4063 89.7657C58.4034 89.5402 58.4005 89.3147 58.3975 89.0823C58.4043 87.5269 58.5834 86.4483 59.6184 85.2671C59.8015 85.1156 59.8015 85.1156 59.9883 84.961C60.1099 84.8571 60.2314 84.7531 60.3567 84.646C61.7565 83.6815 62.6144 84.0001 64.5 84.0001C64.5 79.0501 64.5 74.1001 64.5 69.0001C63.7575 69.0001 63.015 69.0001 62.25 69.0001C61.5 68.2501 61.5 68.2501 61.4041 67.8542C61.4389 66.0487 61.8034 64.2988 62.1445 62.5313C62.2063 62.2022 62.268 61.8731 62.3295 61.544C62.7768 59.1697 62.7768 59.1697 63 58.5001C62.8707 58.5131 62.7414 58.5262 62.6082 58.5396C61.3775 58.6105 60.6346 58.4492 59.6199 57.7493C58.7784 56.8978 58.4173 56.0823 58.3963 54.9072C58.3975 54.7655 58.3987 54.6239 58.4 54.478C58.3976 54.2485 58.3976 54.2485 58.3951 54.0145C58.3909 53.5116 58.3921 53.0088 58.3938 52.5059C58.3928 52.153 58.3916 51.8001 58.3903 51.4472C58.3883 50.7077 58.3892 49.9682 58.3919 49.2287C58.3951 48.2883 58.3908 47.3482 58.3842 46.4079C58.38 45.6785 58.3803 44.9491 58.3819 44.2197C58.382 43.8735 58.3808 43.5273 58.378 43.1811C58.3585 40.3268 58.6708 37.9211 60.4959 35.598C60.7869 35.2714 60.7869 35.2714 60.75 34.8751C60.5528 34.7358 60.5528 34.7358 60.3516 34.5938C59.4666 33.8243 58.6897 32.6805 58.5 31.5001C58.3594 29.4118 58.4228 27.6499 59.7422 25.9219C60.4424 25.17 61.316 24.6083 62.25 24.1876C62.4975 24.1876 62.745 24.1876 63 24.1876C62.9961 23.9551 62.9922 23.7226 62.9881 23.4831C62.9744 22.6109 62.9659 21.7388 62.9588 20.8665C62.9551 20.4908 62.95 20.1151 62.9434 19.7395C62.8855 16.3246 63.2833 13.8841 65.6836 11.2969C68.739 8.40522 73.6365 8.05852 77.1211 10.3711ZM67.3125 14.2501C66.1534 15.8103 65.9283 17.601 66 19.5001C67.8084 19.5609 69.414 19.5563 70.875 18.3751C71.2747 17.9889 71.6655 17.5966 72.0498 17.1951C72.5278 16.7246 72.7446 16.6883 73.4297 16.5938C74.3291 16.6052 74.7575 17.017 75.3853 17.6214C75.6256 17.8709 75.8649 18.1213 76.103 18.3729C76.8903 19.2349 76.8903 19.2349 78 19.5001C78.0838 17.2808 77.7004 15.4273 76.2004 13.722C75.0013 12.5909 73.6291 12.1469 72 12.0938C70.0718 12.1586 68.6014 12.8004 67.3125 14.2501ZM72.457 21.0586C70.8656 22.1857 69.4277 22.4055 67.5 22.5001C67.4371 24.2312 67.6345 25.8358 68.8125 27.1876C70.1708 28.2567 71.4185 28.4624 73.125 28.3126C74.387 27.979 75.1924 27.0953 75.9375 26.0626C76.2882 25.3931 76.4119 24.7491 76.5 24.0001C76.5276 23.8816 76.5551 23.7632 76.5835 23.6412C76.6517 23.1882 76.6606 22.9326 76.5 22.5001C76.0141 22.0954 75.5168 21.7975 74.9619 21.4952C74.4466 21.1929 74.1031 20.8605 73.6875 20.4376C73.1365 20.4376 72.8929 20.7292 72.457 21.0586ZM78.9375 27.0001C78.8536 27.1402 78.7698 27.2804 78.6834 27.4249C78.57 27.6095 78.4566 27.7942 78.3399 27.9844C78.2289 28.1672 78.118 28.3499 78.0037 28.5381C77.6158 29.0753 77.2014 29.4021 76.6875 29.8126C76.5801 30.5494 76.6415 31.0727 77.0625 31.6876C77.5588 31.9288 77.5588 31.9288 78.1406 32.086C78.333 32.1445 78.5254 32.203 78.7236 32.2632C78.918 32.3208 79.1123 32.3783 79.3125 32.4376C79.6091 32.5499 79.6091 32.5499 79.9116 32.6646C80.4597 32.8813 80.4597 32.8813 81.0234 32.5313C81.7238 31.9223 82.233 31.4357 82.3843 30.4878C82.4323 29.4221 82.3006 28.7533 81.5625 27.9376C80.6958 27.2087 80.0327 27.0756 78.9375 27.0001ZM62.5005 27.8372C61.751 28.7336 61.6208 29.324 61.6355 30.4615C61.7413 31.4297 62.2701 31.917 62.9766 32.5313C63.5403 32.8813 63.5403 32.8813 64.0884 32.6646C64.2861 32.5897 64.4838 32.5148 64.6875 32.4376C64.8818 32.38 65.0762 32.3225 65.2764 32.2632C65.4688 32.2047 65.6612 32.1463 65.8594 32.086C66.0537 32.0285 66.248 31.9709 66.4483 31.9117C66.9484 31.7299 66.9484 31.7299 67.1924 31.3462C67.3377 30.8518 67.3856 30.513 67.3125 30.0001C67.0149 29.5694 67.0149 29.5694 66.6094 29.1797C65.9564 28.4885 65.4939 27.8448 65.0625 27.0001C64.1498 27.0001 63.1989 27.2224 62.5005 27.8372ZM70.3125 31.5001C70.1888 31.7669 70.065 32.0337 69.9375 32.3086C69.8679 32.4587 69.7983 32.6088 69.7266 32.7635C69.5287 33.1992 69.5287 33.1992 69.5625 33.7501C70.8058 34.4282 72.1859 34.5867 73.5615 34.1851C73.9546 34.0241 73.9546 34.0241 74.4375 33.7501C74.2305 32.8617 74.2305 32.8617 73.6875 31.5001C72.5738 31.5001 71.46 31.5001 70.3125 31.5001ZM63.6094 36.7735C61.2456 39.3161 61.4462 42.661 61.4766 45.8907C61.4785 46.2418 61.4802 46.5928 61.4817 46.9439C61.4858 47.796 61.4922 48.648 61.5 49.5001C62.49 49.5001 63.48 49.5001 64.5 49.5001C64.5832 47.3554 64.3123 45.5733 63.75 43.5118C63.6774 43.2356 63.6052 42.9594 63.5332 42.683C63.3591 42.0169 63.1808 41.3519 63 40.6876C64 40.5626 65 40.4376 66 40.3126C66.8976 43.1049 67.4458 45.7608 67.4297 48.6871C67.4296 48.9014 67.4296 48.9014 67.4295 49.1202C67.4153 52.4595 66.8443 55.6625 66.1826 58.9254C66.0311 59.6792 65.8865 60.4344 65.7415 61.1895C65.5787 62.0354 65.4153 62.8812 65.2466 63.726C65.2216 63.8517 65.1966 63.9773 65.1708 64.1068C65.1034 64.4446 65.0355 64.7823 64.9675 65.12C64.8637 65.601 64.8637 65.601 64.875 66.0001C69.5775 66.0001 74.28 66.0001 79.125 66.0001C78.6327 63.1444 78.1453 60.3265 77.5712 57.4941C76.3809 51.5263 76.1216 46.1562 78 40.3126C79.5 40.5001 79.5 40.5001 81 40.6876C80.9318 40.9381 80.9318 40.9381 80.8623 41.1937C80.6918 41.8273 80.5245 42.4616 80.3591 43.0965C80.2876 43.3687 80.2149 43.6405 80.1409 43.9119C79.6181 45.8329 79.4226 47.5053 79.5 49.5001C80.49 49.5001 81.48 49.5001 82.5 49.5001C82.5094 48.4731 82.5161 47.4463 82.5206 46.4193C82.5225 46.0709 82.525 45.7225 82.5283 45.3741C82.5753 40.6736 82.5753 40.6736 80.2969 36.668C79.5066 35.9344 78.6109 35.4828 77.625 35.0626C77.5385 35.1329 77.452 35.2032 77.3628 35.2757C75.1607 37.0035 73.085 37.5861 70.3125 37.3126C68.9134 36.9716 67.8662 36.324 66.8482 35.3167C65.9876 34.5511 64.2837 36.1595 63.6094 36.7735ZM61.5 52.5001C61.4899 52.8633 61.4826 53.2266 61.4766 53.5899C61.4722 53.7922 61.4679 53.9945 61.4634 54.2029C61.4568 54.7864 61.4568 54.7864 61.875 55.3126C62.3386 55.248 62.3386 55.248 62.8125 55.1251C63.0717 54.6067 63.0179 54.1789 63.0117 53.6016C63.01 53.3962 63.0083 53.1907 63.0066 52.9791C63.0044 52.821 63.0023 52.6629 63 52.5001C62.505 52.5001 62.01 52.5001 61.5 52.5001ZM81 52.5001C80.9899 52.8633 80.9826 53.2266 80.9766 53.5899C80.9722 53.7922 80.9679 53.9945 80.9634 54.2029C80.9568 54.7864 80.9568 54.7864 81.375 55.3126C81.8386 55.248 81.8386 55.248 82.3125 55.1251C82.5717 54.6067 82.5179 54.1789 82.5117 53.6016C82.51 53.3962 82.5083 53.1907 82.5066 52.9791C82.5044 52.821 82.5023 52.6629 82.5 52.5001C82.005 52.5001 81.51 52.5001 81 52.5001ZM67.5 69.0001C67.5 73.9501 67.5 78.9001 67.5 84.0001C68.49 84.0001 69.48 84.0001 70.5 84.0001C70.5 79.0501 70.5 74.1001 70.5 69.0001C69.51 69.0001 68.52 69.0001 67.5 69.0001ZM73.5 69.0001C73.5 73.9501 73.5 78.9001 73.5 84.0001C74.49 84.0001 75.48 84.0001 76.5 84.0001C76.5 79.0501 76.5 74.1001 76.5 69.0001C75.51 69.0001 74.52 69.0001 73.5 69.0001ZM61.875 87.5626C61.5122 88.1397 61.4859 88.6192 61.4927 89.283C61.4951 89.5196 61.4975 89.7563 61.5 90.0001C62.4804 90.0234 63.4606 90.0403 64.4411 90.0516C64.7739 90.0562 65.1067 90.0626 65.4394 90.0708C68.0989 90.1363 68.0989 90.1363 70.5 89.0626C70.5 88.3819 70.5 87.7013 70.5 87.0001C69.4525 86.9861 68.405 86.9759 67.3575 86.9692C67.0014 86.9663 66.6453 86.9625 66.2892 86.9576C65.7763 86.9508 65.2635 86.9476 64.7505 86.9451C64.5923 86.9422 64.434 86.9393 64.271 86.9363C63.3322 86.9361 62.6871 87.0374 61.875 87.5626ZM73.5 87.0001C73.5 87.6807 73.5 88.3613 73.5 89.0626C75.297 90.2438 76.9849 90.1095 79.0547 90.0586C79.3894 90.0539 79.7241 90.0497 80.0588 90.0458C80.8727 90.0356 81.6863 90.0194 82.5 90.0001C82.5069 89.6484 82.5069 89.6484 82.5139 89.2896C82.5165 89.1577 82.5191 89.0258 82.5218 88.89C82.4874 88.2745 82.284 87.8769 81.9375 87.3751C81.0836 86.8919 80.2197 86.9519 79.2678 86.9634C79.1027 86.964 78.9375 86.9645 78.7674 86.965C78.242 86.9671 77.7167 86.9718 77.1914 86.9766C76.8344 86.9785 76.4773 86.9802 76.1202 86.9817C75.2468 86.9859 74.3734 86.9923 73.5 87.0001Z" fill="white"/>
<path d="M29.1211 8.87115C31.1045 10.369 32.5032 12.1429 33 14.6251C33.0708 15.4606 33.089 16.2901 33.0836 17.1286C33.082 17.5113 33.0875 17.8935 33.0934 18.2762C33.0932 18.6405 33.0932 18.6405 33.093 19.0123C33.0933 19.2321 33.0937 19.4519 33.0941 19.6783C33 20.2501 33 20.2501 32.666 20.7024C32.25 21.0001 32.25 21.0001 31.5 21.0001C31.5087 21.2084 31.5174 21.4167 31.5264 21.6314C31.598 24.0619 31.1895 25.8125 29.625 27.7501C29.451 27.8777 29.2769 28.0053 29.0976 28.1368C28.624 28.5563 28.6113 28.6912 28.5351 29.2969C28.5177 29.645 28.5177 29.645 28.5 30.0001C28.6136 30.0184 28.7272 30.0368 28.8442 30.0557C31.3419 30.5015 33.1464 31.5063 34.875 33.3751C34.9651 33.4686 35.0553 33.5621 35.1482 33.6585C36.8646 35.5226 37.5855 37.8847 37.5817 40.3793C37.5836 40.5634 37.5855 40.7475 37.5874 40.9371C37.5927 41.5398 37.5939 42.1423 37.5945 42.7449C37.5963 43.167 37.5982 43.5891 37.6001 44.0111C37.6035 44.8932 37.6046 45.7753 37.6042 46.6574C37.6042 47.7851 37.6119 48.9127 37.6215 50.0403C37.6278 50.9111 37.6289 51.7817 37.6286 52.6525C37.6293 53.0682 37.6318 53.4839 37.6361 53.8996C37.6417 54.4816 37.64 55.0631 37.6366 55.6451C37.6398 55.8149 37.643 55.9848 37.6462 56.1597C37.6274 57.4362 37.224 58.2951 36.375 59.2501C35.2924 60.1136 34.4296 60.0001 33 60.0001C33 67.9201 33 75.84 33 84.0001C33.4331 84.0001 33.8662 84.0001 34.3125 84.0001C35.5473 84.3352 36.4149 85.2194 37.125 86.2501C37.6617 87.3745 37.569 88.5078 37.5703 89.7305C37.5749 89.9615 37.5795 90.1924 37.5842 90.4304C37.5849 90.6521 37.5857 90.8739 37.5864 91.1023C37.588 91.3045 37.5895 91.5067 37.5911 91.7151C37.4759 92.3914 37.2797 92.5746 36.75 93.0001C36.2738 93.0965 36.2738 93.0965 35.7307 93.1001C35.5266 93.103 35.3225 93.106 35.1122 93.1091C34.8923 93.1081 34.6724 93.1072 34.4458 93.1063C34.2182 93.1074 33.9907 93.1086 33.7562 93.1098C33.2743 93.1111 32.7923 93.1105 32.3103 93.1081C31.5769 93.1055 30.844 93.1119 30.1106 93.1191C29.6416 93.1192 29.1726 93.1189 28.7036 93.118C28.486 93.1205 28.2683 93.1229 28.0441 93.1255C26.7597 93.111 25.8673 92.9219 24.7561 92.2646C24.3606 92.0182 24.3606 92.0182 23.789 92.0508C23.2166 92.2433 23.2166 92.2433 22.6174 92.6313C21.5583 93.1624 20.4958 93.1077 19.333 93.0997C19.1038 93.1004 18.8747 93.1011 18.6386 93.1018C18.1564 93.1023 17.6741 93.101 17.1919 93.0978C16.4529 93.0938 15.7141 93.0978 14.9751 93.1026C14.5058 93.1021 14.0366 93.1011 13.5674 93.0997C13.3463 93.1012 13.1252 93.1027 12.8974 93.1043C12.5894 93.1007 12.5894 93.1007 12.2752 93.0971C12.0949 93.0965 11.9145 93.0959 11.7287 93.0953C11.1102 92.9722 10.886 92.7394 10.5 92.2501C10.4029 91.724 10.4029 91.724 10.4004 91.1221C10.3994 90.9029 10.3984 90.6837 10.3974 90.4578C10.4003 90.2294 10.4032 90.001 10.4062 89.7657C10.4033 89.5402 10.4004 89.3147 10.3974 89.0823C10.4043 87.5269 10.5834 86.4483 11.6184 85.2671C12.8209 84.2718 13.3708 84.0001 15 84.0001C15 76.0801 15 68.1601 15 60.0001C14.3812 60.0001 13.7625 60.0001 13.125 60.0001C11.9281 59.5952 11.4085 59.0906 10.7352 58.0386C10.3457 57.2503 10.3442 56.5263 10.3574 55.66C10.3557 55.4777 10.3541 55.2955 10.3523 55.1077C10.3484 54.5093 10.3525 53.9114 10.3572 53.313C10.3569 52.8934 10.3562 52.4738 10.3552 52.0541C10.3544 51.1756 10.3576 50.2972 10.3636 49.4187C10.3711 48.2997 10.3693 47.1809 10.3647 46.0619C10.362 45.1951 10.3639 44.3284 10.3672 43.4617C10.3683 43.0495 10.3681 42.6374 10.3665 42.2252C10.358 38.9759 10.6268 36.3625 12.75 33.7501C12.8675 33.5939 12.9849 33.4378 13.1059 33.2769C14.7044 31.3932 17.1006 30.3488 19.5 30.0001C19.4815 29.455 19.4615 29.0182 19.3125 28.5001C18.8543 28.0672 18.8543 28.0672 18.5039 27.824C17.4541 26.9565 16.7162 25.52 16.5 24.1876C16.4402 23.1253 16.467 22.0628 16.5 21.0001C16.3221 20.9807 16.1442 20.9614 15.9609 20.9415C15.375 20.8126 15.375 20.8126 15 20.2501C14.9227 19.4773 14.9303 18.7043 14.9305 17.928C14.9297 17.5502 14.9228 17.1725 14.9158 16.7949C14.9073 13.9419 15.7504 11.8806 17.6836 9.79693C20.739 6.90522 25.6365 6.55852 29.1211 8.87115ZM19.3125 12.7501C18.1533 14.3103 17.9283 16.101 18 18.0001C19.8083 18.0609 21.414 18.0563 22.875 16.8751C23.2747 16.4889 23.6654 16.0966 24.0498 15.6951C24.5278 15.2246 24.7446 15.1883 25.4297 15.0938C26.3291 15.1052 26.7575 15.517 27.3852 16.1214C27.6255 16.3709 27.8648 16.6213 28.103 16.8729C28.8902 17.7349 28.8902 17.7349 30 18.0001C30.0837 15.7808 29.7004 13.9273 28.2004 12.222C27.0013 11.0909 25.6291 10.6469 24 10.5938C22.0718 10.6586 20.6014 11.3004 19.3125 12.7501ZM24.457 19.5586C22.8656 20.6857 21.4277 20.9055 19.5 21.0001C19.437 22.7312 19.6345 24.3358 20.8125 25.6876C22.1708 26.7567 23.4184 26.9624 25.125 26.8126C26.3869 26.479 27.1924 25.5953 27.9375 24.5626C28.5545 23.3845 28.5259 22.1107 28.5 20.8126C28.3755 20.7558 28.251 20.699 28.1228 20.6404C27.1351 20.1718 26.4227 19.7417 25.6875 18.9376C25.1365 18.9376 24.8928 19.2292 24.457 19.5586ZM22.5 30.0001C22.6718 30.9486 22.6718 30.9486 23.2617 31.5587C23.4435 31.7249 23.6252 31.8912 23.8125 32.0626C24.5305 31.77 24.9978 31.3359 25.5 30.7501C25.5 30.5026 25.5 30.2551 25.5 30.0001C24.51 30.0001 23.52 30.0001 22.5 30.0001ZM15.0351 36.0469C13.5051 38.1308 13.4709 40.461 13.4817 42.9434C13.4819 43.1744 13.4822 43.4053 13.4825 43.6432C13.4835 44.3768 13.4859 45.1103 13.4883 45.8438C13.4893 46.3428 13.4901 46.8419 13.4908 47.3409C13.4929 48.5606 13.496 49.7803 13.5 51.0001C13.995 51.0001 14.49 51.0001 15 51.0001C15 47.0401 15 43.0801 15 39.0001C15.99 39.0001 16.98 39.0001 18 39.0001C18 44.9401 18 50.8801 18 57.0001C21.96 57.0001 25.92 57.0001 30 57.0001C30 51.0601 30 45.1201 30 39.0001C30.99 39.0001 31.98 39.0001 33 39.0001C33 42.9601 33 46.9201 33 51.0001C33.495 51.0001 33.99 51.0001 34.5 51.0001C34.5096 49.5459 34.5161 48.0918 34.5206 46.6376C34.5225 46.1437 34.525 45.6498 34.5283 45.1559C34.5329 44.4428 34.535 43.7297 34.5366 43.0167C34.5385 42.7986 34.5405 42.5805 34.5425 42.3559C34.5429 39.4836 34.095 37.1953 32.0815 35.0574C30.9664 34.0107 29.5981 33.3279 28.0731 33.133C27.1379 33.2329 26.54 33.8647 25.9399 34.5455C24.9806 35.8687 25.2526 37.6747 25.2986 39.2249C25.3024 39.6087 25.3054 39.9925 25.3074 40.3763C25.3152 41.3805 25.3355 42.3841 25.3584 43.3881C25.3796 44.415 25.3889 45.4419 25.3993 46.4689C25.4213 48.4796 25.4565 50.4898 25.5 52.5001C24.51 52.5001 23.52 52.5001 22.5 52.5001C22.5069 52.1828 22.5069 52.1828 22.5139 51.8591C22.5558 49.8593 22.5866 47.8596 22.6068 45.8596C22.6176 44.8314 22.6321 43.8036 22.6556 42.7756C22.6781 41.7824 22.6903 40.7894 22.6957 39.7959C22.6995 39.4181 22.7069 39.0404 22.7181 38.6628C22.8373 36.2858 22.8373 36.2858 21.7938 34.2434C20.9848 33.4507 20.9848 33.4507 19.9316 33.1313C17.9066 33.3954 16.324 34.5172 15.0351 36.0469ZM13.5 54.0001C13.4898 54.3633 13.4826 54.7266 13.4765 55.0899C13.4722 55.2922 13.4678 55.4945 13.4634 55.7029C13.4568 56.2864 13.4568 56.2864 13.875 56.8126C14.3386 56.748 14.3386 56.748 14.8125 56.6251C15.0717 56.1067 15.0178 55.6789 15.0117 55.1016C15.01 54.8962 15.0083 54.6907 15.0066 54.4791C15.0044 54.321 15.0022 54.1629 15 54.0001C14.505 54.0001 14.01 54.0001 13.5 54.0001ZM33 54.0001C32.9898 54.3633 32.9826 54.7266 32.9765 55.0899C32.9722 55.2922 32.9678 55.4945 32.9634 55.7029C32.9568 56.2864 32.9568 56.2864 33.375 56.8126C33.8386 56.748 33.8386 56.748 34.3125 56.6251C34.5717 56.1067 34.5178 55.6789 34.5117 55.1016C34.51 54.8962 34.5083 54.6907 34.5066 54.4791C34.5044 54.321 34.5022 54.1629 34.5 54.0001C34.005 54.0001 33.51 54.0001 33 54.0001ZM18 60.0001C18 67.9201 18 75.84 18 84.0001C19.485 84.0001 20.97 84.0001 22.5 84.0001C22.5 77.0701 22.5 70.1401 22.5 63.0001C23.49 63.0001 24.48 63.0001 25.5 63.0001C25.5 69.9301 25.5 76.8601 25.5 84.0001C26.985 84.0001 28.47 84.0001 30 84.0001C30 76.0801 30 68.1601 30 60.0001C26.04 60.0001 22.08 60.0001 18 60.0001ZM13.875 87.5626C13.5122 88.1397 13.4859 88.6192 13.4927 89.283C13.4951 89.5196 13.4975 89.7563 13.5 90.0001C14.4803 90.0234 15.4605 90.0403 16.4411 90.0516C16.7739 90.0562 17.1067 90.0626 17.4394 90.0708C20.0989 90.1363 20.0989 90.1363 22.5 89.0626C22.5 88.3819 22.5 87.7013 22.5 87.0001C21.4525 86.9861 20.405 86.9759 19.3574 86.9692C19.0013 86.9663 18.6453 86.9625 18.2892 86.9576C17.7763 86.9508 17.2634 86.9476 16.7505 86.9451C16.5922 86.9422 16.434 86.9393 16.2709 86.9363C15.3322 86.9361 14.6871 87.0374 13.875 87.5626ZM25.5 87.0001C25.5 87.6807 25.5 88.3613 25.5 89.0626C27.2969 90.2438 28.9849 90.1095 31.0547 90.0586C31.3894 90.0539 31.7241 90.0497 32.0588 90.0458C32.8727 90.0356 33.6863 90.0194 34.5 90.0001C34.5069 89.6484 34.5069 89.6484 34.5139 89.2896C34.5165 89.1577 34.5191 89.0258 34.5217 88.89C34.4874 88.2745 34.284 87.8769 33.9375 87.3751C33.0836 86.8919 32.2197 86.9519 31.2678 86.9634C31.1027 86.964 30.9375 86.9645 30.7674 86.965C30.242 86.9671 29.7167 86.9718 29.1914 86.9766C28.8343 86.9785 28.4773 86.9802 28.1202 86.9817C27.2468 86.9859 26.3734 86.9923 25.5 87.0001Z" fill="white"/>
<path d="M50.9795 44.0141C52.5574 44.955 53.4926 46.2368 54 48C54.0712 48.8512 54.0697 49.7019 54.0695 50.5556C54.0703 50.9618 54.0771 51.3676 54.0842 51.7738C54.0959 53.2159 54.0183 54.4237 53.25 55.6875C53.1417 55.877 53.0334 56.0664 52.9219 56.2617C52.8445 56.3816 52.7672 56.5014 52.6875 56.625C52.7784 56.6866 52.8693 56.7482 52.9629 56.8117C55.0008 58.2578 56.4857 60.1391 57 62.625C57.0559 63.2518 57.0614 63.876 57.063 64.5051C57.0649 64.7716 57.0649 64.7716 57.0668 65.0436C57.0687 65.4178 57.0696 65.7921 57.0695 66.1664C57.0703 66.7359 57.0771 67.3051 57.0842 67.8746C57.0853 68.2397 57.0861 68.6048 57.0864 68.9699C57.0891 69.1385 57.0918 69.3071 57.0946 69.4808C57.0866 70.5986 56.8811 71.4406 56.25 72.375C55.8274 72.7675 55.8274 72.7675 55.3945 73.0312C55.2512 73.1221 55.1079 73.213 54.9602 73.3066C54.5625 73.5 54.5625 73.5 54 73.5C53.9897 75.1398 53.9876 76.7793 53.9956 78.4191C53.9991 79.1807 53.9999 79.942 53.9942 80.7036C53.9889 81.4392 53.9909 82.1745 53.9979 82.9101C53.9993 83.1901 53.9981 83.47 53.9942 83.7499C53.9328 85.3073 53.9328 85.3073 54.515 86.6986C54.8901 87.0247 55.275 87.2871 55.6875 87.5625C56.8145 88.8422 57.0395 90.0459 57.0864 91.7241C56.9733 92.4122 56.8089 92.5849 56.25 93C55.6973 93.0739 55.2147 93.1026 54.6621 93.097C54.5023 93.0983 54.3424 93.0996 54.1778 93.101C53.6497 93.1043 53.1218 93.1021 52.5938 93.0996C52.2267 93.1001 51.8596 93.1008 51.4926 93.1017C50.7234 93.1029 49.9543 93.1012 49.1851 93.0977C48.1989 93.0935 47.2129 93.0959 46.2267 93.1004C45.4688 93.1031 44.7109 93.1023 43.953 93.1003C43.5894 93.0998 43.2257 93.1004 42.8621 93.1022C42.354 93.1041 41.846 93.1012 41.3379 93.097C41.1875 93.0985 41.0371 93.1 40.8821 93.1016C40.2126 93.0914 39.8259 93.0566 39.282 92.6505C38.7248 91.859 38.8839 90.9227 39 90C39.1814 89.3902 39.4332 88.8627 39.75 88.3125C39.8622 88.1114 39.9743 87.9103 40.0899 87.7031C40.5 87.1875 40.5 87.1875 41.1713 86.8665C41.6928 86.4985 41.8003 86.3071 41.9355 85.6732C41.9831 84.9025 41.9896 84.141 41.9817 83.3693C41.9835 83.0848 41.9858 82.8003 41.9887 82.5158C41.9947 81.7689 41.993 81.0221 41.9896 80.2752C41.9875 79.5122 41.9928 78.7493 41.9974 77.9864C42.0055 76.4909 42.0054 74.9955 42 73.5C41.8526 73.4725 41.7052 73.4451 41.5533 73.4169C41.074 73.3149 40.7946 73.1996 40.3945 72.9257C40.2899 72.8578 40.1852 72.7899 40.0774 72.7199C39.0526 71.6402 38.8873 70.4376 38.9004 69.0029C38.8997 68.8272 38.899 68.6516 38.8982 68.4706C38.8977 68.1006 38.8991 67.7306 38.9022 67.3606C38.9062 66.801 38.9023 66.2417 38.8975 65.6821C38.8926 62.4792 39.4456 60.13 41.7422 57.7734C42.2417 57.2964 42.7616 56.8548 43.3125 56.4375C43.1656 56.2441 43.0186 56.0507 42.8672 55.8515C41.8586 54.5244 41.9302 53.0452 41.9305 51.4546C41.9297 51.0505 41.9229 50.6467 41.9158 50.2426C41.8996 48.2713 42.1634 46.5903 43.5557 45.0996C45.5426 43.3131 48.5507 42.8486 50.9795 44.0141ZM45.4922 47.9882C45.1852 48.5668 45.1121 48.8592 45.1875 49.5C45.8202 49.3913 46.1033 49.1936 46.5469 48.7382C47.0206 48.3221 47.3532 48.09 47.9883 48.0351C48.8536 48.094 49.3355 48.6157 49.9197 49.2129C50.2478 49.5615 50.2478 49.5615 50.8125 49.5C50.7431 48.3434 50.4829 47.8579 49.6875 47.0625C48.1446 46.1147 46.5664 46.6596 45.4922 47.9882ZM47.8125 51.9375C47.6269 52.0612 47.4413 52.185 47.25 52.3125C46.7439 52.3901 46.7439 52.3901 46.1836 52.4297C45.9041 52.4507 45.9041 52.4507 45.6189 52.4721C45.4054 52.4859 45.4054 52.4859 45.1875 52.5C45.2569 53.6566 45.5171 54.142 46.3125 54.9375C47.1478 55.4505 47.9849 55.433 48.9375 55.3125C49.8469 54.8746 50.3409 54.3263 50.8125 53.4375C50.838 52.9447 50.838 52.9447 50.8125 52.5C50.6745 52.4908 50.5365 52.4816 50.3943 52.4721C50.2113 52.4581 50.0284 52.4441 49.8399 52.4297C49.6593 52.4166 49.4788 52.4035 49.2927 52.3901C48.75 52.3125 48.75 52.3125 48.2483 52.0942C48.1045 52.0425 47.9607 51.9908 47.8125 51.9375ZM45.9375 59.0625C46.7754 59.768 47.39 59.9283 48.4849 59.8886C49.1666 59.7739 49.538 59.5041 50.0625 59.0625C49.3804 58.6327 48.7947 58.6372 48 58.6406C47.7718 58.6396 47.5437 58.6387 47.3086 58.6377C46.7338 58.6837 46.4181 58.7597 45.9375 59.0625ZM43.125 61.125C42.124 62.6264 41.9329 64.2218 42 66C42.495 66 42.99 66 43.5 66C43.5 65.505 43.5 65.01 43.5 64.5C44.49 64.5 45.48 64.5 46.5 64.5C46.5 66.48 46.5 68.46 46.5 70.5C47.49 70.5 48.48 70.5 49.5 70.5C49.5 68.52 49.5 66.54 49.5 64.5C50.49 64.5 51.48 64.5 52.5 64.5C52.5 64.995 52.5 65.49 52.5 66C52.995 66 53.49 66 54 66C54.0671 64.2218 53.876 62.6264 52.875 61.125C52.2245 61.4372 51.6368 61.8104 51.0366 62.2089C49.5273 63.0469 47.5882 63.0699 45.9273 62.677C44.9607 62.3141 44.2623 61.811 43.5 61.125C43.3763 61.125 43.2525 61.125 43.125 61.125ZM42 69C42.0619 69.3712 42.1238 69.7425 42.1875 70.125C42.4969 70.1868 42.8063 70.2487 43.125 70.3125C43.5693 69.7586 43.5693 69.7586 43.5 69C43.005 69 42.51 69 42 69ZM52.5 69C52.5619 69.3712 52.6238 69.7425 52.6875 70.125C52.9969 70.1868 53.3063 70.2487 53.625 70.3125C54.0693 69.7586 54.0693 69.7586 54 69C53.505 69 53.01 69 52.5 69ZM45 73.5C45 77.46 45 81.42 45 85.5C45.495 85.5 45.99 85.5 46.5 85.5C46.5 82.53 46.5 79.56 46.5 76.5C47.49 76.5 48.48 76.5 49.5 76.5C49.5 79.47 49.5 82.44 49.5 85.5C49.995 85.5 50.49 85.5 51 85.5C51 81.54 51 77.58 51 73.5C49.02 73.5 47.04 73.5 45 73.5ZM43.3125 89.0625C43.065 89.3718 42.8175 89.6812 42.5625 90C43.8619 90 45.1613 90 46.5 90C46.5 89.505 46.5 89.01 46.5 88.5C45.371 88.4384 44.3221 88.5064 43.3125 89.0625ZM49.5 88.5C49.5 88.995 49.5 89.49 49.5 90C50.7994 90 52.0988 90 53.4375 90C52.6188 88.9766 52.223 88.7514 51 88.5C50.4885 88.4611 50.014 88.4719 49.5 88.5Z" fill="white"/>
<path d="M40.1133 2.9028C40.3024 2.90149 40.4915 2.90017 40.6863 2.89882C41.3118 2.89552 41.937 2.8977 42.5625 2.90024C42.9968 2.89973 43.4312 2.89901 43.8655 2.89806C44.7759 2.89696 45.6863 2.89857 46.5967 2.90207C47.7644 2.90634 48.9321 2.90388 50.0998 2.89939C50.9967 2.89668 51.8936 2.89754 52.7905 2.89949C53.2211 2.89999 53.6517 2.89937 54.0823 2.89763C54.6839 2.89572 55.2852 2.89862 55.8867 2.9028C56.1544 2.90052 56.1544 2.90052 56.4275 2.8982C57.1498 2.90751 57.6111 2.91515 58.2354 3.29588C58.6009 3.92297 58.5953 4.38547 58.597 5.11037C58.5984 5.24615 58.5997 5.38194 58.601 5.52184C58.6043 5.97055 58.6021 6.41905 58.5996 6.86777C58.6001 7.18124 58.6008 7.49472 58.6018 7.8082C58.6029 8.46595 58.6013 9.12364 58.5978 9.78139C58.5935 10.6195 58.596 11.4573 58.6005 12.2954C58.6032 12.9435 58.6023 13.5916 58.6004 14.2398C58.5999 14.5484 58.6005 14.857 58.6022 15.1657C58.6127 17.5273 58.3521 19.41 56.863 21.325C55.4767 22.709 53.7668 23.7631 52.1416 24.8436C51.8714 25.0242 51.6022 25.2062 51.3339 25.3897C50.9413 25.6581 50.5459 25.9218 50.1497 26.1847C49.9723 26.3077 49.9723 26.3077 49.7915 26.4332C49.093 26.8879 48.503 27.1442 47.64 27.0906C46.8447 26.9055 46.2146 26.4436 45.55 25.9862C45.393 25.8815 45.2359 25.7769 45.0741 25.6691C44.7432 25.4475 44.4134 25.2242 44.0847 24.9994C43.5856 24.6585 43.0827 24.3237 42.579 23.9896C42.2566 23.7727 41.9344 23.5554 41.6125 23.3377C41.4641 23.2388 41.3156 23.14 41.1626 23.0381C39.867 22.1452 38.7608 21.0834 38.0859 19.6405C38.0129 19.4887 37.94 19.3369 37.8647 19.1805C37.5124 18.3243 37.4704 17.5378 37.4668 16.6185C37.4656 16.4806 37.4643 16.3427 37.4631 16.2006C37.4594 15.7457 37.4572 15.2907 37.4553 14.8358C37.4546 14.6802 37.4538 14.5246 37.453 14.3643C37.4491 13.5416 37.4464 12.7189 37.4447 11.8962C37.4426 11.0463 37.4361 10.1964 37.4287 9.3465C37.4238 8.69279 37.4222 8.03911 37.4215 7.3854C37.4206 7.07201 37.4184 6.75863 37.415 6.44526C37.4104 6.00717 37.4106 5.56931 37.4119 5.1312C37.4095 5.00182 37.4071 4.87245 37.4046 4.73916C37.4108 4.1695 37.4769 3.78961 37.7641 3.29458C38.5217 2.83504 39.2432 2.8954 40.1133 2.9028ZM40.5 5.99985C40.4923 7.66661 40.4845 9.33336 40.4766 11.0506C40.4731 11.5737 40.4697 12.0967 40.4662 12.6355C40.4651 13.0543 40.4642 13.473 40.4634 13.8917C40.4615 14.1057 40.4595 14.3198 40.4576 14.5403C40.4572 16.2348 40.5074 17.772 41.625 19.1248C42.7745 20.2446 44.082 21.1386 45.4102 22.0311C45.6102 22.1698 45.8102 22.3086 46.0162 22.4515C46.3061 22.6466 46.3061 22.6466 46.6018 22.8456C46.7759 22.9639 46.9499 23.0822 47.1293 23.2041C47.6032 23.4726 47.6032 23.4726 48.0856 23.4246C49.0502 23.0712 49.8757 22.4457 50.7241 21.8761C51.0663 21.6471 51.4109 21.4221 51.7559 21.1972C54.0183 19.7229 54.0183 19.7229 55.3125 17.4373C55.4541 16.6944 55.523 15.9938 55.5213 15.238C55.5213 14.9241 55.5213 14.9241 55.5212 14.6039C55.5203 14.387 55.5193 14.1701 55.5183 13.9466C55.5181 13.745 55.5179 13.5434 55.5177 13.3357C55.5168 12.5858 55.5141 11.8358 55.5117 11.0858C55.5079 9.40743 55.504 7.72907 55.5 5.99985C50.55 5.99985 45.6 5.99985 40.5 5.99985Z" fill="white"/>
<path d="M51.1875 9.375C51.8687 9.69297 52.3023 10.0759 52.8281 10.6172C52.978 10.7704 53.1278 10.9237 53.2822 11.0815C53.3953 11.199 53.5085 11.3165 53.625 11.4375C53.3795 11.9793 53.1175 12.3667 52.697 12.786C52.5856 12.898 52.4743 13.0099 52.3595 13.1253C52.2396 13.2439 52.1197 13.3624 51.9961 13.4846C51.8727 13.608 51.7492 13.7313 51.6221 13.8584C51.3615 14.1184 51.1005 14.3779 50.8391 14.637C50.438 15.0347 50.0385 15.4338 49.6392 15.8331C49.3858 16.0855 49.1324 16.3379 48.8789 16.5901C48.759 16.7098 48.6391 16.8295 48.5155 16.9529C48.4041 17.0631 48.2927 17.1732 48.178 17.2868C48.08 17.384 47.9821 17.4813 47.8811 17.5815C47.3663 18.0459 46.8471 18.0987 46.1631 18.0864C45.3323 17.9126 44.8237 17.2767 44.25 16.6875C44.0813 16.521 43.9126 16.3544 43.7388 16.1829C43.2807 15.7293 42.8266 15.2724 42.375 14.8125C42.6631 14.1224 43.084 13.6898 43.6172 13.1719C43.7704 13.022 43.9237 12.8722 44.0815 12.7178C44.199 12.6047 44.3165 12.4915 44.4375 12.375C45.2426 12.7355 45.7072 13.2421 46.3125 13.875C47.0369 13.5779 47.4916 13.1138 48.0381 12.561C48.1286 12.47 48.2191 12.379 48.3123 12.2852C48.5997 11.9957 48.8858 11.7049 49.1719 11.4141C49.3671 11.217 49.5624 11.0199 49.7578 10.823C50.2354 10.3413 50.7117 9.85847 51.1875 9.375Z" fill="white"/>
</svg>
