<svg width="73" height="74" viewBox="0 0 73 74" fill="none" xmlns="http://www.w3.org/2000/svg">
<path fill-rule="evenodd" clip-rule="evenodd" d="M21.957 30.4961C22.2482 30.4679 22.2489 30.4679 22.46 30.6553C23.7702 31.748 25.4 32.5646 27.0898 32.8086C29.9143 33.0436 32.4136 32.6009 34.6914 30.794C35.0578 30.482 35.4386 30.682 35.5537 31.1494C35.6118 31.3856 35.6711 31.6216 35.7305 31.8574C35.7824 32.063 35.8333 32.269 35.8848 32.4746C35.9576 32.7768 36.0311 33.0787 36.1074 33.3799L36.1807 33.669C36.3512 34.3572 36.6459 35.0868 37.2812 35.4014C37.3971 35.4587 37.5293 35.5094 37.6865 35.5586L38.2188 35.6387C38.5102 35.6853 38.8016 35.7315 39.0938 35.7735C39.2965 35.8025 39.4998 35.8331 39.7021 35.8643C40.1708 35.9378 40.6401 36.0092 41.1094 36.0782L41.4902 36.1328V36.2774L41.1875 36.5088C40.3221 37.1263 39.3581 37.7418 38.6826 38.585C38.3233 39.0336 38.1147 39.6128 38.2207 40.1778C38.3159 40.6847 38.6619 41.1282 39.1221 41.3614C39.2797 41.4412 39.4523 41.5001 39.6582 41.541C40.3605 41.5847 40.791 41.4605 41.3506 41.001C43.4484 39.1974 45.6905 38.0479 48.3506 37.3555C52.3955 36.3801 56.7504 37.1291 60.2871 39.3145L60.7383 39.6016C62.6772 40.8013 64.4464 42.6634 65.6348 44.6192C67.816 48.349 68.7736 52.7609 67.7197 57.0489L67.582 57.5235C66.7505 60.5942 65.1071 63.5013 62.7021 65.583L62.3066 65.9063C59.9376 67.8611 57.201 69.1852 54.1689 69.6211C49.5885 70.0975 45.3172 68.9231 41.6973 66.0518C38.2312 63.05 36.2866 59.1574 35.8408 54.5967L35.7979 54.0801L35.7549 53.5918C35.6691 52.4828 34.733 51.6284 33.623 51.5557C33.4398 51.5437 33.2484 51.5391 33.0449 51.5371L32.5967 51.5401C32.2797 51.5392 31.9624 51.5384 31.6455 51.5381C31.1491 51.5409 30.6527 51.5434 30.1562 51.541C29.8308 51.5392 29.5051 51.5388 29.1797 51.5391L28.7119 51.5401C27.9491 51.5355 27.2233 51.503 26.5068 51.7979C26.2381 51.9487 26.069 52.0643 25.9385 52.2256C25.6891 52.534 25.6359 52.9667 25.6357 53.3633C25.6354 54.3189 26.4242 55.0472 27.3779 55.1065C27.4916 55.1135 27.6082 55.118 27.7275 55.1211L28.0732 55.126C28.4434 55.1347 28.8144 55.1438 29.1846 55.1504C29.4413 55.155 29.6983 55.1595 29.9551 55.1651C30.3258 55.1734 30.6966 55.1817 31.0674 55.1895L32.2227 55.211L32.793 58.2461H4.99023L4.98145 51.209L4.98047 50.8731C4.97881 49.9464 4.97723 49.0195 4.97656 48.0928V47.251C4.97544 46.7974 4.97374 46.3433 4.97363 45.8897L4.97461 45.4639C4.96931 44.1095 5.16893 43.0221 5.70312 41.7696C6.78064 39.6786 8.61052 38.3109 10.7607 37.4688L11.2637 37.2891C13.2885 36.5611 15.3593 36.2122 17.4775 35.8975L17.8389 35.8448C18.068 35.8106 18.2972 35.7762 18.5264 35.7422L18.5371 35.7403C19.7947 35.5645 20.8919 34.7947 21.2061 33.5645C21.252 33.3843 21.3042 33.1765 21.3643 32.9356L21.4941 32.3936C21.622 31.8763 21.7498 31.3588 21.875 30.8408L21.957 30.4961ZM57.9424 42.7979C57.2511 42.6872 56.7559 42.7948 56.1758 43.2149C55.7314 43.7585 55.578 44.3942 55.6055 45.0938C55.7527 45.7566 56.0832 46.0013 56.6113 46.3643C58.0914 47.3603 59.1765 48.5453 59.9844 50.1651C60.8611 52.1803 61.156 54.612 60.4492 56.7383C60.4023 56.8579 60.3561 56.9738 60.3105 57.0899C59.7391 58.6148 58.9308 59.9016 57.6992 60.9649C55.4956 62.6784 53.1276 63.2811 50.3896 62.9746C48.194 62.5615 46.177 61.2785 44.8076 59.5108C43.2678 57.3535 42.846 54.919 43.2012 52.3203C43.6074 50.0682 44.9104 48.1063 46.7305 46.792C47.1541 46.4903 47.5718 46.2034 47.9326 45.8252C48.2818 45.2272 48.3209 44.7604 48.1914 44.0821C47.8786 43.448 47.5575 43.0568 46.9082 42.7813C44.0146 42.5241 41.342 46.5116 40.3047 48.8155C38.9445 52.3106 38.939 56.0647 40.4199 59.5303C41.8943 62.6162 44.3136 64.8818 47.4492 66.128C50.6986 67.3405 54.2361 67.1721 57.3809 65.7305C60.5151 64.1314 62.7942 61.5256 64.0029 58.1739C64.9648 55.0758 64.8647 51.6241 63.4785 48.6699C62.3372 46.3555 60.4865 43.6693 57.9424 42.7979ZM52.6113 39.0235C51.8854 38.9318 51.2016 38.9281 50.6064 39.4033C50.051 40.0938 50.0122 40.8882 50.0078 41.7471C50.0086 41.8744 50.0099 41.9985 50.0107 42.1221C50.0099 42.5433 50.0093 42.9646 50.0107 43.3858C50.0118 43.6865 50.0125 43.9873 50.0127 44.2881C50.0126 44.9166 50.0131 45.5453 50.0146 46.1739C50.0171 46.9901 50.0186 47.8068 50.0186 48.6231C50.0185 49.2608 50.0187 49.8985 50.0195 50.5362C50.02 50.8405 50.021 51.1458 50.0215 51.4502C50.0216 51.887 50.0211 52.3239 50.0225 52.7608C50.023 52.8972 50.0239 53.0298 50.0244 53.1621C50.024 53.8577 50.0032 54.5349 50.1875 55.211C50.48 55.715 50.7992 55.9896 51.3281 56.2227C51.9963 56.3014 52.611 56.3311 53.1816 55.9336C53.715 55.2994 53.8183 54.8466 53.8262 54.0205C53.8245 53.8813 53.8229 53.7455 53.8213 53.6104C53.823 53.152 53.8241 52.6937 53.8213 52.2354C53.8191 51.9079 53.8177 51.5804 53.8174 51.253C53.8175 50.5695 53.8166 49.8856 53.8135 49.2022C53.8086 48.3135 53.8047 47.4249 53.8047 46.5362C53.8049 45.8425 53.8044 45.1487 53.8027 44.4551C53.8017 44.1243 53.8007 43.7928 53.7998 43.4619C53.7995 42.986 53.7986 42.5101 53.7959 42.0342C53.7944 41.814 53.7954 41.8135 53.7939 41.5977C53.7941 41.458 53.7938 41.3222 53.7939 41.1866C53.7927 41.0581 53.7913 40.9333 53.79 40.8086C53.7886 40.481 53.7886 40.4809 53.752 40.1797C53.5091 39.5673 53.1949 39.3247 52.6113 39.0235ZM20.3027 51.4063C20.0097 51.4068 19.7159 51.4073 19.4229 51.4082C18.9639 51.4128 18.5048 51.4176 18.0459 51.419C17.7448 51.4195 17.4437 51.4196 17.1426 51.4209C16.9959 51.4218 16.8533 51.423 16.7109 51.4239C16.5695 51.4245 16.4322 51.4252 16.2949 51.4258C16.1631 51.4272 16.0351 51.4283 15.9072 51.4297C15.4753 51.4335 15.0995 51.4693 14.6855 51.5977C14.1316 51.921 13.8986 52.2904 13.6875 52.8985C13.6702 53.4941 13.7328 54.0133 14.0078 54.543C14.6908 55.1859 15.2224 55.2609 16.1309 55.2637C16.2868 55.2619 16.4385 55.2606 16.5898 55.2588C16.9111 55.2583 17.2325 55.2568 17.5537 55.2559C18.0596 55.2513 18.5654 55.2475 19.0713 55.2461C19.4022 55.2456 19.7335 55.2446 20.0645 55.2432C20.2252 55.2423 20.3811 55.2411 20.5371 55.2403C20.694 55.2396 20.8468 55.2389 20.999 55.2383C21.1434 55.2369 21.2836 55.2358 21.4238 55.2344C22.0029 55.2298 22.2513 55.1549 22.7412 54.8321C23.1915 54.3984 23.278 54.0927 23.3828 53.4766C23.3453 52.8424 23.2091 52.3826 22.8125 51.8867C22.0989 51.4891 21.5253 51.4031 20.7158 51.4004C20.5754 51.4023 20.4391 51.4045 20.3027 51.4063Z" fill="white"/>
<path d="M25.0938 15.1758C28.9917 17.9046 33.1464 18.2809 37.7861 18.2158L38.0684 18.211L38.2109 18.6446C37.5332 21.4358 36.0776 24.3359 34.1162 26.4151L33.791 26.7383C32.5481 27.978 31.358 28.8944 29.6299 29.2725C27.9248 29.5577 26.4199 29.0568 25.0166 28.0742C23.5159 26.9085 22.1708 25.33 21.1348 23.5645C19.4449 20.6843 22.1646 17.8046 24.3418 15.2725L24.666 14.8867L25.0938 15.1758Z" fill="white"/>
<path d="M20.502 6.43557C23.6316 4.08931 28.4407 3.86647 32.0703 4.52639L32.5078 4.62503C34.2444 5.01126 36.3927 5.69465 37.5947 7.11721L37.7832 7.37112C38.8382 9.55568 38.8385 9.55599 38.8066 12.0616C38.803 12.3444 38.799 12.6273 38.7969 12.9102C38.7912 13.8499 38.0334 14.6114 37.0938 14.6201C36.1509 14.6288 35.2075 14.6297 34.2646 14.6153C31.3402 14.5491 28.4455 13.6107 26.377 11.4453C26.3231 11.3863 26.2692 11.3271 26.2148 11.2686C25.855 10.8813 25.4705 10.482 24.9668 10.3213C24.9428 10.3137 24.9185 10.3073 24.8945 10.3008C24.1957 10.1116 23.3989 10.3349 22.9697 10.918C22.6098 11.505 22.2491 12.088 21.834 12.6367C20.5246 14.1961 18.4359 12.5291 18.584 10.4981C18.5916 10.3941 18.6002 10.2895 18.6094 10.1856L18.6426 9.8555C18.6933 9.26529 18.8111 8.74556 19.0186 8.251C19.3252 7.52006 19.8677 6.91107 20.502 6.43557Z" fill="white"/>
<path d="M16.5 66C16.5 64.8954 17.3954 64 18.5 64H41.0969C42.0052 64 42.8864 64.3091 43.5957 64.8765C44.8903 65.9122 44.1579 68 42.5 68H18.5C17.3954 68 16.5 67.1046 16.5 66Z" fill="white"/>
<path d="M5 66C5 64.8954 5.89543 64 7 64H12C13.1046 64 14 64.8954 14 66C14 67.1046 13.1046 68 12 68H7C5.89543 68 5 67.1046 5 66Z" fill="white"/>
</svg>
