<svg width="81" height="107" viewBox="0 0 81 107" fill="none" xmlns="http://www.w3.org/2000/svg">
<path d="M30.0082 73.6456C30.2021 73.8211 30.3959 73.9965 30.5957 74.1773C30.814 74.3696 31.0328 74.5614 31.2521 74.7527C31.4176 74.8985 31.4176 74.8985 31.5866 75.0472C32.0884 75.477 32.6157 75.869 33.1466 76.2621C34.016 76.9062 34.8794 77.5567 35.7363 78.2173C35.847 78.3022 35.9577 78.3871 36.0717 78.4746C36.6617 78.9279 37.2473 79.3858 37.8284 79.8505C37.9486 79.9456 38.0688 80.0406 38.1926 80.1386C38.4221 80.3204 38.6505 80.5036 38.8776 80.6884C39.5141 81.1897 40.002 81.5539 40.8252 81.5451C41.9081 81.0343 42.7944 80.337 43.7127 79.5769C44.8089 78.6844 45.9188 77.8171 47.0535 76.9742C48.1609 76.1506 49.2578 75.3156 50.3425 74.4622C50.4663 74.3648 50.5901 74.2675 50.7176 74.1671C51.2798 73.7335 51.2798 73.7335 51.8057 73.258C54.8178 73.1832 57.8924 74.1642 60.7144 75.1226C60.7162 75.3245 60.7162 75.3245 60.7181 75.5306C60.7314 76.9424 60.7489 78.3541 60.7687 79.7659C60.7756 80.2915 60.7814 80.8171 60.7861 81.3428C60.7932 82.102 60.804 82.861 60.8155 83.6201C60.8175 83.968 60.8175 83.968 60.8195 84.3228C60.8834 87.8083 61.9424 90.5022 64.4436 92.94C66.0491 94.4192 68.2455 95.429 70.4419 95.4687C70.7466 95.4749 70.7466 95.4749 71.0576 95.4812C71.2754 95.4846 71.4931 95.4881 71.7175 95.4917C72.0538 95.4981 72.0538 95.4981 72.3968 95.5047C73.1124 95.5183 73.828 95.5305 74.5436 95.5427C75.0289 95.5516 75.5142 95.5606 75.9995 95.5698C77.1889 95.5919 78.3783 95.613 79.5677 95.6333C79.6676 95.9263 79.767 96.2195 79.8661 96.5128C79.9215 96.6761 79.977 96.8393 80.034 97.0075C80.7057 99.1303 80.8695 101.383 80.8884 103.597C80.8913 103.784 80.8941 103.972 80.8971 104.165C80.8958 104.341 80.8946 104.516 80.8933 104.697C80.8926 104.852 80.8919 105.007 80.8912 105.167C80.7861 105.704 80.6162 105.863 80.1892 106.199C79.7374 106.276 79.7374 106.276 79.2021 106.274C78.8975 106.275 78.8975 106.275 78.5867 106.277C78.3642 106.275 78.1417 106.272 77.9125 106.27C77.678 106.27 77.4435 106.27 77.2019 106.27C76.425 106.27 75.6482 106.265 74.8713 106.26C74.3334 106.259 73.7955 106.258 73.2575 106.257C71.9852 106.255 70.713 106.25 69.4407 106.244C67.9922 106.237 66.5437 106.234 65.0952 106.231C62.1156 106.224 59.136 106.213 56.1564 106.199C56.1523 105.94 56.1482 105.681 56.144 105.415C56.1281 104.445 56.1098 103.476 56.0907 102.507C56.0828 102.089 56.0756 101.671 56.069 101.253C56.0595 100.649 56.0475 100.046 56.035 99.4418C56.0314 99.1656 56.0314 99.1656 56.0278 98.8837C55.981 96.8581 55.762 94.7071 54.3347 93.1585C52.6177 91.571 50.9101 91.2529 48.6364 91.2459C48.4439 91.2445 48.2514 91.2431 48.053 91.2417C47.4172 91.2377 46.7813 91.2352 46.1455 91.2332C45.9276 91.2323 45.7096 91.2315 45.4851 91.2306C44.3313 91.2263 43.1774 91.2233 42.0235 91.2214C40.8358 91.2191 39.6482 91.212 38.4605 91.2037C37.5437 91.1983 36.6269 91.1966 35.7101 91.1958C35.2725 91.1948 34.8349 91.1924 34.3973 91.1886C30.3227 91.1265 30.3227 91.1265 26.8867 93.1342C25.7815 94.4574 25.2771 95.9542 25.2442 97.6616C25.2401 97.8524 25.2359 98.0431 25.2317 98.2396C25.2282 98.4427 25.2248 98.6458 25.2212 98.8551C25.2147 99.1702 25.2147 99.1702 25.2082 99.4917C25.1946 100.161 25.1824 100.83 25.1702 101.499C25.1613 101.953 25.1522 102.408 25.1431 102.862C25.121 103.975 25.0999 105.087 25.0796 106.199C21.9568 106.214 18.8341 106.225 15.7113 106.232C14.2614 106.235 12.8115 106.239 11.3616 106.246C9.96319 106.253 8.56482 106.257 7.1664 106.258C6.63203 106.26 6.09765 106.262 5.56329 106.265C4.81666 106.27 4.07013 106.27 3.32349 106.27C3.101 106.272 2.87851 106.274 2.64928 106.277C2.44621 106.276 2.24314 106.275 2.03392 106.274C1.85727 106.275 1.68061 106.275 1.49861 106.276C0.943895 106.182 0.769271 106.014 0.425261 105.578C-0.66972 103.388 0.622297 98.9303 1.25398 96.6692C1.38792 96.3223 1.52516 95.9765 1.66834 95.6333C1.79 95.6325 1.91166 95.6318 2.03701 95.631C3.31444 95.6223 4.59173 95.6079 5.86907 95.5903C6.34445 95.5845 6.81985 95.5801 7.29525 95.5772C11.3289 95.5508 14.3869 95.2332 17.4787 92.3702C19.2834 90.4583 20.3141 87.7829 20.357 85.1656C20.3611 84.9417 20.3653 84.7178 20.3695 84.4871C20.373 84.2478 20.3764 84.0084 20.38 83.7618C20.3865 83.3915 20.3865 83.3915 20.3931 83.0137C20.4066 82.2264 20.4188 81.439 20.431 80.6517C20.4399 80.1174 20.449 79.5831 20.4581 79.0489C20.4803 77.7401 20.5014 76.4313 20.5216 75.1226C21.1713 74.9219 21.8216 74.7235 22.472 74.5253C22.6534 74.4693 22.8347 74.4132 23.0216 74.3555C28.5607 72.6746 28.5607 72.6746 30.0082 73.6456Z" fill="white"/>
<path d="M20.3144 33.6868C33.5097 33.6868 46.7049 33.6868 60.3 33.6868C60.7886 36.1299 60.7886 36.1299 60.7014 37.4289C60.6916 37.5841 60.6818 37.7393 60.6716 37.8991C60.3873 41.4834 59.5298 45.0492 58.2282 48.3965C58.1743 48.5359 58.1205 48.6753 58.0649 48.8189C56.7525 52.1474 54.9277 55.1845 52.6344 57.9267C52.5455 58.0332 52.4566 58.1397 52.3651 58.2494C49.344 61.8259 45.5668 64.3365 40.83 64.8276C37.0821 64.9943 33.5757 63.3196 30.7997 60.909C30.5321 60.6634 30.5321 60.6634 30.259 60.4129C30.0721 60.2427 29.8852 60.0726 29.6925 59.8974C27.2154 57.5357 25.4014 54.7372 23.8365 51.7113C23.7714 51.5865 23.7063 51.4617 23.6392 51.3331C21.2757 46.7359 19.8663 41.4959 19.8612 36.3154C19.8587 36.1753 19.8562 36.0352 19.8536 35.8909C19.851 35.001 19.9704 34.5468 20.3144 33.6868Z" fill="white"/>
<path d="M47.8692 5.09607C52.8019 6.95216 56.4851 10.5548 58.8497 15.2478C59.8873 17.5413 60.5072 19.7699 60.5072 22.2919C47.1752 22.2919 33.8432 22.2919 20.1072 22.2919C20.1072 17.2055 22.5184 12.84 26.0118 9.26555C27.5363 7.79235 30.297 5.30325 32.538 5.30325C32.5441 5.59438 32.5441 5.59438 32.5504 5.8914C32.5668 6.62356 32.5847 7.35564 32.6037 8.08772C32.6116 8.40232 32.6188 8.71693 32.6254 9.03156C32.6953 13.5747 32.6953 13.5747 34.8299 17.475C36.5662 19.0889 38.6354 19.6793 40.9384 19.6561C42.9256 19.4965 44.5813 18.5919 45.9391 17.1586C47.8794 14.7925 47.796 12.1048 47.8174 9.2008C47.8233 8.80195 47.8295 8.40311 47.8361 8.00426C47.8512 7.03488 47.8616 6.06555 47.8692 5.09607Z" fill="white"/>
<path d="M32.55 94.3568C32.7421 94.3558 32.9341 94.3547 33.1321 94.3537C33.7684 94.3507 34.4048 94.3492 35.0411 94.3481C35.4832 94.3469 35.9252 94.3457 36.3673 94.3445C37.2947 94.3423 38.2221 94.3411 39.1496 94.3404C40.3374 94.3393 41.5252 94.3343 42.713 94.3284C43.6264 94.3245 44.5397 94.3235 45.4531 94.3231C45.891 94.3225 46.3289 94.3209 46.7667 94.3181C47.3797 94.3146 47.9926 94.315 48.6055 94.3163C48.7861 94.3144 48.9666 94.3125 49.1526 94.3105C50.1928 94.3177 50.9039 94.4362 51.8056 95.0117C54.45 97.799 52.8415 103.324 52.8415 106.199C44.774 106.199 36.7064 106.199 28.3944 106.199C28.3944 96.6692 28.3944 96.6692 29.0159 95.4261C30.1428 94.3837 31.0712 94.3587 32.55 94.3568Z" fill="white"/>
<path d="M16.7994 25.348C16.97 25.347 17.1405 25.3461 17.3163 25.3451C17.5973 25.3467 17.5973 25.3467 17.884 25.3483C18.0831 25.3478 18.2821 25.3473 18.4872 25.3468C19.1571 25.3456 19.8271 25.3474 20.497 25.3492C20.9761 25.349 21.4552 25.3486 21.9343 25.348C23.2377 25.347 24.541 25.3486 25.8444 25.3507C27.206 25.3525 28.5676 25.3522 29.9292 25.3521C32.2159 25.3522 34.5025 25.3541 36.7892 25.3569C39.1436 25.3598 41.4979 25.3613 43.8523 25.3612C44.0698 25.3611 44.0698 25.3611 44.2918 25.3611C44.4366 25.3611 44.5813 25.3611 44.7305 25.3611C47.2729 25.361 49.8153 25.362 52.3577 25.3638C53.4415 25.3645 54.5254 25.3649 55.6093 25.365C56.8845 25.3652 58.1597 25.3664 59.4349 25.3685C59.9041 25.3691 60.3733 25.3694 60.8426 25.3693C61.4806 25.3692 62.1187 25.3703 62.7568 25.3718C62.9446 25.3715 63.1324 25.3712 63.3259 25.3709C64.6035 25.3759 64.6035 25.3759 65.0651 25.6067C65.0711 26.3621 65.0748 27.1174 65.0781 27.8727C65.0798 28.0884 65.0816 28.3041 65.0833 28.5262C65.084 28.7312 65.0847 28.9362 65.0854 29.1474C65.0865 29.3372 65.0875 29.5271 65.0887 29.7227C65.0651 30.1647 65.0651 30.1647 64.858 30.3718C64.2241 30.3922 63.595 30.3988 62.9611 30.3968C62.7596 30.3969 62.558 30.3971 62.3504 30.3973C61.6696 30.3976 60.9888 30.3965 60.3081 30.3954C59.8222 30.3953 59.3364 30.3953 58.8506 30.3955C57.5271 30.3955 56.2036 30.3943 54.8801 30.3928C53.6385 30.3917 52.3969 30.3915 51.1552 30.3913C48.6953 30.3908 46.2354 30.3894 43.7754 30.3875C41.3852 30.3856 38.9951 30.3841 36.6049 30.3832C36.4576 30.3832 36.3104 30.3831 36.1587 30.3831C35.4201 30.3828 34.6816 30.3825 33.943 30.3823C27.8118 30.3801 21.6806 30.3765 15.5493 30.3718C15.1704 29.6139 15.295 28.7201 15.2904 27.8857C15.2861 27.6934 15.2818 27.5011 15.2774 27.303C15.2763 27.1193 15.2753 26.9355 15.2742 26.7462C15.2722 26.5774 15.2703 26.4086 15.2683 26.2347C15.3049 26.0264 15.3049 26.0264 15.3422 25.8139C15.9733 25.3931 16.0916 25.3478 16.7994 25.348Z" fill="white"/>
<path d="M49.941 64.7635C50.0031 65.6143 50.0479 66.4641 50.0776 67.3166C50.09 67.6056 50.1069 67.8944 50.1286 68.1828C50.1995 69.1519 50.1979 70.0306 49.941 70.9789C49.2219 71.7946 48.3853 72.2944 47.4549 72.8435C47.134 73.0832 46.817 73.3282 46.5056 73.58C46.3611 73.6933 46.2166 73.8067 46.0677 73.9234C45.9229 74.0371 45.7782 74.1508 45.6291 74.2679C43.9837 75.5547 42.3109 76.7995 40.618 78.023C40.24 77.7395 39.8621 77.456 39.4842 77.1724C39.1202 76.8996 38.756 76.6272 38.3916 76.3551C37.5285 75.7097 36.6662 75.0635 35.8108 74.4079C35.7003 74.3235 35.5899 74.239 35.476 74.152C35.2515 73.9781 35.0287 73.8019 34.8078 73.6234C34.2302 73.1614 33.6763 72.777 33.0122 72.4486C32.1973 72.0098 31.5181 71.6188 31.0877 70.7717C30.7542 68.9331 30.9232 67.0286 31.0877 65.1779C31.8804 65.4908 32.6485 65.8354 33.4185 66.2009C37.4246 68.0488 41.3576 68.3786 45.5628 66.8928C46.7409 66.4125 48.8169 64.7635 49.941 64.7635Z" fill="white"/>
<path d="M17.2067 76.78C17.2222 78.0698 17.2334 79.3596 17.2409 80.6495C17.244 81.0875 17.2482 81.5255 17.2536 81.9636C17.2612 82.5962 17.2647 83.2287 17.2674 83.8613C17.2706 84.0546 17.2738 84.2478 17.2772 84.4469C17.2778 86.8598 16.5131 88.8078 14.9019 90.5963C13.1874 92.2357 11.0496 92.5609 8.77875 92.5459C8.61037 92.5456 8.44198 92.5453 8.26849 92.545C7.73448 92.5438 7.2005 92.5412 6.6665 92.5386C6.30286 92.5375 5.93921 92.5366 5.57557 92.5358C4.6875 92.5335 3.79944 92.5299 2.91138 92.5256C3.08682 91.5128 3.45327 90.7442 3.93432 89.8453C4.05831 89.6131 4.05831 89.6131 4.1848 89.3762C5.71281 86.5795 7.67473 84.1818 9.95547 81.9595C10.0567 81.8465 10.1579 81.7336 10.2622 81.6172C11.1975 80.6075 12.2417 79.8119 13.361 79.0202C13.5067 78.9168 13.6525 78.8134 13.8026 78.7069C16.5768 76.78 16.5768 76.78 17.2067 76.78Z" fill="white"/>
<path d="M64.0292 76.9872C68.7407 78.076 73.2992 83.4789 75.8384 87.3461C76.8734 89.0147 77.8103 90.6229 78.3246 92.5256C77.2784 92.5411 76.2323 92.5523 75.186 92.5598C74.8312 92.5629 74.4764 92.5671 74.1216 92.5725C70.9644 92.6196 68.329 92.5045 65.8938 90.2466C64.3528 88.4697 63.9314 86.5518 63.9685 84.2506C63.9694 84.0417 63.9703 83.8328 63.9712 83.6176C63.9746 82.9569 63.9824 82.2964 63.9904 81.6358C63.9935 81.1851 63.9963 80.7345 63.9989 80.2838C64.0057 79.1849 64.0161 78.0861 64.0292 76.9872Z" fill="white"/>
<path d="M42.1168 0.265321C43.2289 0.858313 44.0735 1.86773 44.5544 3.0242C44.6098 3.50597 44.6098 3.50597 44.6145 4.0429C44.6172 4.24488 44.6198 4.44686 44.6226 4.65497C44.623 4.87208 44.6235 5.08919 44.624 5.31288C44.6253 5.53771 44.6267 5.76253 44.6281 5.99417C44.6302 6.46994 44.6312 6.94572 44.6311 7.4215C44.632 8.14632 44.6396 8.87088 44.6474 9.59566C44.6486 10.0586 44.6495 10.5215 44.6499 10.9844C44.6528 11.1998 44.6558 11.4153 44.6589 11.6372C44.6499 13.0828 44.4441 14.2668 43.4331 15.3556C42.2333 16.4208 41.1232 16.5872 39.5691 16.5548C38.2088 16.4119 37.4074 15.636 36.5286 14.6416C35.7888 13.4254 35.7891 12.1172 35.7905 10.7368C35.7896 10.5455 35.7887 10.3542 35.7878 10.1572C35.7866 9.75426 35.7865 9.35135 35.7874 8.94843C35.7881 8.33646 35.7832 7.7247 35.778 7.11275C35.7775 6.71943 35.7774 6.32612 35.7776 5.9328C35.7757 5.75211 35.7738 5.57141 35.7718 5.38524C35.7829 3.89767 35.9975 2.5508 36.9794 1.39267C38.5087 0.124419 40.1229 -0.344692 42.1168 0.265321Z" fill="white"/>
<path d="M16.7924 39.0734C16.8279 39.2519 16.8633 39.4304 16.8999 39.6143C17.0333 40.2851 17.167 40.9558 17.3007 41.6264C17.3582 41.9151 17.4157 42.2038 17.4731 42.4926C17.7826 44.0499 18.0966 45.6052 18.4498 47.1533C17.1795 47.0497 16.1135 46.7427 15.2353 45.7695C14.3365 44.566 14.1653 43.4609 14.3062 41.9739C14.6717 40.8775 15.4144 39.0734 16.7924 39.0734Z" fill="white"/>
<path d="M63.822 39.0734C64.9329 39.6447 65.6545 40.4023 66.1658 41.5466C66.4672 42.8892 66.3919 44.0977 65.6867 45.2887C64.9385 46.1147 64.0959 46.8777 62.9933 47.1533C62.7199 47.1533 62.4464 47.1533 62.1646 47.1533C62.3187 45.9018 62.5899 44.6901 62.8768 43.463C63.2161 42.0039 63.5373 40.5441 63.822 39.0734Z" fill="white"/>
</svg>
