<svg width="99" height="99" viewBox="0 0 99 99" fill="none" xmlns="http://www.w3.org/2000/svg">
<path d="M6.1875 23.2698C6.1875 22.1653 7.08292 21.2695 8.18749 21.2695C25.9525 21.2695 43.7351 21.2695 62.0018 21.2695C63.1064 21.2695 64.002 22.1649 64.002 23.2695C64.002 37.2698 64.002 51.2869 64.002 65.6755C64.002 66.7801 63.1065 67.6758 62.002 67.6758C52.5538 67.6758 43.0896 67.6758 33.3817 67.6758C32.5037 67.6758 31.7281 67.1033 31.4699 66.2641C31.3873 65.9954 31.2925 65.6875 31.1309 65.1621C29.94 62.6102 27.9822 60.7901 25.3897 59.7118C22.6653 58.7529 19.9743 59.0589 17.3782 60.2556C14.8294 61.6116 13.2697 63.6456 12.3871 66.3585C12.1503 67.1408 11.4293 67.6758 10.612 67.6758C9.8077 67.6758 9.00096 67.6758 8.18751 67.6758C7.08294 67.6758 6.1875 66.7804 6.1875 65.6758C6.1875 51.6755 6.1875 37.6584 6.1875 23.2698ZM40.1077 29.7692C39.9202 29.8953 39.7634 30.0649 39.6642 30.2678C39.4271 30.7535 39.4008 31.1891 39.4075 31.7925C39.4088 31.9907 39.41 32.1888 39.4113 32.393C39.4146 32.5986 39.4178 32.8042 39.4211 33.0161C39.4229 33.2247 39.4246 33.4334 39.4264 33.6483C39.43 34.0507 39.4347 34.453 39.4403 34.8554C39.4429 35.0398 39.2937 35.1904 39.1093 35.1892C36.411 35.1722 33.7128 35.1594 31.0145 35.1513C29.7096 35.1473 28.4048 35.1419 27.1 35.1331C25.8412 35.1245 24.5825 35.12 23.3238 35.118C22.843 35.1166 22.3622 35.1138 21.8815 35.1096C21.2092 35.104 20.5371 35.1032 19.8648 35.1036C19.6651 35.1008 19.4654 35.098 19.2596 35.0952C18.5052 35.0945 18.2957 35.0943 17.8848 35.2493C17.4851 35.4002 17.1343 35.6967 17.0179 36.1078C16.9234 36.442 16.9149 36.7691 16.9125 37.2088C16.9094 37.4611 16.9064 37.7134 16.9032 37.9734C16.9039 38.2483 16.9049 38.5231 16.9061 38.798C16.9051 39.0807 16.9039 39.3634 16.9025 39.6461C16.9005 40.2383 16.9013 40.8303 16.9042 41.4225C16.9075 42.1802 16.903 42.9377 16.8961 43.6955C16.8919 44.2792 16.8922 44.8629 16.8938 45.4467C16.8939 45.726 16.8926 46.0053 16.8898 46.2846C16.8864 46.6756 16.8898 47.0666 16.8936 47.4576C16.8937 47.6143 16.8939 47.7709 16.894 47.93C16.8941 48.0637 16.9062 48.1977 16.9379 48.3275C17.0708 48.871 17.2511 49.1426 17.6503 49.4545C17.863 49.6206 18.1185 49.7243 18.3863 49.7567C18.9424 49.8237 19.494 49.8131 20.0624 49.8031C20.2719 49.8033 20.4814 49.8034 20.6972 49.8035C21.3888 49.8029 22.0802 49.7954 22.7718 49.7878C23.2517 49.786 23.7315 49.7846 24.2113 49.7836C25.4737 49.7799 26.7359 49.7704 27.9982 49.7597C29.2865 49.7493 30.5748 49.7454 31.8631 49.7406C34.2596 49.7307 36.6559 49.7156 39.0523 49.6965C39.2673 49.6948 39.4411 49.8713 39.4361 50.0863C39.424 50.6763 39.4165 51.2664 39.4091 51.8566C39.4042 52.0606 39.3993 52.2646 39.3943 52.4748C39.3925 52.6723 39.3906 52.8699 39.3887 53.0734C39.3864 53.2079 39.3842 53.3424 39.3819 53.4792C39.3803 53.5747 39.3845 53.6705 39.4004 53.7647C39.4631 54.1349 39.5767 54.4125 39.7517 54.7016C39.9182 54.9768 40.1702 55.2029 40.4823 55.2807C40.6869 55.3317 40.8827 55.3439 41.0988 55.3364C41.4109 55.3257 41.7171 55.2245 41.9695 55.0408C42.1282 54.9253 42.2305 54.8199 42.5028 54.5394C42.7522 54.3013 42.7522 54.3013 43.0066 54.0583C43.1714 53.894 43.3361 53.7298 43.5059 53.5605C43.6567 53.4102 43.8075 53.2599 43.9628 53.1051C44.2536 52.8133 44.5437 52.5207 44.8329 52.2274C45.205 51.8608 45.5857 51.5183 45.9833 51.1798C46.6748 50.5876 47.3139 49.9539 47.9531 49.3066C48.6934 48.5572 49.4453 47.8448 50.2485 47.1623C50.9047 46.5736 51.5177 45.942 52.1344 45.3124C52.6614 44.7778 53.1943 44.2882 53.7902 43.8322C54.2257 43.469 54.335 43.378 54.4584 43.066C54.5627 42.8024 54.5961 42.5106 54.516 42.2386C54.1266 40.9165 52.6344 39.8749 51.6511 38.974C50.7908 38.1776 49.936 37.3806 49.1133 36.5449C48.6259 36.0502 48.1309 35.5818 47.6027 35.131C46.8023 34.4457 46.0701 33.7006 45.3304 32.9516C44.666 32.2822 43.9827 31.6491 43.2619 31.0402C42.922 30.7408 42.618 30.4228 42.3094 30.0916C41.4874 29.3243 40.9332 29.2144 40.1077 29.7692Z" fill="white"/>
<path d="M66.9023 34.4845C66.9023 33.38 67.7978 32.4844 68.9023 32.4844C69.0948 32.4844 69.2877 32.4844 69.481 32.4844C70.3013 32.4844 70.9681 33.1459 70.9745 33.9662C70.9874 35.5799 71.0024 37.1937 71.0185 38.8075C71.0282 39.7861 71.0371 40.7647 71.0445 41.7434C71.0516 42.6875 71.0605 43.6315 71.0708 44.5755C71.0744 44.9361 71.0773 45.2967 71.0796 45.6572C71.0828 46.1614 71.0884 46.6656 71.0946 47.1697C71.095 47.3195 71.0954 47.4693 71.0959 47.6236C71.1031 48.0822 71.1143 48.3844 71.2251 48.7005C71.3722 49.1202 71.7679 49.4057 72.2069 49.4773C72.4436 49.5158 72.6786 49.5281 72.9783 49.5306C73.1531 49.5325 73.328 49.5344 73.5082 49.5363C73.6996 49.5374 73.891 49.5386 74.0881 49.5397C74.29 49.5416 74.4919 49.5435 74.6999 49.5455C75.3684 49.5516 76.037 49.5564 76.7055 49.5612C77.1685 49.5652 77.6316 49.5692 78.0946 49.5734C79.3143 49.584 80.534 49.5936 81.7537 49.6029C83.2166 49.6143 84.6795 49.6271 86.1424 49.6397C87.7044 49.653 89.2663 49.6655 90.8283 49.6778C91.9266 49.6864 92.8125 50.5792 92.8125 51.6776C92.8125 56.4122 92.8125 61.1595 92.8125 66.0108C92.8125 66.9303 92.0783 67.6758 91.1588 67.6758C90.4251 67.6758 89.7667 67.1955 89.5541 66.4933C89.5405 66.4485 89.5269 66.4036 89.5133 66.3585C88.5792 63.467 86.9172 61.4998 84.245 60.0834C81.7369 58.8448 78.9924 58.905 76.377 59.748C73.9996 60.741 72.1018 62.46 70.9629 64.7754C70.747 65.3174 70.5598 65.8644 70.3838 66.4163C70.1459 67.1618 69.4716 67.6758 68.689 67.6758C67.7082 67.6758 66.9023 66.8807 66.9023 65.8999C66.9023 55.526 66.9023 45.1378 66.9023 34.4845Z" fill="white"/>
<path d="M42.3457 34.418C43.0636 34.716 43.5022 35.1544 44.0376 35.7111C44.6092 36.2952 45.1784 36.8625 45.802 37.3909C46.5982 38.071 47.3254 38.8121 48.0606 39.5565C48.7392 40.2403 49.4371 40.8899 50.1722 41.5134C50.4087 41.7159 50.6334 41.9322 50.8535 42.1523C50.8236 42.7027 50.6764 42.9089 50.2931 43.3072C50.135 43.4406 49.977 43.5739 49.8142 43.7113C49.0586 44.3666 48.3408 45.041 47.6389 45.7537C46.9412 46.4592 46.2311 47.1244 45.475 47.7658C44.7905 48.3829 44.1516 49.0467 43.5127 49.7107C43.2596 49.9697 42.9967 50.2192 42.7324 50.4668C42.6048 50.4668 42.4772 50.4668 42.3457 50.4668C42.3407 50.2642 42.3357 50.0615 42.3306 49.8527C42.3197 49.5861 42.3086 49.3195 42.2974 49.0529C42.2946 48.9194 42.2919 48.7859 42.2891 48.6484C42.2593 47.8581 42.2593 47.8581 41.815 47.238C41.3192 46.9519 41.0396 46.9124 40.4711 46.9092C40.2894 46.9068 40.1078 46.9044 39.9206 46.9019C39.6237 46.9023 39.6237 46.9023 39.3209 46.9027C39.1114 46.9008 38.902 46.8988 38.6862 46.8968C37.9936 46.8909 37.301 46.8891 36.6084 46.8874C36.1283 46.8841 35.6482 46.8806 35.1681 46.8769C34.0334 46.8686 32.8987 46.8629 31.764 46.8584C30.3452 46.8527 28.9264 46.843 27.5076 46.8334C24.9771 46.8167 22.4466 46.804 19.916 46.793C19.916 43.9216 19.916 41.0502 19.916 38.0918C20.5563 38.088 21.1965 38.0841 21.8562 38.0802C23.9693 38.0673 26.0824 38.0522 28.1955 38.0362C29.477 38.0265 30.7584 38.0176 32.0399 38.0102C33.2761 38.0031 34.5122 37.9941 35.7484 37.9839C36.2205 37.9803 36.6926 37.9774 37.1647 37.9751C37.8249 37.9719 38.4851 37.9663 39.1453 37.9601C39.3414 37.9597 39.5375 37.9593 39.7395 37.9588C40.0096 37.9556 40.0096 37.9556 40.2851 37.9523C40.4412 37.9512 40.5973 37.9501 40.7582 37.949C41.2385 37.8922 41.55 37.7674 41.959 37.5117C42.2453 36.9391 42.2206 36.3835 42.2611 35.7473C42.2854 35.3757 42.2854 35.3757 42.3102 34.9965C42.3219 34.8056 42.3336 34.6147 42.3457 34.418Z" fill="white"/>
<path d="M73.8633 34.4845C73.8633 33.3799 74.7587 32.4844 75.8633 32.4844C77.109 32.4844 78.361 32.4844 79.6308 32.4844C80.2603 32.4844 80.8531 32.7808 81.2309 33.2844C81.6068 33.7856 81.9852 34.2902 82.3711 34.8047C82.6721 35.2003 82.974 35.5953 83.2775 35.989C83.3553 36.09 83.4331 36.191 83.5133 36.2951C84.2132 37.2025 84.9178 38.1062 85.6219 39.0103C86.8369 40.5704 88.0429 42.1372 89.2399 43.7112C89.5154 44.0728 89.7922 44.4333 90.0692 44.7937C90.2304 45.0049 90.3915 45.2161 90.5526 45.4274C90.6914 45.6086 90.8303 45.7898 90.9733 45.9765C91.2505 46.384 90.8661 46.793 90.3732 46.793C85.5766 46.793 80.7738 46.793 75.8634 46.793C74.7588 46.793 73.8633 45.8976 73.8633 44.793C73.8633 41.3852 73.8633 37.9669 73.8633 34.4845Z" fill="white"/>
<path d="M84.1219 63.1303C85.9078 64.5146 86.8886 66.0137 87.2051 68.2558C87.4199 70.0168 86.9277 71.9095 85.8999 73.3557C84.4382 75.0878 82.9134 76.0952 80.6309 76.3528C78.6014 76.4566 76.7832 75.9511 75.1722 74.6843C73.6036 73.2275 72.7337 71.3004 72.6427 69.1622C72.7071 66.8293 73.696 64.982 75.349 63.3886C77.8976 61.3772 81.4591 61.33 84.1219 63.1303Z" fill="white"/>
<path d="M26.1526 63.1666C26.6385 63.534 27.0499 63.9363 27.4571 64.3887C27.5887 64.5323 27.7203 64.6758 27.8559 64.8238C29.0788 66.5595 29.4542 68.448 29.1082 70.5331C28.6097 72.6238 27.4592 74.162 25.7168 75.4102C23.9623 76.407 21.9234 76.6041 19.9742 76.1285C18.0449 75.5291 16.4481 74.2499 15.4544 72.4811C14.5648 70.7019 14.4776 68.595 15.0821 66.709C15.9156 64.5041 17.2712 63.2954 19.3684 62.2867C21.6491 61.3775 24.1498 61.8207 26.1526 63.1666Z" fill="white"/>
</svg>
