<svg width="99" height="99" viewBox="0 0 99 99" fill="none" xmlns="http://www.w3.org/2000/svg">
<path d="M92.8125 21.2695C73.7337 21.2695 54.655 21.2695 34.998 21.2695C34.998 36.5836 34.998 51.8977 34.998 67.6758C45.5903 67.6758 56.1825 67.6758 67.0957 67.6758C67.4786 66.4315 67.4786 66.4315 67.8691 65.1621C69.06 62.6102 71.0178 60.7901 73.6103 59.7118C76.3347 58.7529 79.0257 59.0589 81.6218 60.2556C84.1706 61.6116 85.7303 63.6456 86.6129 66.3585C86.7445 66.7932 86.8761 67.2279 87.0117 67.6758C88.926 67.6758 90.8402 67.6758 92.8125 67.6758C92.8125 52.3617 92.8125 37.0477 92.8125 21.2695ZM59.168 29.9707C59.5612 30.5869 59.6005 31.0692 59.5925 31.7925C59.5912 31.9907 59.59 32.1888 59.5887 32.393C59.5854 32.5986 59.5822 32.8042 59.5789 33.0161C59.5771 33.2247 59.5754 33.4334 59.5736 33.6483C59.569 34.1627 59.5627 34.677 59.5547 35.1914C59.6656 35.1907 59.7765 35.19 59.8907 35.1892C62.589 35.1722 65.2872 35.1594 67.9855 35.1513C69.2904 35.1473 70.5952 35.1419 71.9 35.1331C73.1588 35.1245 74.4175 35.12 75.6762 35.118C76.157 35.1166 76.6378 35.1138 77.1185 35.1096C77.7908 35.104 78.4629 35.1032 79.1352 35.1036C79.3349 35.1008 79.5346 35.098 79.7404 35.0952C80.7848 35.0942 80.7848 35.0942 81.7209 35.5059C82.0649 36.1052 82.0838 36.518 82.0875 37.2088C82.0906 37.4611 82.0936 37.7134 82.0968 37.9734C82.0961 38.2483 82.0951 38.5231 82.0939 38.798C82.0949 39.0807 82.0961 39.3634 82.0975 39.6461C82.0995 40.2383 82.0987 40.8303 82.0958 41.4225C82.0925 42.1802 82.097 42.9377 82.1039 43.6955C82.1081 44.2792 82.1078 44.8629 82.1062 45.4467C82.1061 45.726 82.1074 46.0053 82.1102 46.2846C82.1136 46.6756 82.1102 47.0666 82.1064 47.4576C82.1062 47.6798 82.106 47.9021 82.1058 48.131C81.9372 48.9576 81.7171 49.2188 81.0176 49.6934C80.3231 49.8289 79.6432 49.8156 78.9376 49.8031C78.7281 49.8033 78.5186 49.8034 78.3028 49.8035C77.6112 49.8029 76.9198 49.7954 76.2282 49.7878C75.7483 49.786 75.2685 49.7846 74.7887 49.7836C73.5264 49.7799 72.2641 49.7704 71.0018 49.7597C69.7135 49.7493 68.4252 49.7454 67.1369 49.7406C64.6094 49.7302 62.0821 49.7139 59.5547 49.6934C59.5577 49.823 59.5608 49.9527 59.5639 50.0863C59.576 50.6763 59.5835 51.2664 59.5909 51.8566C59.5958 52.0606 59.6007 52.2646 59.6057 52.4748C59.6075 52.6723 59.6094 52.8699 59.6113 53.0734C59.6144 53.2546 59.6174 53.4359 59.6205 53.6226C59.5416 54.2436 59.3397 54.6035 58.9746 55.1074C58.4238 55.3828 58.0386 55.3601 57.4277 55.3008C56.9334 54.9887 56.9334 54.9887 56.4972 54.5394C56.2478 54.3013 56.2478 54.3013 55.9934 54.0583C55.8286 53.894 55.6639 53.7298 55.4941 53.5605C55.3433 53.4102 55.1925 53.2599 55.0372 53.1051C54.7464 52.8133 54.4563 52.5207 54.1671 52.2274C53.795 51.8608 53.4143 51.5183 53.0167 51.1798C52.3252 50.5876 51.6861 49.9539 51.0469 49.3066C50.3066 48.5572 49.5547 47.8448 48.7515 47.1623C48.0953 46.5736 47.4823 45.942 46.8656 45.3124C46.3386 44.7778 45.8057 44.2882 45.2098 43.8322C44.6284 43.3475 44.6284 43.3475 44.4001 42.6599C44.558 41.1344 46.2634 39.9685 47.3489 38.974C48.2092 38.1776 49.064 37.3806 49.8867 36.5449C50.3741 36.0502 50.8691 35.5818 51.3973 35.131C52.1977 34.4457 52.9299 33.7006 53.6696 32.9516C54.334 32.2822 55.0173 31.6491 55.7381 31.0402C56.078 30.7408 56.382 30.4228 56.6906 30.0916C57.6008 29.242 58.1826 29.1984 59.168 29.9707Z" fill="white"/>
<path d="M32.0977 32.4844C30.7577 32.4844 29.4177 32.4844 28.0371 32.4844C28.0333 32.9734 28.0294 33.4623 28.0255 33.9662C28.0126 35.5799 27.9976 37.1937 27.9815 38.8075C27.9718 39.7861 27.9629 40.7647 27.9555 41.7434C27.9484 42.6875 27.9395 43.6315 27.9292 44.5755C27.9256 44.9361 27.9227 45.2967 27.9204 45.6572C27.9172 46.1614 27.9116 46.6656 27.9054 47.1697C27.905 47.3195 27.9046 47.4693 27.9041 47.6236C27.8927 48.3517 27.871 48.6857 27.457 49.3066C26.9159 49.487 26.5817 49.526 26.0217 49.5306C25.8469 49.5325 25.672 49.5344 25.4918 49.5363C25.3004 49.5374 25.109 49.5386 24.9119 49.5397C24.71 49.5416 24.5081 49.5435 24.3001 49.5455C23.6316 49.5516 22.963 49.5564 22.2945 49.5612C21.8315 49.5652 21.3684 49.5692 20.9054 49.5734C19.6857 49.584 18.466 49.5936 17.2463 49.6029C15.7834 49.6143 14.3205 49.6271 12.8576 49.6397C10.6342 49.6587 8.41086 49.6758 6.1875 49.6934C6.1875 55.6276 6.1875 61.5618 6.1875 67.6758C7.14463 67.6758 8.10176 67.6758 9.08789 67.6758C9.2195 67.2411 9.3511 66.8064 9.48669 66.3585C10.4208 63.467 12.0828 61.4998 14.755 60.0834C17.2631 58.8448 20.0076 58.905 22.623 59.748C25.0004 60.741 26.8982 62.46 28.0371 64.7754C28.4162 65.727 28.7068 66.6944 29.0039 67.6758C30.0248 67.6758 31.0458 67.6758 32.0977 67.6758C32.0977 56.0626 32.0977 44.4495 32.0977 32.4844Z" fill="white"/>
<path d="M56.6543 34.418C55.9364 34.716 55.4978 35.1544 54.9624 35.7111C54.3908 36.2952 53.8216 36.8625 53.198 37.3909C52.4018 38.071 51.6746 38.8121 50.9394 39.5565C50.2608 40.2403 49.5629 40.8899 48.8278 41.5134C48.5913 41.7159 48.3666 41.9322 48.1465 42.1523C48.1764 42.7027 48.3236 42.9089 48.7069 43.3072C48.865 43.4406 49.023 43.5739 49.1858 43.7113C49.9414 44.3666 50.6592 45.041 51.3611 45.7537C52.0588 46.4592 52.7689 47.1244 53.525 47.7658C54.2095 48.3829 54.8484 49.0467 55.4873 49.7107C55.7404 49.9697 56.0033 50.2192 56.2676 50.4668C56.3952 50.4668 56.5228 50.4668 56.6543 50.4668C56.6593 50.2642 56.6643 50.0615 56.6694 49.8527C56.6803 49.5861 56.6914 49.3195 56.7026 49.0529C56.7054 48.9194 56.7081 48.7859 56.7109 48.6484C56.7407 47.8581 56.7407 47.8581 57.185 47.238C57.6808 46.9519 57.9604 46.9124 58.5289 46.9092C58.7106 46.9068 58.8922 46.9044 59.0794 46.9019C59.3763 46.9023 59.3763 46.9023 59.6791 46.9027C59.8886 46.9008 60.098 46.8988 60.3138 46.8968C61.0064 46.8909 61.699 46.8891 62.3916 46.8874C62.8717 46.8841 63.3518 46.8806 63.8319 46.8769C64.9666 46.8686 66.1013 46.8629 67.236 46.8584C68.6548 46.8527 70.0736 46.843 71.4924 46.8334C74.0229 46.8167 76.5534 46.804 79.084 46.793C79.084 43.9216 79.084 41.0502 79.084 38.0918C78.4437 38.088 77.8035 38.0841 77.1438 38.0802C75.0307 38.0673 72.9176 38.0522 70.8045 38.0362C69.523 38.0265 68.2416 38.0176 66.9601 38.0102C65.7239 38.0031 64.4878 37.9941 63.2516 37.9839C62.7795 37.9803 62.3074 37.9774 61.8353 37.9751C61.1751 37.9719 60.5149 37.9663 59.8547 37.9601C59.6586 37.9597 59.4625 37.9593 59.2605 37.9588C58.9904 37.9556 58.9904 37.9556 58.7149 37.9523C58.5588 37.9512 58.4027 37.9501 58.2418 37.949C57.7615 37.8922 57.45 37.7674 57.041 37.5117C56.7547 36.9391 56.7794 36.3835 56.7389 35.7473C56.7146 35.3757 56.7146 35.3757 56.6898 34.9965C56.6781 34.8056 56.6664 34.6147 56.6543 34.418Z" fill="white"/>
<path d="M25.1367 32.4844C22.9034 32.4844 20.6701 32.4844 18.3691 32.4844C17.7949 33.2501 17.2206 34.0158 16.6289 34.8047C16.3279 35.2003 16.026 35.5953 15.7225 35.989C15.6447 36.09 15.5669 36.191 15.4867 36.2951C14.7868 37.2025 14.0822 38.1062 13.3781 39.0103C12.1631 40.5704 10.9571 42.1372 9.76012 43.7112C9.48464 44.0728 9.20783 44.4333 8.93079 44.7937C8.7696 45.0049 8.60846 45.2161 8.44739 45.4274C8.30855 45.6086 8.16972 45.7898 8.02668 45.9765C7.73438 46.4062 7.73438 46.4062 7.73438 46.793C13.4771 46.793 19.2199 46.793 25.1367 46.793C25.1367 42.0711 25.1367 37.3493 25.1367 32.4844Z" fill="white"/>
<path d="M14.8781 63.1303C13.0922 64.5146 12.1114 66.0137 11.7949 68.2558C11.5801 70.0168 12.0723 71.9095 13.1001 73.3557C14.5618 75.0878 16.0866 76.0952 18.3691 76.3528C20.3986 76.4566 22.2168 75.9511 23.8278 74.6843C25.3964 73.2275 26.2663 71.3004 26.3573 69.1622C26.2929 66.8293 25.304 64.982 23.651 63.3886C21.1024 61.3772 17.5409 61.33 14.8781 63.1303Z" fill="white"/>
<path d="M72.8474 63.1666C72.3615 63.534 71.9502 63.9363 71.543 64.3887C71.4114 64.5323 71.2798 64.6758 71.1442 64.8238C69.9213 66.5595 69.5458 68.448 69.8919 70.5331C70.3904 72.6238 71.5409 74.162 73.2832 75.4102C75.0378 76.407 77.0767 76.6041 79.0259 76.1285C80.9552 75.5291 82.552 74.2499 83.5456 72.4811C84.4353 70.7019 84.5225 68.595 83.918 66.709C83.0844 64.5041 81.7289 63.2954 79.6316 62.2867C77.3509 61.3775 74.8502 61.8207 72.8474 63.1666Z" fill="white"/>
</svg>
