<svg width="103" height="103" viewBox="0 0 103 103" fill="none" xmlns="http://www.w3.org/2000/svg">
<path d="M17.1664 90.1247C13.59 90.1247 10.55 88.873 8.04656 86.3695C5.54309 83.8661 4.29135 80.8261 4.29135 77.2497C4.29135 75.39 4.64899 73.6204 5.36427 71.9409C6.07955 70.2615 7.15246 68.8123 8.58302 67.5935V51.4997C8.58302 50.2838 8.99502 49.2652 9.81902 48.4441C10.643 47.6229 11.6616 47.2109 12.8747 47.2081H17.1664V25.7497C17.1664 24.5338 17.5784 23.5152 18.4024 22.6941C19.2264 21.8729 20.2449 21.4609 21.458 21.4581H45.8132C47.5299 21.4581 49.1035 21.923 50.5341 22.8529C51.9646 23.7827 53.0375 25.0702 53.7528 26.7154L71.6705 68.9883C72.0997 69.9897 72.4216 70.9911 72.6361 71.9924C72.8507 72.9938 72.958 74.031 72.958 75.1039C72.958 79.2525 71.4917 82.7931 68.5591 85.7258C65.6264 88.6584 62.0858 90.1247 57.9372 90.1247C55.0046 90.1247 52.3037 89.3565 49.8345 87.8201C47.3654 86.2837 45.5257 84.1908 44.3154 81.5414H29.2946C28.3647 84.1164 26.7911 86.1907 24.5738 87.7643C22.3564 89.3379 19.8873 90.1247 17.1664 90.1247ZM94.4164 85.8331H81.5414C80.3254 85.8331 79.3068 85.4211 78.4857 84.5971C77.6646 83.7731 77.2525 82.7545 77.2497 81.5414V21.4581C77.2497 20.2421 77.6617 19.2235 78.4857 18.4024C79.3097 17.5813 80.3282 17.1693 81.5414 17.1664C82.7545 17.1635 83.7745 17.5755 84.6013 18.4024C85.4282 19.2293 85.8387 20.2478 85.833 21.4581V77.2497H94.4164C95.6323 77.2497 96.6523 77.6617 97.4763 78.4857C98.3003 79.3097 98.7109 80.3283 98.708 81.5414C98.7052 82.7545 98.2932 83.7745 97.472 84.6014C96.6509 85.4282 95.6323 85.8388 94.4164 85.8331ZM17.1664 81.5414C18.3823 81.5414 19.4023 81.1294 20.2263 80.3054C21.0503 79.4814 21.4609 78.4628 21.458 77.2497C21.4552 76.0366 21.0432 75.0181 20.222 74.1941C19.4009 73.3701 18.3823 72.9581 17.1664 72.9581C15.9504 72.9581 14.9318 73.3701 14.1107 74.1941C13.2895 75.0181 12.8775 76.0366 12.8747 77.2497C12.8718 78.4628 13.2838 79.4828 14.1107 80.3097C14.9375 81.1366 15.9561 81.5471 17.1664 81.5414ZM57.9372 81.5414C59.7254 81.5414 61.2461 80.9162 62.4992 79.6659C63.7524 78.4156 64.3776 76.895 64.3747 75.1039C64.3718 73.3128 63.7467 71.7936 62.4992 70.5462C61.2518 69.2987 59.7311 68.6721 57.9372 68.6664C56.1433 68.6607 54.624 69.2873 53.3794 70.5462C52.1349 71.805 51.5083 73.3243 51.4997 75.1039C51.4911 76.8835 52.1177 78.4042 53.3794 79.6659C54.6412 80.9277 56.1604 81.5528 57.9372 81.5414ZM38.3028 60.0831H58.5809L45.8132 30.0414H25.7497V47.2081L38.3028 60.0831Z" fill="white"/>
</svg>
